<svg width="220" height="233" viewBox="0 0 220 233" fill="none" xmlns="http://www.w3.org/2000/svg">
<path d="M209.022 27.828C212.439 35.1713 219.274 43.8109 217.138 50.7222C215.003 57.6338 167.316 218.155 153.827 228.123C139.29 238.866 52.1657 210.413 47.0399 204.797C41.9141 199.181 42.7683 188.382 42.7683 188.382L209.022 27.828Z" fill="#353535"/>
<path d="M142.241 233C139.12 233 135.525 232.752 131.438 232.258C121.954 231.111 109.796 228.597 96.2789 224.987C74.9265 219.286 48.714 210.281 45.2406 206.475C39.4547 200.136 40.2897 188.669 40.3281 188.185C40.3758 187.579 40.6427 187.012 41.0778 186.592L207.332 26.0378C207.612 25.7669 207.953 25.5675 208.325 25.4557C208.696 25.344 209.089 25.3232 209.47 25.3951C209.852 25.467 210.211 25.6295 210.518 25.8692C210.825 26.109 211.071 26.419 211.237 26.7739C212.059 28.5405 213.093 30.3943 214.187 32.3575C217.727 38.7047 221.387 45.2677 219.474 51.4605C219.335 51.9092 219.004 53.0078 218.501 54.6732C207.846 89.9999 198.031 121.173 189.329 147.326C166.538 215.821 158.976 227.383 155.27 230.122C152.669 232.044 148.368 233 142.241 233H142.241ZM45.1711 189.484C45.1158 192.016 45.2934 199.235 48.8378 203.119C50.8248 205.096 70.9503 213.128 97.8446 220.286C111.082 223.809 122.946 226.255 132.152 227.359C146.048 229.025 150.792 227.301 152.382 226.125C153.525 225.281 157.098 220.991 165.595 199.434C170.838 186.133 177.262 168.07 184.689 145.748C193.376 119.639 203.177 88.5113 213.819 53.2295C214.326 51.5475 214.661 50.4375 214.801 49.9846C216.084 45.8352 212.952 40.2202 209.923 34.7898C209.387 33.8346 208.859 32.8749 208.338 31.9109L45.1711 189.484Z" fill="#353535"/>
<path d="M110.778 5.36585C121.029 -4.5693 202.615 13.1413 209.022 27.8283C214.884 41.2658 158.098 208.253 146.138 218.188C136.43 226.252 48.171 201.262 42.7679 188.383C36.788 174.127 103.142 12.7658 110.778 5.36585Z" fill="#FEFEFE"/>
<path d="M138.361 222.233C136.332 222.233 133.871 222.098 130.869 221.776C123.539 220.987 114.151 219.201 103.72 216.609C89.5612 213.09 74.9135 208.437 63.5326 203.842C43.1407 195.608 41.1641 190.897 40.5148 189.349C39.3774 186.638 39.14 180.176 47.4686 154.054C53.9139 133.838 62.9477 109.909 69.3902 93.3955C84.8826 53.6884 104.463 8.06056 109.085 3.57881C111.856 0.8933 117.853 -0.26223 127.432 0.0496358C135.484 0.310938 145.477 1.59836 156.33 3.77293C169.084 6.32868 181.437 9.79986 191.112 13.5483C202.575 17.9886 209.354 22.4569 211.261 26.8294C211.924 28.3485 213.685 32.3843 205.716 62.484C201.235 79.4064 194.44 101.65 186.581 125.116C175.781 157.368 155.435 213.668 147.691 220.101C146.505 221.087 144.273 222.233 138.361 222.233ZM110.778 5.36585L112.472 7.15289C109.364 10.1747 91.8541 49.3064 73.9377 95.2281C64.7375 118.81 57.1946 139.679 52.1255 155.579C43.9281 181.292 44.6155 186.448 45.0218 187.416C45.327 188.144 47.7423 192.136 65.3483 199.244C76.5285 203.758 90.9398 208.335 104.888 211.801C115.109 214.341 124.272 216.088 131.387 216.853C141.924 217.986 144.229 216.571 144.585 216.276C145.478 215.534 149.196 211.102 159.565 185.213C166.343 168.293 174.29 146.386 181.946 123.527C189.771 100.16 196.534 78.0256 200.988 61.2033C208.148 34.1572 207.072 29.4884 206.783 28.8272C206.166 27.4132 203.234 23.5449 189.362 18.1707C179.938 14.5199 167.869 11.1311 155.379 8.62878C131.208 3.78602 115.497 4.22022 112.472 7.15289L110.779 5.36585H110.778Z" fill="#353535"/>
<path d="M167.616 29.085C167.216 29.0849 166.822 28.9853 166.47 28.795C158.903 24.7302 150.486 22.3035 143.953 22.3035C143.304 22.3035 142.681 22.0427 142.222 21.5785C141.763 21.1144 141.505 20.4848 141.505 19.8284C141.505 19.1719 141.763 18.5424 142.222 18.0782C142.681 17.614 143.304 17.3532 143.953 17.3532C154.47 17.3532 164.809 22.2975 168.766 24.4236C169.249 24.6827 169.632 25.0978 169.855 25.6026C170.077 26.1075 170.126 26.6731 169.994 27.2094C169.861 27.7456 169.555 28.2216 169.124 28.5615C168.693 28.9014 168.162 29.0857 167.616 29.085Z" fill="#353535"/>
<path d="M56.6128 54.5861C85.1178 47.3529 76.5938 1.34536 33.4 9.47717C-14.9904 18.5876 -1.41547 69.2425 38.4932 61.7162C38.4932 61.7162 55.9134 72.2508 66.0575 66.9513C59.5472 62.9812 55.5992 58.8956 56.6128 54.5861Z" fill="#FEFEFE"/>
<path d="M59.2894 70.9126C62.0743 70.9126 64.7853 70.4162 67.1885 69.1608C67.5776 68.9578 67.9061 68.6536 68.14 68.2796C68.3739 67.9057 68.5048 67.4755 68.5192 67.0334C68.5336 66.5913 68.431 66.1533 68.222 65.7646C68.0129 65.3759 67.705 65.0506 67.33 64.8222C62.1738 61.6775 59.3727 58.8838 58.9727 56.4939C64.9528 54.5761 69.6252 50.9176 72.554 45.836C75.4969 40.7313 76.3958 34.5861 75.0856 28.5327C73.4775 21.1016 68.8357 14.7912 62.0169 10.7638C54.2859 6.1978 44.234 4.90723 32.949 7.03212C10.8845 11.186 3.73081 22.8526 1.43032 29.4377C-1.57484 38.04 0.217287 47.4062 6.22409 54.4923C13.4161 62.9762 24.9745 66.5345 38.0432 64.3229C40.8855 65.923 50.4586 70.9126 59.2894 70.9126ZM60.1692 65.9223C52.8322 66.2925 43.415 61.7876 39.7569 59.5814C39.2414 59.2701 38.6311 59.1598 38.0407 59.2711C26.3821 61.4696 16.1476 58.5491 9.96524 51.257C5.11659 45.5371 3.66221 37.9991 6.07457 31.0928C8.02149 25.5198 14.219 15.6184 33.8507 11.9226C43.9557 10.0205 52.8358 11.1046 59.5303 15.0584C65.1473 18.3754 68.9627 23.5381 70.2736 29.5951C72.147 38.2514 68.4832 49.0091 56.0122 52.1737C55.5751 52.2846 55.1764 52.5146 54.8598 52.8386C54.5431 53.1626 54.3207 53.5682 54.2166 54.0111C53.0739 58.8718 56.2979 62.8625 60.1692 65.9223Z" fill="#353535"/>
<path d="M29.72 46.7586C29.0987 46.9565 28.4252 46.8978 27.8458 46.5952C27.2664 46.2926 26.8279 45.7705 26.6256 45.1424L23.724 36.1329C23.5204 35.5006 23.5727 34.8123 23.8696 34.2196C24.1664 33.6269 24.6834 33.1783 25.3069 32.9725L25.3311 32.9648C25.9524 32.7668 26.6259 32.8256 27.2053 33.1282C27.7847 33.4308 28.2232 33.9528 28.4255 34.5809L31.3271 43.5904C31.5307 44.2228 31.4784 44.911 31.1815 45.5037C30.8847 46.0964 30.3677 46.545 29.7442 46.7508L29.72 46.7586Z" fill="#353535"/>
<path d="M23.4262 43.7694C22.8008 43.9693 22.1225 43.909 21.5405 43.6018C20.9585 43.2946 20.5204 42.7656 20.3226 42.1313C20.1248 41.497 20.1836 40.8093 20.4859 40.2195C20.7883 39.6296 21.3095 39.186 21.9348 38.9861L31.2108 36.0157L31.2139 36.0147C31.5235 35.9158 31.8494 35.8796 32.173 35.9084C32.4965 35.9372 32.8114 36.0303 33.0996 36.1824C33.3878 36.3345 33.6437 36.5427 33.8526 36.795C34.0616 37.0473 34.2195 37.3388 34.3175 37.6528C34.4154 37.9669 34.4514 38.2974 34.4233 38.6255C34.3953 38.9535 34.3038 39.2726 34.1541 39.5647C34.0044 39.8568 33.7994 40.116 33.5508 40.3276C33.3022 40.5392 33.0149 40.6991 32.7052 40.798L23.4292 43.7685L23.4262 43.7694ZM50.0885 48.3581C49.7653 48.4615 49.4245 48.4964 49.0873 48.4606C48.75 48.4249 48.4236 48.3192 48.1282 48.1502C47.8329 47.9811 47.5749 47.7524 47.3702 47.4781C47.1656 47.2038 47.0187 46.8898 46.9388 46.5557L42.8762 29.5905L41.6887 34.1194C41.5202 34.762 41.1068 35.3101 40.5395 35.6431C39.9721 35.9762 39.2973 36.067 38.6634 35.8954C38.0295 35.7239 37.4885 35.3042 37.1595 34.7285C36.8304 34.1529 36.7401 33.4685 36.9086 32.826L40.5943 18.7708C40.7352 18.2318 41.0494 17.7561 41.4871 17.4189C41.9248 17.0816 42.4611 16.9021 43.0111 16.9087C43.561 16.9153 44.0934 17.1077 44.5238 17.4553C44.9542 17.803 45.2582 18.2861 45.3876 18.8283L51.745 45.3774C51.8929 45.995 51.8042 46.6463 51.4967 47.1996C51.1892 47.7529 50.6859 48.1669 50.0885 48.3581Z" fill="#353535"/>
<path d="M100.574 74.2793C105.77 71.3693 177.94 83.2669 180.472 87.9757C183.004 92.6841 163.814 149.803 158.822 151.526C149.391 154.782 77.4439 126.641 75.1659 121.428C72.8882 116.214 95.3769 77.1894 100.574 74.2793Z" fill="#60CDFF"/>
<path d="M161.865 148.841C160.177 148.841 156.382 148.371 146.546 146.16C138.29 144.305 127.582 141.603 117.168 138.747C105.961 135.674 95.7039 132.593 88.2857 130.073C75.2375 125.639 73.5706 123.93 72.9181 122.436C72.3333 121.098 72.0667 118.646 74.526 110.616C76.013 105.761 78.3037 99.5379 80.9758 93.0952C83.611 86.7408 86.4043 80.6804 88.8403 76.03C92.7354 68.5945 94.5708 66.8926 95.7348 66.2408C96.786 65.6524 99.2473 64.2741 124.512 69.4506C138.602 72.3372 154.973 76.3486 166.22 79.6702C181.182 84.0885 182.054 85.7103 182.631 86.7835C183.143 87.7347 184.501 90.2617 179.524 109.163C176.663 120.027 172.96 131.39 169.86 138.819C166.728 146.325 164.939 148.187 163.216 148.673C162.953 148.747 162.62 148.841 161.866 148.841L161.865 148.841ZM77.4232 120.259C79.9 122.148 93.6808 127.168 119.121 134.12C140.933 140.081 158.276 143.859 161.699 143.859H161.729C163.184 142.302 167.078 134.098 172.135 117.235C176.822 101.603 178.523 91.6621 178.287 89.2913C175.567 87.4624 160.5 82.7561 138.784 77.6856C115.738 72.3044 100.73 70.0696 98.0472 70.6559C96.518 71.8922 91.7751 79.9763 85.6551 94.6733C79.6784 109.027 77.3097 118.001 77.4232 120.259Z" fill="#353535"/>
<path d="M127.215 111.124C126.185 111.124 125.664 110.93 125.259 110.78C123.889 110.269 120.679 109.073 107.18 88.9752C100.696 79.3234 94.8911 69.8279 94.8332 69.7332C94.6609 69.455 94.5446 69.1449 94.491 68.8209C94.4374 68.4969 94.4476 68.1654 94.5209 67.8454C94.5942 67.5254 94.7292 67.2233 94.9181 66.9563C95.107 66.6894 95.3462 66.463 95.6218 66.2901C95.8974 66.1172 96.204 66.0012 96.524 65.9489C96.844 65.8966 97.1711 65.9089 97.4863 65.9851C97.8016 66.0614 98.0989 66.2 98.3611 66.3932C98.6233 66.5863 98.8452 66.8301 99.0141 67.1105C99.0714 67.2044 104.815 76.5978 111.23 86.1495C123.023 103.709 126.327 105.836 126.928 106.091C127.61 106.235 131.986 106.339 155.097 96.5766C167.557 91.314 179.317 85.7719 179.434 85.7167C180.025 85.4378 180.702 85.4082 181.314 85.6347C181.927 85.8611 182.425 86.3248 182.701 86.924C182.976 87.5231 183.005 88.2085 182.782 88.8293C182.558 89.4502 182.101 89.9557 181.51 90.2347C181.388 90.292 169.261 96.0071 156.537 101.367C136.986 109.604 130.101 111.124 127.215 111.124H127.215Z" fill="#353535"/>
</svg>
