<svg width="284" height="173" viewBox="0 0 284 173" fill="none" xmlns="http://www.w3.org/2000/svg">
<path d="M3.54698 154.391C2.27844 155.427 0.74022 163.359 3.47823 163.669C7.90174 164.169 173.085 173.135 189.259 170.579C205.434 168.024 251.012 141.508 254.387 138.952C257.763 136.397 254.274 129.369 254.274 129.369L3.54698 154.391Z" fill="#FEFEFE"/>
<path d="M176.847 173C157.613 173 122.028 171.603 91.8744 170.239C48.3553 168.27 5.69194 165.902 3.25996 165.627C2.5895 165.551 0.957651 165.128 0.293621 162.842C-0.565761 159.885 0.567505 154.287 2.31506 152.86C2.61214 152.617 2.9735 152.467 3.35442 152.43L254.082 127.407C254.887 127.325 255.661 127.756 256.024 128.487C256.456 129.357 260.111 137.084 255.563 140.528C253.696 141.941 241.325 149.267 227.528 156.513C215.086 163.047 198.4 171.129 189.563 172.526C187.465 172.857 182.988 173 176.847 173ZM4.03578 161.741C8.62222 162.108 49.697 164.386 92.0502 166.301C148.028 168.833 182.443 169.661 188.956 168.632C204.241 166.217 249.475 140.206 253.212 137.377C254.459 136.433 253.798 133.485 253.045 131.471L4.66347 156.26C4.10257 157.619 3.67805 160.679 4.03578 161.741Z" fill="#353535"/>
<path d="M91.8956 121.382C86.504 123.938 -4.51668 153.648 4.0464 154.926C12.6092 156.204 178.902 162.912 186.831 161.635C194.759 160.357 249.2 131.286 254.274 129.369C259.349 127.452 91.8959 121.383 91.8959 121.383L91.8956 121.382Z" fill="#FEFEFE"/>
<path d="M181.291 163.76C163.569 163.76 112.803 161.869 95.6017 161.208C54.0169 159.609 8.29356 157.552 3.75966 156.875C1.84246 156.589 1.56942 155.204 1.53113 154.787C1.37379 153.061 3.11407 152.096 4.2655 151.458C5.44125 150.807 7.10859 150.02 9.36311 149.053C13.3048 147.362 18.8373 145.208 26.2774 142.467C39.7455 137.504 56.3513 131.771 69.6945 127.164C80.3788 123.476 89.6062 120.29 91.0628 119.599C91.3448 119.466 91.6547 119.403 91.9661 119.413C92.3716 119.428 132.977 120.903 173.102 122.604C196.672 123.604 215.467 124.486 228.966 125.224C236.992 125.663 243.216 126.056 247.464 126.392C249.77 126.575 251.55 126.745 252.754 126.899C254.45 127.115 256.053 127.319 256.317 128.958C256.445 129.749 256.075 130.793 254.961 131.214C253.389 131.808 246.021 135.559 237.49 139.902C213.015 152.362 192.333 162.743 187.139 163.58C186.364 163.705 184.305 163.76 181.29 163.76L181.291 163.76ZM9.29519 153.375C22.1879 154.2 57.0615 155.782 95.7507 157.27C147.637 159.264 183.266 160.213 186.521 159.689C191.536 158.88 219.198 144.798 235.725 136.384C240.734 133.835 244.701 131.817 247.648 130.345C225.31 128.561 146.693 125.343 92.2673 123.368C90.0011 124.311 82.8292 126.796 70.9628 130.893C58.3459 135.249 42.644 140.669 29.5671 145.454C18.7666 149.405 12.6989 151.858 9.29519 153.375V153.375Z" fill="#353535"/>
<path d="M91.6192 128.411C94.6798 128.434 219.26 134.339 222.276 134.99C225.292 135.641 199.397 148.132 196.166 148.691C192.934 149.251 54.3869 143.908 52.6634 142.665C50.9399 141.422 88.8114 128.39 91.6192 128.411Z" fill="#353535"/>
<path d="M194.591 150.69C184.779 150.69 141.357 149.032 123.771 148.323C104.85 147.56 87.6219 146.799 75.2608 146.178C52.5955 145.04 52.1925 144.749 51.5245 144.267C50.7811 143.731 50.4715 142.784 50.7537 141.91C51.0698 140.93 51.5555 140.251 57.8496 137.691C61.1074 136.366 65.6631 134.662 70.6766 132.892C71.4242 132.628 88.988 126.44 91.6212 126.44H91.6332C92.6877 126.449 218.974 132.262 222.685 133.063C223.778 133.299 224.497 134.175 224.475 135.245C224.448 136.607 223.442 137.564 219.798 139.696C217.095 141.277 213.706 143.011 211.339 144.188C206.526 146.579 198.602 150.269 196.497 150.634C196.271 150.672 195.613 150.69 194.591 150.69ZM59.3017 141.34C70.0483 142.048 94.04 143.184 124.836 144.422C161.099 145.879 193.52 146.938 195.87 146.743C196.843 146.545 201.738 144.521 208.611 141.146C212.475 139.249 215.338 137.721 217.326 136.58C208.337 136.019 186.794 134.896 156.372 133.409C124.944 131.872 93.4808 130.411 91.6374 130.381C89.1308 130.602 69.1191 137.382 59.3017 141.34V141.34Z" fill="#353535"/>
<path d="M91.8956 121.382C85.6787 118.097 116.316 8.93166 120.756 4.45923C125.196 -0.013476 279.329 1.90336 281.866 7.33435C284.403 12.7653 259.525 128.833 254.274 129.369C248.661 129.942 95.86 123.477 91.8956 121.382Z" fill="#FEFEFE"/>
<path d="M252.796 131.37C244.068 131.37 206.248 129.898 172.377 128.344C157.274 127.652 135.586 126.607 118.035 125.562C92.7424 124.055 91.6858 123.497 90.9865 123.127C89.588 122.388 89.3304 120.683 89.2457 120.123C87.8852 111.124 97.5192 73.6953 101.724 58.0206C105.211 45.0258 109.032 31.7955 112.209 21.7217C117.498 4.95414 118.811 3.63074 119.372 3.06573C120.166 2.26623 121.366 1.05769 143.455 0.394158C156.032 0.0160831 173.1 -0.0945522 191.514 0.0819576C225.297 0.4057 265.176 1.7505 278.115 4.02514C281.672 4.65038 283.065 5.27366 283.636 6.49515C284.027 7.33406 284.757 8.89591 281.636 26.9759C279.83 37.4376 277.127 51.1057 274.025 65.4624C268.597 90.5758 260.9 122.322 257.07 129.14C256.536 130.09 255.759 131.198 254.471 131.329C254.197 131.357 253.628 131.37 252.796 131.37L252.796 131.37ZM93.127 119.677C97.9837 120.572 129.073 122.421 173.721 124.461C214.876 126.341 248.46 127.525 253.537 127.432C254.154 126.458 255.968 122.645 259.896 108.015C262.704 97.5523 266.07 83.4943 269.373 68.4304C276.461 36.1024 280.333 12.8746 280.1 8.51361C278.748 8.04405 273.551 6.89293 253.978 5.80938C239.873 5.02846 221.137 4.43615 201.221 4.14169C156.038 3.47309 125.812 4.53806 122.063 5.96928C120.064 9.00514 112.349 33.1906 104.676 62.1464C100.745 76.9789 97.5947 90.1563 95.5654 100.253C92.7167 114.43 92.8975 118.541 93.1267 119.677H93.127Z" fill="#353535"/>
<path d="M119.866 54.6629C124.36 49.8538 186.798 49.7204 188.464 52.2388C190.131 54.7572 180.158 99.2403 177.102 101.199C174.046 103.158 109.065 104.005 107.12 100.647C105.175 97.2888 115.421 59.42 119.866 54.6629Z" fill="#FEFEFE"/>
<path d="M140.436 104.888C127.239 104.888 113.113 104.472 108.233 103.279C107.165 103.018 105.997 102.619 105.43 101.64C104.878 100.686 104.533 98.901 105.743 92.3536C106.49 88.3065 107.722 83.0864 109.211 77.6548C110.149 74.2364 114.999 56.997 118.441 53.3122C119.295 52.3987 121.562 49.9726 146.972 48.9721C160.243 48.4493 175.161 48.5611 183.249 49.2432C188.309 49.6703 189.45 50.175 190.092 51.1454C190.603 51.9167 191.553 53.3525 187.827 71.1352C186.356 78.1511 184.602 85.4246 183.012 91.0907C180.052 101.644 178.909 102.376 178.152 102.861C177.607 103.21 176.696 103.795 166.764 104.305C160.991 104.602 153.509 104.801 145.695 104.866C143.976 104.88 142.213 104.888 140.435 104.888L140.436 104.888ZM108.827 99.3785C111.488 100.206 122.678 101.007 142.403 100.944C159.803 100.887 173.452 100.177 175.979 99.5226C177.059 97.8332 179.671 89.5012 182.615 76.6332C185.269 65.0306 186.691 56.3427 186.709 53.6281C183.301 52.8871 170.087 52.3475 154.204 52.6951C130.703 53.2106 122.4 55.0967 121.276 56.0291C119.892 57.5397 116.778 65.0289 113.188 77.9591C109.9 89.8033 108.712 97.2314 108.827 99.3782V99.3785ZM121.291 56.0134C121.291 56.0134 121.29 56.0145 121.289 56.015C121.29 56.0145 121.29 56.0139 121.291 56.0134Z" fill="#353535"/>
<path d="M150.281 20.9445C154.774 16.1354 261.284 25.9324 262.951 28.4508C264.617 30.9692 248.812 85.0688 245.756 87.0276C242.7 88.9864 135.718 90.573 133.773 87.2151C131.829 83.8572 145.836 25.7015 150.281 20.9445Z" fill="#60CDFF"/>
<path d="M232.106 93.9433C232.006 93.9433 231.908 93.9433 231.806 93.9433C221.976 93.9393 209.143 93.7336 195.672 93.3631C170.61 92.6742 141.41 91.3466 134.617 89.6868C133.444 89.4002 132.564 89.039 132.083 88.2083C131.66 87.4772 131.02 86.3728 132.791 76.7514C133.773 71.4187 135.31 64.5159 137.12 57.3145C138.74 50.8689 144.285 29.5602 147.627 25.9811C148.574 24.9673 150.793 22.5944 193.745 22.975C215.985 23.1724 241.703 24.1236 254.896 25.2364C257.443 25.4512 259.454 25.6677 260.871 25.8794C262.965 26.1922 263.997 26.4799 264.578 27.3579C265.05 28.0716 265.539 28.8094 264.13 37.6268C263.366 42.41 262.141 48.8806 260.682 55.8461C258.867 64.5083 256.844 73.1982 255.132 79.6873C251.938 91.799 250.879 92.478 250.106 92.9737C249.431 93.4059 248.591 93.9433 232.106 93.9433ZM135.512 85.8652C139.405 86.8643 157.926 88.3023 191.744 89.3078C222.465 90.2208 244.194 90.1583 247.92 89.5812C249.122 87.3246 252.184 76.5493 255.841 59.7699C259.178 44.4597 261.045 33.236 261.153 29.9045C256.276 28.9615 234.069 27.6516 206.34 27.1004C191.859 26.8121 179.035 26.8031 169.253 27.0742C153.996 27.4965 150.955 28.4958 150.397 28.774C148.942 30.5621 145.345 40.8115 141.153 57.33C137.429 72.0057 135.461 82.8403 135.511 85.8661L135.512 85.8652Z" fill="#353535"/>
<path d="M252.545 40.9208C251.975 40.9208 251.41 40.6711 251.023 40.19L246.466 34.5191C245.786 33.6732 245.916 32.4323 246.755 31.7476C247.595 31.063 248.827 31.1936 249.507 32.0395L254.064 37.7104C254.744 38.5563 254.614 39.7972 253.774 40.4819C253.412 40.7772 252.977 40.9208 252.545 40.9208Z" fill="#353535"/>
<path d="M245.757 40.9211C245.118 40.9211 244.492 40.606 244.117 40.0264C243.527 39.1146 243.782 37.8936 244.687 37.2994L253.322 31.6285C254.227 31.0345 255.439 31.291 256.03 32.2031C256.619 33.1149 256.364 34.3359 255.459 34.9301L246.824 40.601C246.494 40.8175 246.124 40.9211 245.757 40.9211Z" fill="#353535"/>
<path d="M227.869 49.1478C227.856 49.1478 227.842 49.1478 227.829 49.1475C227.169 49.134 161.756 47.8004 156.797 47.6673C155.717 47.6383 154.865 46.7329 154.894 45.6449C154.923 44.5571 155.818 43.6996 156.902 43.7275C161.848 43.8604 227.248 45.1936 227.908 45.2071C228.988 45.2291 229.846 46.1291 229.824 47.2171C229.803 48.2917 228.931 49.1478 227.869 49.1478Z" fill="#353535"/>
<path d="M201.729 69.0486C201.711 69.0486 201.693 69.0486 201.675 69.0481C171.964 68.2401 155.535 67.7821 152.844 67.6869C151.765 67.6487 150.92 66.736 150.958 65.6482C150.996 64.5607 151.903 63.708 152.982 63.748C155.624 63.8417 172.499 64.3119 201.781 65.1083C202.861 65.1375 203.713 66.0435 203.684 67.1315C203.655 68.2013 202.785 69.0489 201.729 69.0489L201.729 69.0486Z" fill="#353535"/>
<path d="M215.829 64.8259L230.908 74.2507L221.462 74.5252L215.473 80.4657L215.829 64.8259Z" fill="#353535"/>
<path d="M215.473 82.4363C215.211 82.4363 214.947 82.3834 214.697 82.2745C213.966 81.9561 213.499 81.2227 213.517 80.4204L213.873 64.7809C213.889 64.074 214.28 63.4299 214.897 63.0932C215.515 62.7565 216.264 62.7787 216.86 63.1517L231.939 72.5766C232.673 73.0352 233.022 73.9242 232.797 74.7639C232.572 75.6037 231.827 76.1957 230.964 76.2208L222.286 76.473L216.846 81.8699C216.472 82.2404 215.976 82.4366 215.473 82.4366L215.473 82.4363ZM217.706 68.3187L217.54 75.6502L220.089 73.1213C220.441 72.7719 220.911 72.5698 221.405 72.5555L224.349 72.4699L217.706 68.3187Z" fill="#353535"/>
<path d="M226.141 84.8464C225.458 84.8464 224.795 84.4855 224.435 83.8436L219.758 75.4936C219.227 74.5458 219.56 73.3437 220.501 72.8088C221.442 72.2742 222.635 72.6092 223.166 73.5568L227.843 81.9068C228.374 82.8547 228.042 84.0568 227.101 84.5916C226.797 84.7642 226.466 84.8464 226.141 84.8464Z" fill="#353535"/>
</svg>
