<svg width="254" height="181" viewBox="0 0 254 181" fill="none" xmlns="http://www.w3.org/2000/svg">
<path d="M32.9592 146.983L24.7915 153.801L29.8406 164.355L38.1505 159.34C40.9873 163.079 45.6723 166.344 50.1576 168.126L48.3148 175.798L60.1817 178.775L63.318 169.84C68.1018 169.225 71.5596 168.495 75.2253 165.575L85.1268 168.643L90.1599 159.377L83.1103 155.109C83.9995 152.964 87.9052 147.783 85.9986 142.577L92.918 138.033L88.042 128.333L82.3598 129.916C80.4254 124.785 76.6783 121.688 72.1926 119.906L70.907 112.848L58.4782 110.949L56.7021 117.468C51.9183 118.083 47.1003 119.662 43.4347 122.582L34.0429 119.819L28.3582 128.959L34.8996 134.867C34.0104 137.011 32.6225 144.684 32.9586 146.982L32.9592 146.983ZM54.8931 133.644C70.7516 130.13 77.569 151.073 63.1161 156.334C47.3574 162.07 39.8849 136.97 54.8931 133.644Z" fill="#FEFEFE"/>
<path d="M60.183 180.999C60.0055 180.999 59.8261 180.978 59.6467 180.933L47.7798 177.956C47.2136 177.814 46.7261 177.452 46.4238 176.95C46.1214 176.449 46.0287 175.847 46.1657 175.276L47.5713 169.424C43.7733 167.637 40.2505 165.074 37.6692 162.224L30.9784 166.261C30.7148 166.421 30.421 166.523 30.1159 166.561C29.8108 166.6 29.501 166.574 29.2064 166.485C28.9118 166.397 28.6388 166.247 28.4049 166.046C28.1711 165.845 27.9814 165.598 27.8482 165.319L22.799 154.765C22.5851 154.318 22.526 153.812 22.6312 153.327C22.7363 152.842 22.9996 152.407 23.3793 152.09L30.7024 145.977C30.7311 143.142 31.5666 138.363 32.3515 135.554L26.8816 130.614C26.4944 130.265 26.2422 129.789 26.1695 129.27C26.0968 128.752 26.2083 128.225 26.4843 127.781L32.169 118.64C32.4246 118.229 32.8068 117.913 33.2573 117.741C33.7078 117.569 34.202 117.549 34.6646 117.685L42.9963 120.137C46.8767 117.378 51.3817 116.084 54.9513 115.481L56.3462 110.362C56.4895 109.837 56.8196 109.382 57.2738 109.085C57.7281 108.788 58.2749 108.67 58.8106 108.751L71.2397 110.65C71.6947 110.72 72.1168 110.93 72.4472 111.253C72.7775 111.575 72.9996 111.993 73.0825 112.448L74.1536 118.328C78.4725 120.3 81.6447 123.296 83.6151 127.26L87.452 126.191C87.9444 126.054 88.4689 126.093 88.9363 126.3C89.4036 126.508 89.785 126.872 90.0156 127.331L94.8916 137.03C95.1371 137.519 95.1948 138.081 95.0538 138.61C94.9128 139.138 94.5829 139.596 94.1273 139.896L88.549 143.559C89.3273 147.855 87.3171 151.857 86.0217 154.277L91.3002 157.473C91.7889 157.769 92.145 158.243 92.2941 158.797C92.4432 159.351 92.3738 159.941 92.1003 160.444L87.0673 169.71C86.8229 170.16 86.4314 170.511 85.9591 170.704C85.4868 170.897 84.9627 170.92 84.4756 170.769L75.6499 168.034C72.1633 170.516 68.7936 171.316 64.953 171.865L62.2675 179.516C62.1152 179.95 61.8331 180.325 61.4598 180.591C61.0866 180.857 60.6406 181 60.1833 181L60.183 180.999ZM50.9796 174.175L58.7664 176.128L61.233 169.101C61.3693 168.712 61.6102 168.37 61.9287 168.111C62.2473 167.852 62.6311 167.688 63.0372 167.635C67.9193 167.007 70.783 166.278 73.8523 163.832C74.1335 163.608 74.4647 163.456 74.8174 163.39C75.17 163.323 75.5335 163.344 75.8764 163.45L84.052 165.984L87.2031 160.183L81.9701 157.015C81.5158 156.74 81.1749 156.309 81.0096 155.803C80.8443 155.296 80.8655 154.746 81.0695 154.254C81.2831 153.739 81.591 153.166 81.948 152.503C83.2108 150.156 85.1193 146.61 83.9237 143.346C83.7508 142.873 83.7423 142.356 83.8997 141.878C84.057 141.401 84.3708 140.991 84.7898 140.715L90.0519 137.26L86.8866 130.963L82.9509 132.06C82.4196 132.208 81.8525 132.151 81.3608 131.901C80.8691 131.65 80.4882 131.224 80.2928 130.705C78.7444 126.598 75.8293 123.742 71.3809 121.975C71.0318 121.836 70.7235 121.61 70.4851 121.318C70.2468 121.026 70.0862 120.679 70.0186 120.307L69.0169 114.809L60.0914 113.445L58.8352 118.056C58.7199 118.479 58.4825 118.859 58.1529 119.147C57.8233 119.435 57.4163 119.618 56.9833 119.674C53.5362 120.117 48.6257 121.285 44.8084 124.326C44.5313 124.547 44.2057 124.697 43.8588 124.765C43.5119 124.833 43.1539 124.817 42.8147 124.717L35.0304 122.427L31.2191 128.555L36.3779 133.213C36.7189 133.521 36.9564 133.928 37.0573 134.378C37.1583 134.828 37.1178 135.298 36.9414 135.724C36.1641 137.598 34.8883 144.891 35.147 146.66C35.2021 147.037 35.1598 147.423 35.024 147.779C34.8882 148.135 34.6635 148.451 34.3715 148.694L27.5333 154.403L30.7823 161.194L37.0131 157.434C37.4795 157.153 38.0326 157.054 38.5668 157.157C39.101 157.26 39.5787 157.557 39.9087 157.992C42.3687 161.234 46.6076 164.325 50.9707 166.059C51.4667 166.256 51.8751 166.626 52.1207 167.102C52.3664 167.578 52.4327 168.127 52.3075 168.649L50.9796 174.175ZM58.5333 159.415C55.2397 159.415 52.1925 158.218 49.6536 155.871C45.4847 152.017 43.575 145.586 45.0096 140.233C46.2362 135.657 49.5771 132.546 54.4175 131.473C63.8752 129.376 70.7694 135.031 72.6908 141.699C74.3886 147.59 72.3519 155.337 63.8686 158.425C62.0482 159.087 60.2566 159.415 58.5333 159.415ZM58.3567 135.475C57.416 135.475 56.4201 135.583 55.3689 135.816C51.3305 136.711 49.8285 139.341 49.2792 141.39C48.2719 145.149 49.688 149.862 52.6461 152.597C54.4813 154.294 57.657 155.956 62.3635 154.243C68.6016 151.973 69.5372 146.733 68.4433 142.936C67.3296 139.071 63.7865 135.475 58.3567 135.475Z" fill="#231F20"/>
<path d="M59.4397 19.5298C63.7972 15.1442 224.204 13.3373 227.622 17.8096C231.041 22.2822 231.724 140.287 227.622 145.104C223.52 149.921 61.8324 150.608 59.4397 145.104C57.047 139.599 55.3378 23.6584 59.4397 19.5298Z" fill="#FEFEFE"/>
<path d="M138.965 151.201C107.856 151.201 75.5404 150.464 63.6157 148.673C59.5375 148.061 58.0309 147.41 57.4159 145.995C55.6092 141.839 54.9115 98.2584 54.795 81.8166C54.6808 65.6188 54.8121 50.7841 55.1649 40.045C55.8228 20.0259 57.0107 18.8307 57.8776 17.9579C58.6911 17.1388 59.8054 16.0173 80.5117 14.8838C92.2925 14.2387 108.117 13.7194 126.274 13.3818C157.721 12.7974 198.133 12.7752 217.526 14.0431C227.324 14.6837 228.578 15.4136 229.373 16.4541C229.99 17.2614 231.023 18.6125 231.848 38.8174C232.322 50.415 232.607 65.5101 232.652 81.3215C232.697 97.4949 232.48 112.616 232.041 123.898C231.249 144.262 230.028 145.695 229.299 146.551C228.431 147.57 227.351 148.838 204.302 149.941C191.302 150.563 173.552 150.989 154.324 151.141C149.305 151.18 144.151 151.201 138.965 151.201L138.965 151.201ZM61.3445 143.691C62.7898 144.143 68.2815 145.218 88.6665 145.977C103.421 146.526 122.947 146.801 143.64 146.749C190.036 146.635 221.33 145.028 225.953 143.492C227.184 139.679 228.334 117.649 228.233 81.337C228.138 47.1989 226.997 23.7182 225.895 19.431C221.077 18.1193 191.435 17.0518 143.476 17.5759C95.3179 18.1018 65.6559 19.8042 61.0725 21.1995C59.9556 24.8619 58.9325 45.1649 59.2207 82.7669C59.4646 114.66 60.4858 139.095 61.3445 143.691Z" fill="#231F20"/>
<path d="M57.5222 38.273C56.9617 38.2709 56.423 38.0544 56.0151 37.6675C55.6072 37.2806 55.3607 36.7522 55.3254 36.1892C55.2901 35.6262 55.4687 35.0707 55.825 34.6353C56.1813 34.1999 56.6887 33.917 57.2445 33.8439C70.6344 32.1199 111.258 30.2943 228.762 31.384L229.419 31.3904C230.005 31.393 230.565 31.6298 230.978 32.0486C231.39 32.4675 231.621 33.034 231.618 33.6237C231.615 34.2133 231.38 34.7778 230.964 35.1928C230.548 35.6079 229.985 35.8396 229.399 35.8369H229.378L228.722 35.8309C111.467 34.7425 71.0583 36.5484 57.8056 38.2549C57.7118 38.2672 57.6172 38.2733 57.5226 38.2733L57.5222 38.273Z" fill="#231F20"/>
<path d="M78.9265 28.9521C80.5574 28.9521 81.8794 27.6215 81.8794 25.9802C81.8794 24.3389 80.5574 23.0083 78.9265 23.0083C77.2957 23.0083 75.9737 24.3389 75.9737 25.9802C75.9737 27.6215 77.2957 28.9521 78.9265 28.9521Z" fill="#231F20"/>
<path d="M88.2736 28.3886C89.9044 28.3886 91.2265 27.0581 91.2265 25.4167C91.2265 23.7754 89.9044 22.4448 88.2736 22.4448C86.6428 22.4448 85.3208 23.7754 85.3208 25.4167C85.3208 27.0581 86.6428 28.3886 88.2736 28.3886Z" fill="#231F20"/>
<path d="M69.5795 29.5152C71.2103 29.5152 72.5323 28.1846 72.5323 26.5433C72.5323 24.902 71.2103 23.5714 69.5795 23.5714C67.9487 23.5714 66.6266 24.902 66.6266 26.5433C66.6266 28.1846 67.9487 29.5152 69.5795 29.5152Z" fill="#231F20"/>
<path d="M78.1957 149.814C77.6216 149.814 77.0703 149.589 76.6584 149.186C76.2464 148.784 76.0063 148.236 75.9888 147.658C74.8338 109.441 73.729 66.1349 74.2914 34.7012C74.3018 34.1187 74.5389 33.5636 74.9518 33.1553C75.3647 32.747 75.9203 32.5181 76.4991 32.5179H76.5398C77.1256 32.5286 77.6832 32.773 78.0899 33.1974C78.4967 33.6217 78.7193 34.1913 78.7088 34.7809C78.148 66.1193 79.2516 109.359 80.405 147.523C80.414 147.82 80.3634 148.117 80.2564 148.394C80.1494 148.672 79.9881 148.925 79.782 149.139C79.576 149.352 79.3294 149.522 79.0569 149.638C78.7844 149.754 78.4915 149.814 78.1957 149.813V149.814Z" fill="#231F20"/>
<path d="M66.7267 54.0053C68.3575 54.0053 69.6795 52.6747 69.6795 51.0334C69.6795 49.3921 68.3575 48.0615 66.7267 48.0615C65.0958 48.0615 63.7738 49.3921 63.7738 51.0334C63.7738 52.6747 65.0958 54.0053 66.7267 54.0053Z" fill="#231F20"/>
<path d="M66.7267 83.0051C68.3575 83.0051 69.6795 81.6746 69.6795 80.0332C69.6795 78.3919 68.3575 77.0614 66.7267 77.0614C65.0958 77.0614 63.7738 78.3919 63.7738 80.0332C63.7738 81.6746 65.0958 83.0051 66.7267 83.0051Z" fill="#231F20"/>
<path d="M141.901 53.3494C141.315 53.35 140.753 53.1163 140.338 52.6998C139.923 52.2833 139.69 51.718 139.69 51.1284C139.689 50.5387 139.921 49.973 140.335 49.5556C140.749 49.1382 141.311 48.9034 141.896 48.9029C149.587 48.8876 157.397 48.8689 164.632 48.8514C180.912 48.8123 193.771 48.7809 196.671 48.8104C197.257 48.8165 197.817 49.0564 198.227 49.4775C198.637 49.8986 198.864 50.4663 198.858 51.0559C198.852 51.6416 198.617 52.2012 198.204 52.6133C197.79 53.0254 197.232 53.2567 196.65 53.257H196.627C193.755 53.2284 180.264 53.2605 164.643 53.2983C157.407 53.3158 149.596 53.3345 141.905 53.3497H141.901L141.901 53.3494ZM116.679 53.3799C103.114 53.3799 96.0289 53.3383 94.641 53.2525C94.0562 53.2164 93.5096 52.948 93.1214 52.5063C92.7332 52.0645 92.5353 51.4857 92.5711 50.8971C92.6462 49.6718 93.6977 48.7399 94.9115 48.8142C97.3701 48.9661 121.495 48.9343 129.424 48.9238H129.427C130.013 48.9234 130.575 49.1573 130.989 49.574C131.404 49.9907 131.637 50.556 131.637 51.1457C131.638 51.7353 131.405 52.301 130.991 52.7182C130.577 53.1354 130.016 53.37 129.43 53.3704C124.674 53.3767 120.428 53.3799 116.679 53.3799ZM128.9 82.0082C114.193 82.0082 100.096 81.7515 94.5735 81.2389C94.2846 81.2121 94.0038 81.1283 93.7471 80.9923C93.4904 80.8563 93.2628 80.6707 93.0774 80.4462C92.892 80.2216 92.7523 79.9625 92.6663 79.6837C92.5804 79.4048 92.5499 79.1117 92.5765 78.8209C92.6885 77.5984 93.7609 76.6955 94.979 76.8114C105.873 77.8224 150.645 77.8192 166.48 76.8063C166.77 76.7874 167.06 76.8263 167.335 76.9205C167.61 77.0148 167.863 77.1627 168.081 77.3557C168.299 77.5487 168.477 77.783 168.604 78.0453C168.732 78.3076 168.807 78.5926 168.825 78.8841C168.844 79.1755 168.805 79.4677 168.711 79.744C168.617 80.0203 168.47 80.2753 168.279 80.4944C168.087 80.7135 167.854 80.8925 167.594 81.0211C167.333 81.1497 167.05 81.2255 166.761 81.244C158.796 81.7534 143.546 82.0082 128.9 82.0082ZM167.465 109.761C167.175 109.762 166.887 109.706 166.619 109.595C166.35 109.484 166.106 109.321 165.901 109.115C165.485 108.7 165.25 108.135 165.248 107.545C165.246 106.956 165.477 106.389 165.89 105.971C166.303 105.553 166.864 105.316 167.45 105.314C174.423 105.267 191.276 105.121 197.15 104.796C198.361 104.731 199.41 105.669 199.477 106.895C199.493 107.186 199.451 107.478 199.355 107.753C199.259 108.029 199.11 108.283 198.916 108.5C198.723 108.717 198.489 108.894 198.227 109.021C197.965 109.147 197.682 109.22 197.392 109.236C191.422 109.566 174.485 109.713 167.48 109.761H167.465ZM151.911 109.815C131.425 109.813 114.476 109.591 107.68 109.237C107.095 109.206 106.546 108.943 106.154 108.505C105.761 108.067 105.558 107.49 105.588 106.902C105.603 106.61 105.675 106.324 105.8 106.061C105.924 105.797 106.1 105.56 106.315 105.365C106.531 105.169 106.782 105.019 107.056 104.921C107.329 104.824 107.619 104.781 107.909 104.796C114.634 105.147 131.496 105.367 151.912 105.369C152.498 105.369 153.06 105.603 153.474 106.02C153.888 106.437 154.121 107.003 154.121 107.592C154.121 108.182 153.888 108.747 153.474 109.164C153.06 109.581 152.498 109.815 151.912 109.815L151.911 109.815ZM154.386 137.595C147.989 137.595 140.218 137.483 132.581 137.373C122.523 137.228 113.022 137.092 107.853 137.231C106.624 137.253 105.619 136.295 105.586 135.067C105.578 134.776 105.627 134.485 105.731 134.212C105.835 133.94 105.991 133.69 106.191 133.478C106.39 133.267 106.629 133.096 106.894 132.977C107.159 132.858 107.445 132.793 107.735 132.785C112.995 132.643 122.539 132.781 132.644 132.927C146.536 133.126 162.281 133.353 166.904 132.8C167.481 132.739 168.06 132.909 168.514 133.274C168.968 133.639 169.261 134.169 169.33 134.749C169.398 135.33 169.237 135.914 168.88 136.376C168.524 136.838 168.001 137.139 167.425 137.216C165.062 137.499 160.314 137.595 154.386 137.595L154.386 137.595Z" fill="#231F20"/>
<path d="M8.34628 93.6421L2.71261 97.3896L5.17531 104.429L10.7742 101.834C12.309 104.402 15.0451 106.798 17.7571 108.241L16.0624 112.972L23.3579 115.689L25.9575 110.248C29.0238 110.193 31.2599 109.973 33.7786 108.379L39.8253 111.016L43.6467 105.499L39.4856 102.301C40.1957 101.005 43.0222 97.9961 42.1771 94.5643L46.8648 92.17L44.4527 85.6839L40.7517 86.2891C39.8832 82.9032 37.7286 80.6787 35.0165 79.2357L34.6913 74.6739L26.9663 72.6011L25.3933 76.6066C22.327 76.6617 19.1724 77.3243 16.6538 78.9177L10.9082 76.5098L6.68352 81.9026L10.4101 86.1031C9.69994 87.3996 8.29255 92.1627 8.34628 93.6427V93.6421ZM23.3522 87.7207C32.282 86.7501 34.7719 98.7052 26.5099 100.724C17.5014 102.925 14.9009 88.6395 23.3522 87.7207Z" fill="#231F20"/>
<path d="M23.3573 117.919C23.1022 117.919 22.8434 117.874 22.5912 117.78L15.2957 115.064C14.748 114.86 14.3025 114.446 14.0563 113.913C13.8102 113.379 13.7833 112.769 13.9815 112.215L15.0542 109.221C13.1146 107.946 11.3586 106.346 10.0204 104.638L6.09977 106.455C5.82026 106.585 5.51701 106.654 5.20938 106.659C4.90175 106.664 4.59651 106.604 4.31317 106.483C4.02982 106.362 3.77461 106.183 3.56383 105.957C3.35305 105.731 3.19134 105.464 3.08903 105.171L0.626017 98.1312C0.461766 97.662 0.457976 97.1508 0.615251 96.6792C0.772526 96.2076 1.08182 95.8025 1.4939 95.5286L6.24136 92.3704C6.50653 90.6174 7.21133 88.1951 7.82606 86.5354L5.03435 83.3887C4.68719 82.9974 4.48811 82.4952 4.47215 81.9706C4.4562 81.4459 4.62439 80.9324 4.94711 80.5204L9.17182 75.1272C9.47062 74.7456 9.88502 74.4728 10.3519 74.3506C10.8187 74.2283 11.3124 74.2632 11.7578 74.45L16.5014 76.4384C18.9822 75.1387 21.6595 74.622 23.8614 74.4484L24.9091 71.7798C25.1086 71.2716 25.4862 70.855 25.9704 70.609C26.4546 70.3631 27.0116 70.305 27.5355 70.4457L35.2609 72.5189C35.7058 72.6384 36.1028 72.8948 36.3963 73.2524C36.6898 73.61 36.8653 74.0511 36.8983 74.514L37.1395 77.8971C39.5033 79.3981 41.2109 81.3709 42.2384 83.7869L44.0984 83.4827C44.6031 83.3997 45.1207 83.4957 45.5631 83.7543C46.0055 84.0129 46.3452 84.4181 46.5244 84.9009L48.9365 91.387C49.1277 91.9009 49.1241 92.4679 48.9264 92.9793C48.7287 93.4907 48.3508 93.9106 47.8651 94.1588L44.5475 95.8532C44.55 98.2723 43.4204 100.347 42.4777 101.796L44.9884 103.725C45.4422 104.074 45.7448 104.586 45.8329 105.154C45.921 105.723 45.7878 106.303 45.4612 106.775L41.6398 112.292C41.3478 112.714 40.9203 113.021 40.4297 113.161C39.9391 113.301 39.4154 113.267 38.9473 113.063L33.9138 110.867C31.6875 112.026 29.5801 112.337 27.3674 112.437L25.3516 116.656C25.1709 117.034 24.8879 117.353 24.5352 117.576C24.1825 117.8 23.7745 117.918 23.3579 117.918L23.3573 117.919ZM18.8889 111.648L22.2375 112.894L23.9641 109.281C24.1419 108.909 24.4187 108.594 24.7637 108.371C25.1087 108.148 25.5083 108.026 25.918 108.019C28.9565 107.964 30.6427 107.731 32.6022 106.491C32.9063 106.298 33.2522 106.183 33.6102 106.156C33.9681 106.128 34.3274 106.189 34.6569 106.333L39.0453 108.247L40.618 105.976L38.1439 104.074C37.722 103.75 37.4298 103.284 37.3205 102.761C37.2112 102.237 37.2921 101.692 37.5485 101.224C37.7387 100.876 37.9837 100.519 38.2675 100.106C39.1976 98.752 40.4717 96.8971 40.0295 95.1014C39.9089 94.6116 39.9567 94.0951 40.165 93.6362C40.3734 93.1773 40.7299 92.8032 41.1765 92.5749L44.0974 91.0828L43.0168 88.1769L41.1053 88.4894C40.561 88.5782 40.0034 88.459 39.5417 88.1551C39.08 87.8513 38.7474 87.3846 38.6091 86.8466C37.9739 84.3702 36.4609 82.5254 33.9831 81.2069C33.6508 81.0302 33.3687 80.7711 33.1634 80.4541C32.958 80.1371 32.8361 79.7726 32.8092 79.3949L32.5972 76.4193L28.2985 75.2655L27.4499 77.4266C27.2891 77.836 27.0117 78.1883 26.6526 78.4391C26.2934 78.6898 25.8687 78.8278 25.4319 78.8355C23.3247 78.8731 20.2954 79.2455 17.8295 80.8058C17.5299 80.9952 17.1897 81.1095 16.8373 81.1392C16.4848 81.1688 16.1305 81.1129 15.8039 80.9762L11.6054 79.2165L9.57163 81.8128L12.0587 84.6161C12.3645 84.9606 12.5564 85.3925 12.6079 85.8519C12.6595 86.3113 12.568 86.7755 12.3463 87.1801C11.7363 88.2941 10.5321 92.588 10.5568 93.5611C10.5764 94.3301 10.2015 95.0791 9.56436 95.5028L5.37316 98.2911L6.45438 101.382L9.84912 99.8084C10.3435 99.579 10.9044 99.5414 11.4246 99.7028C11.9447 99.8642 12.3876 100.213 12.6683 100.683C13.9281 102.79 16.2736 104.93 18.789 106.269C19.261 106.52 19.6269 106.934 19.8195 107.436C20.0121 107.937 20.0184 108.492 19.8371 108.998L18.888 111.647L18.8889 111.648ZM24.6961 103.18C22.2426 103.18 20.021 102.186 18.3911 100.305C16.0618 97.617 15.3425 93.6312 16.6013 90.3861C17.6756 87.6166 20.0498 85.8371 23.1149 85.5036C29.045 84.8566 32.8927 88.8226 33.6278 93.0712C34.2839 96.864 32.4995 101.555 27.0311 102.891C26.2378 103.085 25.4556 103.18 24.6961 103.18ZM23.5896 89.9379C22.1601 90.093 21.1952 90.7907 20.722 92.0101C20.0691 93.6934 20.4904 95.9481 21.7236 97.3711C22.7808 98.5912 24.216 98.99 25.9888 98.5571C28.8867 97.8489 29.5833 95.6547 29.2688 93.8373C28.887 91.6304 26.9834 89.5668 23.5893 89.9382L23.5896 89.9379Z" fill="#231F20"/>
<path d="M187.605 8.58147C192.125 2.5054 240.506 4.35576 244.226 11.5069C247.945 18.658 252.135 35.7902 249.903 39.1776C247.671 42.5649 190.323 46.4985 186.804 43.1111C183.284 39.7241 183.685 13.8505 187.605 8.58147Z" fill="#60CDFF"/>
<path d="M209.965 45.3297C194.027 45.3297 192.431 43.7917 191.653 43.0424C188.61 40.1132 188.212 29.4711 188.182 25.0315C188.159 21.5821 188.324 10.0041 191.413 5.85251C192.085 4.94857 194.131 2.1987 208.014 0.725706C215.844 -0.105051 225.065 -0.230521 232.68 0.390488C247.619 1.60906 249.398 5.02936 249.983 6.1532C253.975 13.8287 254.586 36.0671 251.726 40.4072C250.973 41.551 249.468 42.6714 239.469 43.8003C231.555 44.6941 220.747 45.2783 211.262 45.3255C210.829 45.3278 210.397 45.3289 209.965 45.329L209.965 45.3297ZM194.615 39.7583C196.454 40.654 206.384 41.2636 221.529 40.6477C237.21 40.0096 246.336 38.5889 248.198 37.7166C249.642 34.3885 249.511 14.7706 246.104 8.21963C245.758 7.55617 242.611 5.651 232.328 4.81232C224.966 4.21191 216.048 4.33294 208.471 5.1374C198.991 6.14306 195.458 7.79 194.915 8.52032C193.751 10.0849 192.519 15.8666 192.565 24.863C192.609 33.3828 193.791 38.6899 194.615 39.7583Z" fill="#231F20"/>
<path d="M210.274 31.7578C210.063 31.7578 209.848 31.7264 209.635 31.6611C205.968 30.5329 201.239 25.2914 200.712 24.6976C200.334 24.272 200.133 23.7152 200.152 23.1434C200.17 22.5716 200.406 22.0292 200.811 21.6293C201.041 21.4009 206.492 16.012 208.83 13.9427C209.046 13.7491 209.298 13.6007 209.571 13.5059C209.844 13.4112 210.133 13.372 210.422 13.3907C210.71 13.4093 210.992 13.4854 211.251 13.6146C211.51 13.7438 211.741 13.9235 211.931 14.1434C212.121 14.3633 212.267 14.6191 212.359 14.896C212.451 15.173 212.488 15.4656 212.468 15.7572C212.449 16.0487 212.372 16.3334 212.243 16.5948C212.114 16.8563 211.935 17.0894 211.717 17.2807C210.219 18.6073 207.257 21.4836 205.433 23.2696C207.187 25.0144 209.476 26.975 210.911 27.4167C211.414 27.571 211.846 27.9032 212.127 28.3526C212.408 28.802 212.521 29.3388 212.443 29.865C212.366 30.3912 212.105 30.8718 211.706 31.2191C211.308 31.5664 210.8 31.7574 210.274 31.7571L210.274 31.7578ZM231.384 31.7571C230.938 31.7574 230.502 31.6199 230.136 31.3631C229.769 31.1062 229.488 30.7423 229.331 30.3199C229.174 29.8974 229.148 29.4365 229.257 28.9988C229.366 28.5611 229.604 28.1673 229.94 27.8701C231.438 26.5432 234.399 23.6672 236.223 21.8812C234.47 20.1363 232.181 18.1757 230.745 17.7341C230.193 17.5595 229.732 17.1712 229.461 16.6538C229.191 16.1364 229.134 15.5318 229.302 14.9718C229.47 14.4119 229.85 13.9419 230.36 13.6644C230.869 13.3869 231.466 13.3243 232.021 13.4903C235.687 14.6186 240.417 19.8601 240.944 20.4538C241.322 20.8794 241.523 21.4363 241.504 22.008C241.486 22.5798 241.25 23.1223 240.845 23.5221C240.615 23.7506 235.164 29.1394 232.827 31.2087C232.428 31.563 231.915 31.7577 231.384 31.7571ZM216.833 36.0411C216.481 36.0411 216.135 35.9554 215.822 35.7911C215.51 35.6268 215.241 35.3889 215.039 35.0974C214.837 34.806 214.707 34.4695 214.661 34.1165C214.614 33.7635 214.652 33.4044 214.772 33.0695L222.733 10.7534C222.831 10.4794 222.981 10.2276 223.175 10.0124C223.369 9.79709 223.603 9.62259 223.863 9.49881C224.124 9.37503 224.406 9.3044 224.694 9.29095C224.981 9.27751 225.269 9.32152 225.539 9.42046C226.086 9.62021 226.532 10.0316 226.779 10.564C227.026 11.0965 227.054 11.7064 226.857 12.2597L218.895 34.5758C218.742 35.0049 218.462 35.3758 218.093 35.6381C217.724 35.9003 217.284 36.041 216.833 36.0411Z" fill="#231F20"/>
</svg>
