<svg width="376" height="184" viewBox="0 0 376 184" fill="none" xmlns="http://www.w3.org/2000/svg">
<path d="M100.725 166.297C88.1454 171.191 72.7484 184.781 84.0469 207.262C84.0469 207.262 66.0526 198.352 72.9136 180.17C80.6231 159.739 100.725 166.297 100.725 166.297Z" fill="#353535"/>
<path d="M84.0462 209.854C83.6453 209.854 83.2499 209.761 82.891 209.583C82.6864 209.482 77.8372 207.047 73.8846 202.161C70.137 197.53 66.5045 189.796 70.4812 179.257C74.9064 167.53 83.1669 163.949 89.3172 163.01C95.8441 162.014 101.304 163.759 101.533 163.834C102.042 164 102.488 164.319 102.808 164.747C103.129 165.175 103.309 165.691 103.323 166.225C103.338 166.759 103.187 167.284 102.891 167.73C102.595 168.175 102.169 168.518 101.669 168.712C93.2846 171.974 86.724 177.953 84.1193 184.706C81.6698 191.057 82.4269 198.256 86.3702 206.101C86.5688 206.497 86.6628 206.936 86.6432 207.378C86.6236 207.819 86.491 208.248 86.2581 208.625C86.0251 209.001 85.6996 209.311 85.3124 209.526C84.9251 209.742 84.4891 209.855 84.0458 209.854L84.0462 209.854ZM91.9416 167.915C86.3234 168.3 79.1586 170.979 75.3464 181.083C72.2037 189.411 74.9766 195.521 78.3759 199.474C76.9702 193.604 77.265 188.038 79.2678 182.845C81.9861 175.797 87.2064 171.005 91.9416 167.915Z" fill="#353535"/>
<path d="M48.1946 187.101L31.5994 198.021L38.8536 218.536L52.3239 219.377C56.8453 226.858 59.971 228.684 67.9604 232.889L70.9238 243.43L92.4143 251.347L103.072 241.204C112.105 241.044 115.148 240.997 122.568 236.354L137.519 242.593L152.179 221.653L139.921 212.335C142.013 208.557 150.339 199.789 147.849 189.788L161.658 182.811L143.651 165.673C141.093 155.806 134.746 149.324 126.756 145.118L125.799 131.825L103.043 125.785L98.4098 137.457C89.377 137.617 80.0851 139.548 72.666 144.192L43.2967 152.89L54.2744 165.13C52.1824 168.908 48.0372 182.788 48.1954 187.101L48.1946 187.101ZM91.551 175.12C121.794 171.868 130.425 203.753 102.443 210.516C71.9341 217.89 62.9292 178.198 91.551 175.12Z" fill="#60CDFF"/>
<path d="M92.4136 253.939C92.1063 253.939 91.8016 253.884 91.5135 253.778L70.0234 245.861C69.3799 245.624 68.8566 245.143 68.5673 244.523C68.2781 243.903 68.2466 243.194 68.4795 242.55L72.7206 230.838C65.4396 226.61 58.6963 220.513 54.3865 214.266L39.9397 220.89C39.6113 221.041 39.255 221.122 38.8935 221.127C38.5321 221.133 38.1734 221.063 37.8405 220.922C37.5076 220.782 37.2078 220.574 36.9602 220.311C36.7126 220.048 36.5227 219.737 36.4026 219.397L29.148 198.883C28.9551 198.338 28.9506 197.744 29.1354 197.196C29.3202 196.648 29.6835 196.177 30.1677 195.858L45.6504 185.67C46.1042 180.495 49.0787 170.447 51.1844 165.574L41.3585 154.618C40.9506 154.163 40.7167 153.579 40.698 152.969C40.6793 152.36 40.8768 151.763 41.256 151.284L53.7004 135.569C54.0515 135.125 54.5383 134.808 55.0867 134.666C55.6352 134.524 56.2152 134.564 56.7384 134.781L72.4495 141.296C80.528 136.631 89.713 135.212 96.6216 134.918L100.626 124.831C100.86 124.24 101.304 123.756 101.873 123.471C102.442 123.185 103.096 123.117 103.711 123.28L126.467 129.321C126.99 129.46 127.456 129.758 127.801 130.173C128.146 130.589 128.352 131.102 128.391 131.64L129.247 143.525C137.34 148.121 142.795 154.576 145.497 162.749L154.136 161.352C154.729 161.256 155.337 161.367 155.857 161.668C156.376 161.968 156.775 162.439 156.986 163L164.091 181.902C164.316 182.499 164.312 183.158 164.079 183.752C163.847 184.346 163.403 184.835 162.832 185.123L150.761 191.222C151.848 199.564 146.886 206.71 143.829 211.113C143.683 211.323 143.541 211.528 143.405 211.725L153.754 219.592C154.287 219.998 154.643 220.593 154.746 221.253C154.85 221.913 154.693 222.588 154.31 223.136L143.053 239.215C142.71 239.705 142.208 240.061 141.631 240.225C141.055 240.388 140.44 240.347 139.89 240.11L123.306 232.956C116.041 237.159 109.383 237.856 101.721 238.05L94.7558 252.471C94.5435 252.911 94.2111 253.282 93.7967 253.541C93.3824 253.801 92.9029 253.939 92.4136 253.939ZM74.2444 241.891L91.0976 248.099L97.7292 234.368C97.938 233.936 98.2632 233.569 98.6685 233.31C99.0738 233.051 99.5433 232.91 100.025 232.901C109.533 232.732 115.206 231.934 121.728 227.852C122.085 227.628 122.491 227.495 122.912 227.463C123.332 227.431 123.754 227.501 124.141 227.668L140.005 234.512L148.62 222.207L138.345 214.396C137.849 214.019 137.506 213.477 137.377 212.869C137.249 212.26 137.344 211.626 137.645 211.082C138.11 210.243 138.779 209.279 139.554 208.162C142.541 203.86 147.055 197.359 145.326 190.412C145.184 189.843 145.24 189.243 145.485 188.709C145.73 188.176 146.149 187.741 146.673 187.476L158.406 181.548L152.865 166.808L144.066 168.231C143.426 168.335 142.771 168.196 142.228 167.843C141.686 167.49 141.295 166.947 141.133 166.322C139.001 158.096 133.755 151.733 125.542 147.41C125.152 147.205 124.821 146.904 124.579 146.535C124.338 146.167 124.195 145.743 124.163 145.304L123.338 133.854L104.608 128.882L100.826 138.41C100.637 138.886 100.311 139.296 99.8889 139.587C99.467 139.878 98.9682 140.039 98.4551 140.048C91.75 140.167 82.0727 141.363 74.0469 146.387C73.695 146.607 73.2952 146.74 72.8812 146.774C72.4671 146.809 72.0508 146.744 71.6672 146.585L56.5598 140.321L46.6893 152.786L56.2108 163.403C56.57 163.803 56.7955 164.305 56.8561 164.839C56.9166 165.373 56.8092 165.912 56.5486 166.383C54.5514 169.99 50.6571 183.34 50.7915 187.006C50.8078 187.451 50.7091 187.892 50.505 188.287C50.3009 188.682 49.9982 189.019 49.626 189.264L34.7254 199.069L40.3567 214.994L54.2603 208.619C54.8412 208.352 55.5001 208.309 56.1111 208.496C56.7221 208.684 57.2424 209.09 57.5723 209.636C61.63 216.349 69.1237 223.137 77.1291 227.351C77.6834 227.643 78.1132 228.124 78.3395 228.707C78.5658 229.29 78.5732 229.935 78.3603 230.522L74.2444 241.89V241.891ZM96.2087 213.883C89.3232 213.883 83.2334 211.155 78.6321 205.903C72.0166 198.351 69.8823 186.736 73.442 177.658C76.437 170.02 82.8394 165.302 91.4701 164.374C99.4402 163.518 106.618 165.389 112.231 169.787C117.247 173.716 120.62 179.373 121.729 185.714C122.757 191.591 121.693 197.473 118.735 202.275C115.435 207.632 110.013 211.353 103.056 213.034C100.707 213.602 98.4169 213.883 96.2091 213.883L96.2087 213.883ZM92.027 169.527C83.5568 170.438 79.8779 175.478 78.2831 179.545C75.3995 186.899 77.1528 196.336 82.5468 202.493C87.2858 207.903 94.1346 209.857 101.831 207.997C114.104 205.031 118.096 195.115 116.608 186.605C114.977 177.282 106.592 167.961 92.027 169.527Z" fill="#353535"/>
<path d="M94.9915 29.7193C91.5345 38.9103 86.8453 55.7683 100.083 67.7705C101.5 69.0552 107.527 73.8764 108.426 74.8715C108.426 74.8715 102.921 74.9909 97.9683 76.7086C73.9822 85.0276 75.3955 119.01 75.7224 130.799C76.0492 142.587 149.928 137.914 157.338 134.814C167.204 130.686 171.481 99.9468 167.077 87.5481C163.227 76.7086 138.14 68.7814 138.14 68.7814L138.06 59.9177C138.06 59.9177 145.482 56.7221 147.172 49.3311C148.861 41.9397 158.771 17.4666 131.001 4.553C113.217 -3.71698 95.8646 10.7916 88.5796 23.7339C87.0225 26.5002 94.9912 29.7197 94.9912 29.7197L94.9915 29.7193Z" fill="#FEFEFE"/>
<path d="M146.939 48.0784C146.472 48.0781 146.015 47.9527 145.614 47.7156C145.213 47.4785 144.884 47.1384 144.662 46.731C144.439 46.3236 144.331 45.864 144.348 45.4007C144.366 44.9373 144.509 44.4872 144.762 44.0978C152.776 31.7655 145.929 16.5279 134.991 9.48256C123.411 2.02483 105.709 2.22089 90.7559 25.1377C90.3814 25.7117 89.793 26.1142 89.1201 26.2567C88.4472 26.3992 87.7449 26.27 87.1677 25.8976C86.5906 25.5252 86.1858 24.9399 86.0425 24.2707C85.8992 23.6015 86.0291 22.903 86.4036 22.329C103.456 -3.80396 124.754 -3.25742 137.811 5.15224C144.569 9.50467 149.773 16.2681 152.09 23.7077C154.618 31.8248 153.563 40.0609 149.119 46.8987C148.884 47.2611 148.561 47.559 148.18 47.7651C147.799 47.9712 147.372 48.079 146.939 48.0784Z" fill="#353535"/>
<path d="M104.588 34.5125C104.226 34.513 103.868 34.4381 103.537 34.2927C103.206 34.1472 102.909 33.9345 102.666 33.6682C102.422 33.4018 102.237 33.0878 102.123 32.7462C102.009 32.4046 101.968 32.043 102.003 31.6847C102.109 30.595 103.134 20.9216 106.419 16.9289C106.856 16.406 107.484 16.0763 108.165 16.0116C108.846 15.9468 109.525 16.1522 110.055 16.583C110.584 17.0138 110.921 17.6352 110.992 18.3119C111.063 18.9885 110.862 19.6657 110.434 20.196C108.704 22.2992 107.512 28.6642 107.167 32.1823C107.104 32.8197 106.806 33.4112 106.329 33.8418C105.853 34.2725 105.232 34.5115 104.588 34.5125Z" fill="#353535"/>
<path d="M113.462 74.755C109.384 74.755 105.433 73.8834 101.935 72.0503C96.0877 68.9867 83.4643 58.6562 92.5091 28.9712C92.7124 28.3209 93.1659 27.7769 93.7709 27.4578C94.3758 27.1388 95.0831 27.0706 95.7384 27.2681C96.3938 27.4656 96.944 27.9128 97.2691 28.5121C97.5942 29.1114 97.6679 29.8143 97.474 30.4675C91.8943 48.779 94.4016 62.2712 104.353 67.4852C113.928 72.5025 127.845 68.4692 136.036 58.3042C136.335 57.9329 136.732 57.6511 137.182 57.4898C142.263 55.6718 144.369 51.7133 144.645 48.6146C144.821 46.6367 144.24 44.9609 143.165 44.3462C141.862 43.601 139.623 44.2235 137.021 46.0529C136.653 46.3116 136.223 46.4704 135.775 46.5138C135.326 46.5571 134.874 46.4835 134.463 46.3002C133.604 45.9173 113.471 36.7422 117.086 20.8575C117.161 20.527 117.3 20.2145 117.497 19.9378C117.694 19.661 117.943 19.4256 118.231 19.2448C118.52 19.064 118.841 18.9415 119.176 18.8842C119.512 18.8269 119.856 18.836 120.188 18.9109C120.521 18.9856 120.835 19.1247 121.113 19.3202C121.391 19.5157 121.628 19.7638 121.81 20.0504C121.991 20.3369 122.115 20.6562 122.172 20.9901C122.23 21.3239 122.221 21.6658 122.146 21.9963C119.9 31.8683 131.468 38.9155 135.352 40.9745C140.54 37.8537 144.054 38.9026 145.751 39.8733C148.615 41.5114 150.171 45.035 149.812 49.0694C149.426 53.3986 146.521 59.3103 139.63 62.0814C132.838 70.1704 122.813 74.7543 113.461 74.7543L113.462 74.755Z" fill="#353535"/>
<path d="M102.742 49.33C104.21 49.33 105.4 48.1463 105.4 46.6861C105.4 45.2259 104.21 44.0422 102.742 44.0422C101.274 44.0422 100.084 45.2259 100.084 46.6861C100.084 48.1463 101.274 49.33 102.742 49.33Z" fill="#353535"/>
<path d="M117.053 49.5769C118.521 49.5769 119.711 48.3932 119.711 46.933C119.711 45.4728 118.521 44.2891 117.053 44.2891C115.585 44.2891 114.394 45.4728 114.394 46.933C114.394 48.3932 115.585 49.5769 117.053 49.5769Z" fill="#353535"/>
<path d="M116.427 90.1249C113.93 90.1249 111.687 89.6642 109.852 88.7395C106.616 87.1095 101.81 82.6119 105.979 70.8028C106.214 70.1665 106.691 69.6478 107.308 69.3588C107.924 69.0698 108.63 69.0336 109.274 69.2581C109.917 69.4827 110.445 69.9499 110.745 70.5588C111.044 71.1677 111.091 71.8693 110.874 72.5121C109.376 76.7565 108.389 82.219 112.196 84.1369C113.331 84.7088 114.768 84.9709 116.37 84.9712C122.63 84.9716 131.447 80.9767 134.979 75.8418C135.367 75.2772 135.965 74.8891 136.642 74.7631C137.318 74.637 138.017 74.7832 138.584 75.1696C138.866 75.3609 139.106 75.6054 139.292 75.8891C139.478 76.1729 139.607 76.4903 139.669 76.8232C139.732 77.1562 139.728 77.4982 139.658 77.8298C139.588 78.1613 139.453 78.4759 139.261 78.7555C136.574 82.6605 131.51 86.2445 125.715 88.3426C122.438 89.5289 119.268 90.1249 116.427 90.1249ZM75.7227 126.78C75.0359 126.78 74.377 126.509 73.8907 126.027C73.4045 125.544 73.1304 124.89 73.1288 124.206C73.0861 107.14 76.0288 94.087 81.8745 85.412C85.8226 79.553 91.1784 75.676 97.3628 74.1996C98.0295 74.0462 98.7301 74.161 99.3121 74.519C99.8941 74.877 100.31 75.4492 100.47 76.1109C100.63 76.7727 100.52 77.4704 100.165 78.0521C99.8095 78.6338 99.2375 79.0523 98.5734 79.2165C90.9709 81.0312 78.2296 89.2872 78.3167 124.193C78.3184 124.877 78.0467 125.534 77.5615 126.019C77.0763 126.504 76.4173 126.778 75.7294 126.779H75.7227V126.78Z" fill="#353535"/>
<path d="M147.27 72.1918C156.103 74.9385 164.111 80.6888 167.077 87.5481C170.043 94.4073 168.856 136.589 158.772 146.914C148.688 157.238 114.739 146.324 106.947 142.194C106.947 142.194 98.858 147.799 94.409 147.799C89.96 147.799 89.7035 157.55 86.4507 157.803C75.7224 158.639 79.1686 150.974 74.1263 153.334C69.084 155.694 75.2128 137.03 80.2559 132.9C85.2986 128.77 94.1685 125.085 102.742 124.2C111.315 123.315 133.834 125.491 138.58 127.261C138.58 127.261 137.12 116.236 139.493 108.271" fill="#FEFEFE"/>
<path d="M84.938 160.444C78.7236 160.444 76.7192 157.501 75.6008 155.859C75.5434 155.775 75.4774 155.679 75.4133 155.587C75.3592 155.61 75.2984 155.637 75.231 155.668C72.9034 156.758 71.1647 155.712 70.384 154.485C68.7498 151.918 70.2198 146.512 71.741 142.429C72.4825 140.438 75.1702 133.723 78.6069 130.908C84.2984 126.247 93.8898 122.52 102.474 121.634C109.953 120.862 127.229 122.298 135.673 123.897C135.421 119.802 135.359 113.064 137.005 107.538C137.204 106.886 137.654 106.338 138.257 106.014C138.861 105.691 139.568 105.618 140.225 105.812C140.882 106.005 141.436 106.45 141.764 107.048C142.093 107.646 142.17 108.349 141.98 109.004C139.795 116.335 141.138 126.82 141.152 126.924C141.21 127.366 141.152 127.815 140.984 128.228C140.816 128.64 140.543 129.003 140.192 129.28C139.842 129.556 139.425 129.738 138.983 129.808C138.541 129.877 138.088 129.832 137.669 129.676C133.612 128.163 111.599 125.879 103.01 126.766C95.3554 127.556 86.8742 130.821 81.9045 134.891C78.9882 137.279 75.4437 146.343 74.8849 150.384C77.7838 149.867 79.169 151.898 79.8953 152.965C80.7917 154.281 81.6388 155.526 85.9311 155.253C86.3454 154.735 86.9446 153.275 87.3163 152.368C88.554 149.351 90.249 145.218 94.4086 145.218C96.9074 145.218 102.378 142.211 105.465 140.076C105.857 139.804 106.316 139.646 106.793 139.618C107.27 139.59 107.745 139.693 108.167 139.917C114.184 143.105 131.703 148.652 144.49 148.653C149.873 148.653 154.415 147.671 156.912 145.115C160.771 141.164 163.883 130.165 165.236 115.692C166.516 101.994 165.728 90.9581 164.694 88.5667C162.189 82.7737 155.046 77.3127 146.496 74.6537C145.839 74.4494 145.291 73.9941 144.972 73.388C144.653 72.7818 144.589 72.0744 144.795 71.4214C145 70.7684 145.458 70.2232 146.067 69.9059C146.677 69.5886 147.388 69.525 148.045 69.7293C158.13 72.8655 166.336 79.3028 169.461 86.5283C171.443 91.1129 171.425 105.222 170.402 116.17C169.532 125.479 167.106 142.084 160.633 148.711C156.975 152.456 150.984 153.827 144.253 153.828C130.434 153.828 113.488 148.049 107.148 145.161C104.49 146.866 98.5171 150.377 94.4097 150.377C93.7368 150.377 92.6047 153.138 92.1211 154.317C91.0027 157.044 89.7354 160.134 86.6541 160.374C86.0836 160.42 85.5115 160.443 84.9391 160.444L84.938 160.444Z" fill="#353535"/>
<path d="M91.9592 129.251C91.3535 129.25 90.7671 129.039 90.3018 128.653C89.8365 128.268 89.5215 127.732 89.4115 127.14C87.4482 116.576 87.4534 104.306 89.4256 95.1178C89.4967 94.7865 89.6327 94.4723 89.8259 94.1933C90.0191 93.9143 90.2656 93.6758 90.5515 93.4915C90.8373 93.3072 91.1569 93.1807 91.4919 93.1192C91.8269 93.0578 92.1707 93.0625 92.5039 93.1332C92.8371 93.2039 93.1529 93.3392 93.4335 93.5313C93.7141 93.7235 93.9539 93.9687 94.1392 94.2529C94.3245 94.5372 94.4517 94.855 94.5135 95.1882C94.5753 95.5214 94.5705 95.8634 94.4994 96.1947C92.6607 104.763 92.6658 116.261 94.5135 126.202C94.5828 126.575 94.5688 126.958 94.4725 127.324C94.3761 127.691 94.1998 128.032 93.9561 128.323C93.7123 128.614 93.4071 128.848 93.0621 129.008C92.7171 129.169 92.3408 129.252 91.9599 129.251L91.9592 129.251ZM167.111 124.626C166.572 124.626 166.046 124.458 165.608 124.146C159.53 119.839 143.663 120.872 139.075 122.637C138.757 122.76 138.418 122.82 138.077 122.813C137.736 122.806 137.399 122.732 137.087 122.595C136.774 122.458 136.492 122.261 136.256 122.016C136.02 121.77 135.835 121.481 135.712 121.164C135.589 120.848 135.53 120.51 135.538 120.171C135.547 119.831 135.622 119.497 135.761 119.187C135.899 118.876 136.098 118.596 136.346 118.363C136.593 118.129 136.885 117.946 137.204 117.825C142.831 115.659 160.535 114.215 168.619 119.945C169.067 120.263 169.402 120.713 169.575 121.233C169.748 121.752 169.752 122.312 169.584 122.833C169.416 123.354 169.086 123.809 168.641 124.131C168.197 124.453 167.661 124.626 167.111 124.626L167.111 124.626Z" fill="#353535"/>
<path d="M187.378 135.25C198.423 128.579 216.346 126.491 230.85 132.142C239.824 135.638 238.155 153.433 238.155 153.433C238.155 153.433 246.354 176.175 241.516 185.141C236.677 194.106 238.155 202.416 238.155 202.416C238.155 202.416 187.516 211.637 179.809 205.871C173.55 201.189 187.378 135.25 187.378 135.25V135.25Z" fill="#FEFEFE"/>
<path d="M230.85 132.142C243.694 132.142 253.768 143.849 258.669 156.606C263.745 169.823 287.008 207.775 276.341 209.679C257.306 213.075 247.356 197.73 240.314 181.337" fill="#FEFEFE"/>
<path d="M271.078 212.742C253.418 212.742 244.128 196.78 237.929 182.35C237.659 181.721 237.651 181.011 237.908 180.376C238.164 179.742 238.663 179.234 239.296 178.966C239.928 178.697 240.642 178.689 241.28 178.944C241.919 179.199 242.429 179.695 242.699 180.324C250.777 199.13 259.455 207.586 271.074 207.587C272.624 207.587 274.223 207.437 275.883 207.14C276.178 207.088 276.212 207.021 276.274 206.898C276.575 206.302 277.256 203.597 273.357 193.858C270.693 187.203 266.778 179.392 263.324 172.501C260.278 166.425 257.648 161.177 256.246 157.526C252.205 147.005 243.129 134.72 230.85 134.72C230.51 134.72 230.172 134.653 229.858 134.523C229.543 134.394 229.257 134.204 229.016 133.965C228.776 133.725 228.585 133.441 228.454 133.128C228.324 132.815 228.257 132.48 228.257 132.141C228.257 131.803 228.324 131.468 228.454 131.155C228.585 130.842 228.776 130.558 229.016 130.318C229.257 130.079 229.543 129.889 229.858 129.759C230.172 129.63 230.51 129.563 230.85 129.563C245.749 129.563 256.24 143.057 261.091 155.686C262.403 159.102 265.105 164.493 267.966 170.201C277.487 189.197 283.989 203.115 280.909 209.213C280.084 210.845 278.663 211.883 276.799 212.216C274.8 212.573 272.895 212.741 271.078 212.741V212.742Z" fill="#353535"/>
<path d="M302.639 102.797L326.664 122.126L344.054 101.938C344.054 101.938 342.978 133.922 335.124 143.04C327.271 152.158 297.373 151.028 297.373 151.028C297.373 151.028 226.075 246.392 207.098 262.624C199.09 269.473 171.239 262.004 187.542 242.603C206.172 220.433 286.342 127.901 286.342 127.901C286.342 127.901 273.354 100.257 279.784 90.543C286.214 80.8294 311.403 90.3471 311.403 90.3471L302.639 102.798L302.639 102.797Z" fill="#60CDFF"/>
<path d="M191.578 274C190.749 274 189.922 273.937 189.102 273.81C183.997 273.016 179.907 269.735 178.161 265.034C175.604 258.149 178.306 249.362 185.572 240.926L283.299 127.47C280.416 120.991 271.287 98.6886 277.618 89.1253C284.627 78.5369 314.451 78.6434 317.829 78.6916C318.301 78.6981 318.761 78.8322 319.162 79.0795C319.562 79.3267 319.887 79.6778 320.102 80.0949C320.316 80.512 320.413 80.9794 320.38 81.4469C320.348 81.9144 320.188 82.3642 319.917 82.748L306.15 102.306L326.335 118.545L342.084 100.261C342.416 99.8753 342.855 99.596 343.346 99.4575C343.837 99.3191 344.358 99.3277 344.844 99.4824C345.33 99.637 345.759 99.9308 346.078 100.327C346.397 100.723 346.592 101.204 346.637 101.709C346.739 102.856 349.049 129.895 340.583 139.725C336.792 144.126 329.439 146.208 318.738 145.907C313.265 145.754 308.357 145.015 305.94 144.593C296.61 156.064 223.474 246.004 209.14 264.212C204.213 270.471 197.802 274 191.578 274ZM312.773 83.9046C301.097 84.3035 285.52 86.568 281.95 91.9603C277.846 98.1601 283.908 116.626 288.692 126.81C288.903 127.258 288.98 127.758 288.912 128.249C288.845 128.74 288.637 129.201 288.312 129.578L189.512 244.28C183.504 251.255 181.14 258.168 183.026 263.248C184.128 266.214 186.635 268.207 189.904 268.715C194.982 269.505 200.647 266.633 205.055 261.034C220.321 241.643 302.058 141.165 302.881 140.152C303.182 139.783 303.578 139.504 304.028 139.345C304.478 139.186 304.963 139.153 305.43 139.25C312.208 140.658 331.03 142.887 336.643 136.37C341.209 131.07 341.979 117.611 341.793 108.526L328.634 123.802C328.194 124.312 327.572 124.632 326.9 124.693C326.228 124.754 325.558 124.552 325.033 124.13L301.008 104.801C300.497 104.39 300.163 103.803 300.071 103.156C299.979 102.51 300.138 101.853 300.514 101.318L312.772 83.9039L312.773 83.9046Z" fill="#353535"/>
<path d="M193.067 251.158C187.865 257.196 195.316 263.194 200.354 257.363C204.666 252.372 196.978 246.617 193.067 251.158Z" fill="#353535"/>
<path d="M199.09 129.886C190.752 132.371 175.713 136.52 168.823 148.078C162.462 158.75 151.668 192.383 159.548 205.351C167.427 218.318 198.475 220.479 213.42 220.479C213.42 220.479 229.223 226.472 240.223 224.311C251.224 222.15 257.076 202.835 245.957 204.27C238.999 205.168 234.886 205.891 234.886 205.891L241.554 204.865C241.554 204.865 241.86 196.362 230.283 198.327C225.967 199.059 219.122 204.27 219.122 204.27C219.122 204.27 194.056 194.274 186.176 192.113L191.624 173.202" fill="#FEFEFE"/>
<path d="M234.919 227.357C225.439 227.358 215.255 223.887 212.953 223.057C206.632 223.039 194.794 222.641 183.314 220.303C169.903 217.573 161.16 212.991 157.328 206.684C148.653 192.409 160.028 157.776 166.592 146.764C173.778 134.708 188.645 130.295 197.528 127.659L198.345 127.416C199.002 127.225 199.708 127.301 200.31 127.626C200.911 127.951 201.359 128.499 201.555 129.151C201.752 129.802 201.681 130.505 201.359 131.105C201.037 131.705 200.489 132.155 199.835 132.355L199.012 132.6C190.856 135.02 177.206 139.071 171.054 149.392C168.124 154.308 163.859 165.165 161.378 176.406C158.561 189.163 158.7 198.969 161.767 204.017C167.988 214.253 192.528 217.9 213.42 217.9C213.736 217.9 214.049 217.958 214.344 218.069C214.472 218.118 225.406 222.205 234.903 222.206C236.576 222.206 238.204 222.079 239.721 221.781C245.768 220.593 249.949 212.707 249.269 208.571C249.095 207.516 248.721 206.512 246.29 206.826C244.686 207.033 243.232 207.231 241.945 207.413L235.282 208.438C234.606 208.543 233.916 208.379 233.362 207.981C232.808 207.583 232.435 206.983 232.323 206.313C232.211 205.642 232.37 204.955 232.766 204.4C233.161 203.846 233.76 203.469 234.434 203.351C234.531 203.334 235.914 203.092 238.382 202.72C238.177 202.356 237.908 202.03 237.589 201.758C236.265 200.637 233.889 200.33 230.719 200.867C228.044 201.322 223.152 204.451 220.696 206.317C220.339 206.589 219.917 206.763 219.472 206.824C219.026 206.884 218.573 206.829 218.155 206.662C217.906 206.563 193.136 196.696 185.486 194.598C185.155 194.508 184.846 194.353 184.576 194.143C184.307 193.933 184.081 193.672 183.913 193.374C183.746 193.077 183.639 192.75 183.599 192.411C183.56 192.073 183.588 191.73 183.682 191.402L189.131 172.492C189.225 172.166 189.382 171.862 189.594 171.597C189.806 171.332 190.068 171.111 190.366 170.947C190.664 170.783 190.991 170.678 191.329 170.64C191.668 170.602 192.011 170.63 192.338 170.723C192.999 170.912 193.558 171.353 193.892 171.951C194.225 172.549 194.306 173.255 194.117 173.912L189.371 190.383C197.684 193.052 213.934 199.439 218.746 201.344C221.055 199.708 226.052 196.429 229.846 195.784C234.705 194.959 238.471 195.674 241.041 197.908C242.495 199.173 243.272 200.674 243.685 201.967C244.303 201.884 244.949 201.799 245.623 201.712C250.318 201.107 253.676 203.416 254.387 207.739C255.54 214.749 249.339 225.147 240.725 226.839C238.875 227.203 236.912 227.357 234.919 227.357V227.357Z" fill="#353535"/>
<path d="M181.713 186.506C178.547 186.506 175.055 186.063 171.462 185.178C165.002 183.586 159.395 180.852 156.828 178.043C156.597 177.792 156.418 177.499 156.302 177.18C156.185 176.861 156.133 176.522 156.149 176.183C156.165 175.844 156.248 175.511 156.393 175.204C156.538 174.896 156.743 174.621 156.996 174.392C157.249 174.164 157.544 173.988 157.866 173.873C158.188 173.759 158.529 173.709 158.87 173.726C159.211 173.743 159.545 173.827 159.853 173.973C160.162 174.118 160.438 174.323 160.667 174.576C164.462 178.73 179.963 183.361 187.946 180.437C188.266 180.316 188.607 180.26 188.95 180.27C189.293 180.281 189.63 180.36 189.942 180.501C190.253 180.642 190.534 180.844 190.767 181.093C191.001 181.343 191.182 181.636 191.3 181.956C191.419 182.276 191.472 182.616 191.458 182.956C191.443 183.297 191.361 183.631 191.216 183.94C191.071 184.248 190.865 184.525 190.612 184.755C190.358 184.984 190.062 185.161 189.739 185.276C187.5 186.096 184.757 186.506 181.713 186.506Z" fill="#353535"/>
<path d="M276.341 209.679C286.873 207.768 297.644 181.424 298.864 169.609C300.085 157.795 290.434 144.073 286.285 143.103C282.136 142.132 275.88 152.495 276.368 157.591C276.856 162.686 277.557 169.06 282.023 171.761L269.936 187.795" fill="#FEFEFE"/>
<path d="M276.338 212.257C275.692 212.256 275.069 212.014 274.592 211.58C274.115 211.146 273.818 210.55 273.76 209.91C273.703 209.269 273.887 208.63 274.279 208.118C274.67 207.606 275.239 207.258 275.876 207.142C284.218 205.628 294.998 181.8 296.285 169.346C297.419 158.358 288.101 146.246 285.689 145.613C285.535 145.615 284.719 145.908 283.479 147.243C280.918 150.003 278.717 154.913 278.949 157.347C279.359 161.62 279.919 167.472 283.37 169.559C283.679 169.746 283.945 169.995 284.152 170.29C284.358 170.585 284.5 170.92 284.569 171.273C284.637 171.627 284.631 171.99 284.549 172.34C284.468 172.691 284.314 173.02 284.097 173.308L272.01 189.342C271.596 189.885 270.983 190.243 270.304 190.337C269.626 190.432 268.937 190.256 268.388 189.847C267.84 189.438 267.477 188.831 267.378 188.156C267.279 187.482 267.452 186.796 267.861 186.249L278.463 172.184C274.791 168.326 274.199 162.143 273.787 157.836C273.325 153.021 277.134 145.82 280.848 142.599C283.412 140.375 285.543 140.281 286.879 140.594C290.443 141.427 294.484 146.746 296.861 151.048C298.915 154.765 302.241 162.153 301.444 169.873C300.261 181.329 289.444 209.922 276.807 212.215C276.652 212.243 276.495 212.258 276.338 212.258V212.257ZM240.312 183.916C239.869 183.916 239.433 183.802 239.046 183.587C238.659 183.371 238.335 183.061 238.103 182.685C237.871 182.309 237.74 181.88 237.723 181.44C237.705 180.999 237.802 180.562 238.003 180.169C242.011 172.331 238.797 163.423 236.186 160.396C235.963 160.14 235.794 159.842 235.687 159.519C235.58 159.197 235.538 158.857 235.564 158.519C235.589 158.18 235.682 157.851 235.836 157.548C235.99 157.245 236.202 156.976 236.461 156.755C236.72 156.534 237.021 156.366 237.345 156.261C237.67 156.156 238.012 156.115 238.352 156.141C238.692 156.168 239.024 156.261 239.328 156.415C239.632 156.569 239.902 156.781 240.123 157.039C244.171 161.732 247.623 172.735 242.626 182.506C242.409 182.93 242.078 183.287 241.67 183.536C241.261 183.785 240.791 183.916 240.312 183.916Z" fill="#353535"/>
<path d="M181.796 123.939C160.599 115.362 159.841 65.4373 194.227 59.3156C205.697 45.4668 240.326 49.8002 239.1 73.742C239.1 73.742 250.037 84.4184 249.17 100.102C248.117 119.165 229.956 123.61 221.769 123.49L199.332 123.566L181.796 123.94V123.939Z" fill="#FEFEFE"/>
<path d="M200.061 116.107C199.676 116.108 199.295 116.023 198.947 115.858C198.598 115.694 198.291 115.454 198.048 115.157C196.594 113.38 195.635 111.749 195.041 110.561C189.253 110.657 186.772 107.577 185.931 106.138C184.165 103.115 184.464 99.1262 186.675 96.212C188.795 93.4171 192.198 92.1817 195.911 92.8115C197.877 91.8189 203.364 88.4505 201.604 82.4733C201.506 82.1474 201.473 81.8053 201.507 81.4667C201.542 81.1281 201.644 80.7997 201.807 80.5004C201.97 80.2011 202.191 79.9369 202.458 79.7231C202.724 79.5092 203.03 79.3498 203.359 79.2542C203.687 79.1586 204.032 79.1287 204.372 79.1661C204.712 79.2034 205.042 79.3074 205.341 79.4721C205.641 79.6367 205.905 79.8587 206.118 80.1252C206.331 80.3917 206.489 80.6975 206.582 81.025C209.309 90.2911 201.633 96.1155 197.193 97.9008C196.682 98.1063 196.119 98.1445 195.584 98.0098C193.54 97.4949 191.846 97.9593 190.816 99.3174C189.861 100.576 189.697 102.316 190.416 103.547C191.298 105.055 193.408 105.678 196.359 105.3C196.958 105.223 197.566 105.357 198.077 105.678C198.588 105.999 198.969 106.488 199.156 107.059C199.159 107.067 199.927 109.283 202.071 111.901C202.381 112.279 202.576 112.737 202.635 113.221C202.693 113.705 202.613 114.195 202.402 114.635C202.192 115.076 201.86 115.448 201.446 115.708C201.032 115.969 200.551 116.107 200.061 116.107Z" fill="#353535"/>
<path d="M200.06 113.529C199.551 119.81 199.09 129.886 199.09 129.886C199.09 129.886 205.282 143.394 216.921 141.63C228.56 139.865 221.331 129.886 221.331 129.886L221.769 123.49" fill="#FEFEFE"/>
<path d="M214.781 144.372C203.024 144.373 196.998 131.538 196.73 130.955C196.56 130.583 196.481 130.177 196.499 129.769C196.504 129.667 196.968 119.576 197.475 113.322C197.543 112.65 197.873 112.031 198.395 111.599C198.916 111.166 199.587 110.955 200.264 111.009C200.941 111.063 201.57 111.379 202.015 111.889C202.46 112.399 202.686 113.062 202.645 113.736C202.22 118.973 201.824 126.978 201.712 129.331C202.911 131.578 208.166 140.347 216.53 139.08C218.164 138.833 220.226 138.267 220.776 136.977C221.465 135.362 220.027 132.512 219.222 131.385C218.874 130.898 218.705 130.307 218.744 129.71L219.182 123.314C219.205 122.977 219.295 122.646 219.446 122.343C219.597 122.039 219.807 121.769 220.064 121.546C220.321 121.323 220.619 121.153 220.942 121.045C221.265 120.937 221.606 120.894 221.946 120.917C222.632 120.964 223.271 121.279 223.723 121.795C224.176 122.31 224.403 122.983 224.357 123.665L223.978 129.2C225.067 130.979 227.165 135.17 225.56 138.968C224.374 141.775 221.599 143.528 217.312 144.178C216.441 144.31 215.597 144.372 214.781 144.372Z" fill="#353535"/>
<path d="M224.394 126.144C219.799 126.144 215.536 125.517 211.723 124.281C211.069 124.069 210.527 123.608 210.216 122.998C209.904 122.388 209.849 121.681 210.062 121.03C210.275 120.38 210.74 119.841 211.353 119.531C211.966 119.222 212.678 119.167 213.332 119.379C216.624 120.447 220.346 120.988 224.394 120.988C233.501 120.988 240.755 116.991 244.295 110.021C249.002 100.756 246.279 87.7654 237.013 75.2724C236.622 74.7212 236.464 74.0396 236.572 73.3737C236.681 72.7078 237.047 72.1107 237.593 71.7104C238.139 71.31 238.821 71.1383 239.493 71.232C240.165 71.3257 240.773 71.6773 241.187 72.2116C246.609 79.5204 249.991 86.859 251.24 94.023C252.409 100.727 251.609 107.062 248.925 112.346C244.536 120.986 235.365 126.144 224.394 126.144Z" fill="#353535"/>
<path d="M216.921 95.2241C218.275 95.2241 219.373 94.1324 219.373 92.7858C219.373 91.4391 218.275 90.3474 216.921 90.3474C215.566 90.3474 214.468 91.4391 214.468 92.7858C214.468 94.1324 215.566 95.2241 216.921 95.2241Z" fill="#353535"/>
<path d="M232.508 92.785C233.862 92.785 234.96 91.6933 234.96 90.3467C234.96 89 233.862 87.9083 232.508 87.9083C231.154 87.9083 230.056 89 230.056 90.3467C230.056 91.6933 231.154 92.785 232.508 92.785Z" fill="#353535"/>
<path d="M181.795 126.519C181.458 126.519 181.117 126.453 180.788 126.315C174.209 123.555 169.071 117.734 166.319 109.925C162.303 98.5269 163.828 84.5407 170.398 72.5118C176.937 60.5396 189.425 57.5281 192.981 56.899C202.971 47.1571 218.667 47.3445 229.246 52.6765C238.595 57.3885 243.232 65.4336 241.652 74.1969C241.527 74.8658 241.14 75.4582 240.577 75.8449C240.013 76.2316 239.319 76.3812 238.646 76.2611C237.972 76.1411 237.373 75.761 236.98 75.2039C236.587 74.6468 236.431 73.9578 236.547 73.2871C238.211 64.0627 230.355 59.0169 226.901 57.2758C218.028 52.8036 204.219 52.622 196.104 61.0939C195.686 61.5301 195.128 61.807 194.526 61.8766C194.4 61.8921 181.159 63.6148 174.956 74.9722C169.073 85.7437 167.674 98.173 171.214 108.22C173.475 114.638 177.591 119.377 182.804 121.564C183.355 121.796 183.809 122.21 184.089 122.736C184.368 123.262 184.456 123.868 184.337 124.452C184.219 125.035 183.901 125.559 183.437 125.936C182.974 126.313 182.393 126.519 181.795 126.519Z" fill="#353535"/>
<path d="M215.525 83.0674C215.166 83.0678 214.811 82.9941 214.482 82.851C214.153 82.7079 213.858 82.4984 213.615 82.2359C213.371 81.9734 213.186 81.6635 213.069 81.3259C212.953 80.9883 212.908 80.6304 212.938 80.2747C213.119 78.1111 211.457 75.8522 207.999 73.5601C207.716 73.3722 207.472 73.1308 207.283 72.8494C207.093 72.5681 206.961 72.2524 206.895 71.9204C206.828 71.5884 206.827 71.2465 206.894 70.9143C206.96 70.5822 207.091 70.2662 207.28 69.9845C207.469 69.7028 207.712 69.4608 207.995 69.2724C208.278 69.084 208.595 68.9528 208.929 68.8864C209.603 68.7523 210.304 68.8901 210.876 69.2694C216.024 72.6812 218.456 76.5281 218.107 80.7031C218.052 81.3471 217.757 81.9474 217.279 82.3853C216.801 82.8232 216.175 83.0666 215.525 83.0674ZM230.009 79.9215C229.402 79.9206 228.814 79.708 228.349 79.3207C227.883 78.9334 227.569 78.3961 227.46 77.8021C227.007 75.3107 224.63 73.1715 220.939 71.932C220.288 71.7132 219.75 71.246 219.445 70.6332C219.14 70.0203 219.092 69.3121 219.312 68.6642C219.532 68.0163 220.002 67.4819 220.619 67.1786C221.235 66.8752 221.948 66.8277 222.599 67.0465C228.132 68.9044 231.764 72.4897 232.564 76.8831C232.632 77.2549 232.616 77.6368 232.519 78.002C232.422 78.3673 232.245 78.7068 232.002 78.9966C231.758 79.2864 231.453 79.5195 231.109 79.6792C230.765 79.839 230.389 79.9219 230.009 79.9215ZM191.621 126.518C191.094 126.518 190.58 126.358 190.147 126.059C189.903 125.891 184.136 121.86 182.005 115.296C181.9 114.973 181.861 114.634 181.888 114.296C181.915 113.959 182.009 113.63 182.165 113.328C182.478 112.72 183.022 112.26 183.676 112.05C184.331 111.84 185.043 111.897 185.655 112.209C186.267 112.52 186.73 113.061 186.941 113.712C188.513 118.555 193.055 121.788 193.101 121.82C193.555 122.133 193.897 122.582 194.077 123.102C194.257 123.622 194.264 124.185 194.099 124.71C193.934 125.234 193.605 125.693 193.159 126.018C192.713 126.343 192.174 126.518 191.621 126.518V126.518Z" fill="#353535"/>
</svg>
