<svg width="376" height="184" viewBox="0 0 376 184" fill="none" xmlns="http://www.w3.org/2000/svg">
<path d="M3.35963 195.682C3.35963 -65.0608 372.631 -57.5856 372.631 199.341C372.631 434.769 3.35963 456.402 3.35963 195.682Z" fill="#FEFEFE"/>
<path d="M182.985 386.995C134.433 386.995 89.6637 370.353 56.9121 340.134C19.6826 305.777 0 255.826 0 195.682C0 135.539 19.9322 84.1551 57.6464 48.7067C74.5694 32.7996 94.516 20.4932 116.939 12.1238C138.493 4.08133 161.401 0 185.02 0C208.638 0 232.601 4.23035 254.871 12.5757C277.947 21.2239 298.546 33.8812 316.098 50.1969C355.281 86.626 375.99 138.198 375.99 199.346C375.99 228.593 370.365 255.763 359.269 280.097C348.974 302.672 334.168 322.478 315.248 338.971C297.438 354.494 276.627 366.574 253.383 374.862C230.811 382.914 207.126 387 182.985 387V386.995ZM185.02 6.7301C99.1426 6.7301 6.71926 65.8588 6.71926 195.682C6.71926 253.893 25.6532 302.133 61.4668 335.183C92.9705 364.257 136.127 380.265 182.985 380.265C275.557 380.265 369.271 318.117 369.271 199.341C369.271 140.116 349.305 90.2506 311.524 55.1243C277.956 23.9207 233.029 6.7301 185.02 6.7301Z" fill="#231F20"/>
<path d="M276.833 52.8265C269.01 48.0385 244.24 33.0881 240.761 53.4033C237.286 73.7186 245.978 75.4588 259.013 68.0605C272.053 60.6622 276.939 83.2946 262.761 83.2946C248.584 83.2946 220.07 87.2606 223.55 96.4039C227.025 105.547 193.443 113.801 211.393 127.141C225.652 137.736 252.063 106.802 262.493 113.335C272.922 119.863 287.699 115.513 295.959 124.218C304.214 132.924 307.694 145.548 292.916 141.63C278.139 137.712 265.972 127.266 252.5 130.314C239.028 133.362 223.996 138.438 218.342 158.46C212.693 178.482 199.912 211.45 232.942 210.844C246.371 210.599 246.822 208.878 246.822 208.878C246.822 208.878 263.337 237.174 257.252 257.633C251.166 278.093 259.886 296.6 268.578 300.086C277.27 303.566 303.154 288.221 307.771 277.775C312.388 267.329 320.297 242.625 322.035 230.001C323.772 217.377 345.068 209.109 342.898 194.74C340.724 180.376 352.459 175.588 356.37 162.527C361.41 169.517 362.302 201.778 372.3 211.455C372.52 207.484 372.636 203.451 372.636 199.35C372.636 118.262 336.284 74.1801 285.938 43.3803C285.789 48.7211 282.545 56.3261 276.838 52.8361L276.833 52.8265ZM34.7386 208.648C42.6481 212.234 49.4921 217.546 55.3283 223.987C81.1734 247.841 53.4325 263.575 89.4477 288.361C95.8598 291.269 99.6274 296.653 100.75 303.604C106.798 323.651 116.277 345.475 133.065 358.527C139.065 360.892 143.845 358.791 132.542 341.754C124.94 330.289 153.458 296.571 157.456 290.154C168.687 272.127 151.26 252.369 134.28 250.879C127.21 250.259 119.852 242.668 114.112 238.481C96.4837 227.458 68.7236 229.189 64.0969 199.677C62.5707 189.938 43.8816 198.552 41.7074 177.857C40.4787 166.147 55.957 161.96 65.0424 172.113C67.7637 178.463 86.5152 189.207 87.4799 180.487C91.4251 144.817 82.3685 126.891 115.926 121.584C148.956 116.359 117.976 65.6954 101.686 80.6747C96.0134 85.8953 100.99 97.8941 94.3624 101.822C81.1974 107.677 74.0846 89.5488 82.2437 80.1315C86.3761 71.44 106.534 68.224 103.577 57.6433C99.6562 51.0767 91.2331 55.98 85.9777 58.2442C77.2955 61.2679 66.9094 56.6819 62.5995 48.6971C47.8795 61.9458 35.1705 78.1172 25.346 97.2259C18.9723 134.804 3.21085 194.332 34.7338 208.633L34.7386 208.648Z" fill="#60CDFF"/>
<path d="M271.616 303.946C270.076 303.946 268.626 303.725 267.33 303.205C252.323 297.192 262.329 260.671 264.489 253.412C269.087 237.957 259.45 217.031 255.745 209.854C251.459 211.426 242.92 214.027 233 214.209C222.143 214.407 214.028 211.109 208.868 204.408C199.346 192.039 202.418 171.469 206.675 156.388C212.521 135.669 235.452 130.626 249.155 127.612C250.057 127.415 250.926 127.223 251.761 127.035C261.561 124.819 270.642 128.901 279.425 132.847C284.042 134.924 288.818 137.068 293.78 138.385C297.985 139.501 299.444 138.813 299.578 138.582C300.279 137.4 298.777 132.078 293.526 126.545C289.816 122.637 284.273 121.911 277.851 121.075C272.048 120.32 266.049 119.536 260.717 116.2C257.866 114.412 253.676 116.878 247.12 121.156C241.221 125.002 234.205 129.574 226.53 129.574C224.255 129.574 221.923 129.175 219.542 128.232C217.92 127.588 212.976 125.637 212.324 121.377C211.642 116.95 215.683 113.676 219.96 110.205C222.758 107.936 226.981 104.504 226.333 102.793C225.565 100.774 225.172 97.6057 227.672 93.9714C233.197 85.9434 250.758 79.944 262.776 79.944C265.334 79.944 266.98 78.9873 267.671 77.1029C268.458 74.9589 267.791 72.1082 266.188 70.743C264.844 69.6037 262.997 69.6902 260.683 70.9978C252.102 75.8675 245.814 76.7472 241.457 73.6802C236.916 70.4834 235.611 63.6716 237.463 52.8457C238.476 46.928 241.183 42.9284 245.502 40.9623C254.962 36.6598 268.924 44.0389 278.6 49.9614C288.275 55.8839 278.619 49.9758 278.628 49.9806C280.107 48.774 282.521 41.6064 282.151 31.3382C282.108 30.1028 282.746 28.9394 283.812 28.3145C284.877 27.6896 286.202 27.704 287.258 28.3481C314.25 44.8609 335.66 67.2193 350.894 94.7983C367.553 124.964 376 160.138 376 199.35C376 203.422 375.885 207.556 375.659 211.642C375.624 212.287 375.404 212.907 375.026 213.43C374.648 213.952 374.128 214.355 373.528 214.589C372.304 215.07 370.913 214.791 369.967 213.878C363.233 207.359 360.455 193.231 358.007 180.766C357.368 177.521 356.721 174.223 356.049 171.406C354.767 173.56 353.38 175.487 352.075 177.3C348.192 182.693 345.125 186.957 346.224 194.24C347.678 203.845 340.758 210.888 334.657 217.103C330.204 221.637 325.994 225.925 325.37 230.463C323.532 243.793 315.421 268.791 310.852 279.141C307.934 285.75 298.887 292.735 291.39 297.071C287.421 299.369 278.614 303.955 271.621 303.955L271.616 303.946ZM257.276 202.254C258.437 202.254 259.56 202.86 260.179 203.922C260.885 205.129 277.357 233.727 270.93 255.335C264.024 278.549 264.984 295.014 269.826 296.956C272.264 297.932 279.3 296.283 288.021 291.235C296.156 286.529 302.861 280.568 304.699 276.41C309.014 266.647 316.976 242.12 318.704 229.54C319.635 222.79 324.833 217.498 329.858 212.378C335.344 206.792 340.522 201.518 339.572 195.24C338.06 185.241 342.409 179.199 346.613 173.353C349.137 169.844 351.748 166.214 353.145 161.556C353.325 160.955 353.669 160.416 354.139 160.001C354.609 159.585 355.186 159.31 355.804 159.205C357.066 158.989 358.338 159.513 359.087 160.551C361.544 163.96 362.888 170.796 364.587 179.453C365.835 185.808 367.265 193.072 369.266 199.028C369.185 128.574 340.657 71.3871 288.75 37.2559C288.285 44.534 286.5 53.1582 281.839 55.8887C279.747 57.1145 277.285 57.0424 275.077 55.6916C262.133 47.7693 253.11 44.8705 248.262 47.0771C246.064 48.077 244.691 50.3315 244.067 53.9658C242.181 64.9984 244.533 67.6135 245.301 68.1567C247.177 69.4787 251.684 68.3442 257.352 65.1281C262.157 62.4024 266.956 62.5707 270.512 65.5944C274.27 68.7864 275.72 74.5935 273.959 79.4056C272.293 83.9484 268.108 86.6548 262.757 86.6548C251.9 86.6548 236.974 92.2649 233.187 97.7691C232.17 99.2498 232.467 100.038 232.592 100.375C234.977 106.643 228.983 111.503 224.169 115.412C222.537 116.738 219.581 119.132 219.024 120.31C219.297 120.579 220.06 121.185 221.99 121.949C229.17 124.79 236.422 120.065 243.434 115.493C250.384 110.965 257.564 106.283 264.259 110.475C268.348 113.032 273.373 113.691 278.696 114.383C285.741 115.301 293.027 116.253 298.378 121.892C304.157 127.987 308.553 136.563 305.337 141.996C303.845 144.519 300.322 147.067 292.038 144.875C286.547 143.418 281.518 141.159 276.656 138.972C268.17 135.155 260.837 131.862 253.22 133.588C252.375 133.78 251.492 133.972 250.576 134.174C237.555 137.039 217.872 141.371 213.12 158.21C209.982 169.339 205.94 189.601 214.172 200.288C218.016 205.282 224.126 207.633 232.861 207.47C245.382 207.239 255.769 202.595 255.869 202.547C256.316 202.345 256.791 202.249 257.256 202.249L257.276 202.254ZM136.579 362.7C135.292 362.7 133.728 362.411 131.837 361.666C131.539 361.551 131.261 361.387 131.006 361.195C116.598 349.994 105.651 331.477 97.5348 304.585C97.4916 304.441 97.458 304.297 97.434 304.152C96.4501 298.086 93.2969 293.807 88.0607 291.437C87.8783 291.356 87.7055 291.26 87.5423 291.144C66.5686 276.708 66.9526 261.282 67.2934 247.668C67.5765 236.222 67.8261 226.338 57.0705 216.416C56.9985 216.349 56.9265 216.277 56.8593 216.204C51.0472 209.787 44.4911 204.893 37.3735 201.667C23.2198 195.245 15.7807 182.064 14.6336 161.359C13.6785 144.111 17.2589 123.858 20.4121 105.994C20.9833 102.769 21.5208 99.7209 22.0344 96.6923C22.092 96.351 22.2023 96.0241 22.3607 95.7164C32.0749 76.8241 44.8606 60.1719 60.3581 46.2262C61.126 45.5387 62.1627 45.2359 63.1754 45.4138C64.1881 45.5916 65.0664 46.2214 65.556 47.1299C69.1556 53.7975 77.9242 57.4462 84.7634 55.1339C85.301 54.9032 85.8673 54.6388 86.4624 54.3696C91.6939 51.9804 101.437 47.5337 106.457 55.9464C106.611 56.2011 106.731 56.48 106.807 56.7684C109.231 65.4358 101.115 70.2622 94.5975 74.1417C90.6428 76.4924 86.5488 78.9249 85.2722 81.6121C85.1426 81.8861 84.9746 82.1409 84.7778 82.3716C81.0438 86.6789 81.6054 93.2359 84.2691 96.8413C85.7233 98.8075 88.3726 100.74 92.7929 98.8652C94.4775 97.7355 94.7799 95.1059 95.0679 90.9717C95.3703 86.5924 95.7158 81.6265 99.4114 78.2278C104.763 73.3052 112.85 73.2235 121.595 78.0067C133.545 84.5445 145.035 99.1055 143.087 110.359C142.448 114.056 139.674 120.531 128.28 122.334C97.6116 127.184 85.9201 140.933 81.9557 176.819C81.3222 182.535 77.689 183.684 76.158 183.91C71.0993 184.66 64.7832 179.41 62.2107 174.026C57.9104 169.507 52.367 169.036 48.9546 170.555C47.2988 171.291 44.5919 173.175 45.0526 177.535C46.1037 187.553 51.1144 188.914 56.9121 190.491C61.1644 191.649 66.4631 193.087 67.4181 199.187C70.1634 216.695 85.0898 220.151 100.89 223.81C108.886 225.66 117.15 227.574 123.457 231.515C123.524 231.559 123.591 231.602 123.658 231.65C126.888 234.01 128.515 237.837 129.95 241.212C131.582 245.053 132.71 247.394 134.577 247.557C147.958 248.73 163.758 254.518 168.879 264.801C170.77 268.594 172.008 274.737 167.19 282.467C166.412 283.717 164.718 286.01 162.371 289.178C156.995 296.451 148.87 307.441 142.712 317.978C133.185 334.279 134.659 338.894 135.34 339.918C142.539 350.773 144.358 356.955 141.426 360.594C140.677 361.522 139.204 362.719 136.574 362.719L136.579 362.7ZM134.731 355.566C135.244 355.748 135.662 355.854 135.983 355.912C135.767 354.527 134.678 351.061 129.749 343.625C123.476 334.164 136.094 313.406 156.976 285.159C159.146 282.227 160.854 279.91 161.493 278.891C164.075 274.747 164.526 271.112 162.87 267.791C159.146 260.311 145.213 255.229 133.992 254.244C127.973 253.715 125.641 248.235 123.769 243.827C122.641 241.168 121.475 238.423 119.79 237.135C114.448 233.833 107.129 232.14 99.3826 230.347C82.906 226.53 64.2361 222.209 60.7853 200.211C60.5501 198.721 59.6046 198.177 55.1555 196.966C49.0842 195.317 39.9076 192.822 38.3718 178.218C37.7334 172.122 40.7427 166.825 46.2333 164.383C53.1445 161.311 61.9084 163.57 67.5525 169.873C67.7973 170.147 67.9941 170.454 68.1381 170.791C69.6403 174.295 73.5855 177.184 75.0109 177.242C75.0877 177.074 75.2125 176.713 75.2893 176.059C77.4634 156.408 81.8454 143.491 89.5005 134.184C97.5924 124.343 109.586 118.459 127.244 115.666C132.777 114.791 135.883 112.614 136.478 109.191C137.73 101.956 128.938 89.6642 118.384 83.8907C114.823 81.9438 108.209 79.2565 103.966 83.16C102.243 84.7464 102.018 87.9865 101.778 91.414C101.456 96.0289 101.058 101.774 96.0758 104.725C95.9654 104.792 95.8454 104.85 95.7254 104.903C89.2989 107.759 82.8388 106.196 78.8697 100.817C74.6413 95.0915 73.739 85.1742 79.4216 78.2711C81.6774 73.9734 86.5008 71.1035 91.1707 68.3297C97.2469 64.7147 100.976 62.2342 100.443 59.0037C98.7155 56.7155 95.3799 57.677 89.2557 60.4748C88.5742 60.7872 87.9215 61.0853 87.3119 61.3449C87.24 61.3785 87.1632 61.4074 87.0864 61.4314C78.4329 64.4455 67.9989 61.0612 62.0187 53.8216C48.5226 66.5559 37.2823 81.5063 28.5712 98.322C28.0817 101.201 27.5682 104.095 27.0306 107.153C23.935 124.661 20.4313 144.5 21.3432 160.974C22.3367 178.939 28.4849 190.241 40.1428 195.529C48.0619 199.12 55.3235 204.513 61.7356 211.566C74.6126 223.526 74.3054 235.88 74.0078 247.831C73.6863 260.835 73.3791 273.117 91.1131 285.428C98.1923 288.741 102.651 294.754 104.028 302.84C111.64 327.982 121.691 345.24 134.731 355.561V355.566Z" fill="#231F20"/>
<path d="M143.379 35.4628C139.905 52.4419 139.847 75.954 148.956 75.954C159.309 75.954 179.174 58.2875 187.995 48.7115C196.817 39.1355 177.744 9.7298 162.097 18.8683C146.451 28.0116 143.379 35.458 143.379 35.458V35.4628Z" fill="#60CDFF"/>
<path d="M148.956 79.319C146.379 79.319 144.09 78.1797 142.333 76.0213C135.575 67.724 137.913 45.4186 140.087 34.785C140.13 34.5783 140.192 34.3716 140.274 34.1745C140.634 33.3044 144.248 25.4013 160.408 15.9648C167.022 12.0998 173.918 13.4698 178.857 19.623C185.399 27.7809 187.64 43.7793 180.609 51.4132C178.415 53.7975 176.131 56.6915 173.712 59.7537C166.119 69.3729 158.263 79.3142 148.961 79.3142L148.956 79.319ZM146.585 36.5637C143.562 51.6631 143.974 67.3923 147.54 71.7669C148.126 72.488 148.568 72.5889 148.956 72.5889C155.008 72.5889 162.14 63.5514 168.437 55.581C170.938 52.4131 173.299 49.423 175.67 46.8511C179.769 42.3996 178.679 30.1412 173.621 23.839C169.359 18.527 165.169 20.9739 163.796 21.7767C151.121 29.1798 147.277 35.309 146.59 36.5637H146.585Z" fill="#231F20"/>
<path d="M55.3957 67.7498C45.1381 61.8321 31.1931 61.9317 20.6957 67.9972C11.6717 73.2122 6.70642 81.87 6.71412 92.3778C6.73964 122.373 34.2988 151.84 35.4718 153.08C35.7787 153.404 36.1472 153.663 36.5557 153.843C36.9643 154.022 37.4047 154.119 37.8509 154.126H37.9044C38.7875 154.126 39.6348 153.777 40.2618 153.155C41.4382 151.989 69.0595 124.237 69.0595 92.3749C69.0595 81.5778 64.2073 72.8328 55.3957 67.7498Z" fill="#231F20"/>
<path d="M48.0868 84.0638C45.335 81.7974 41.6885 80.5491 37.8191 80.5491C30.337 80.5491 22.7623 85.4641 22.7623 94.8575C22.7623 100.684 25.2715 104.16 27.3757 106.051C30.0057 108.413 33.5689 109.713 37.4099 109.713C41.2889 109.713 45.1347 108.346 47.9612 105.963C51.2181 103.217 53.0112 99.2733 53.0112 94.858C53.0112 90.5134 51.2624 86.6806 48.0868 84.0647V84.0638Z" fill="#FEFEFE"/>
<path d="M308.949 22.721C300.743 17.9617 289.587 18.0419 281.189 22.92C273.969 27.114 269.997 34.0769 270.003 42.5276C270.024 66.6509 292.071 90.3492 293.009 91.3461C293.255 91.6067 293.55 91.8154 293.877 91.9598C294.204 92.1043 294.556 92.1816 294.913 92.1874H294.956C295.662 92.1873 296.34 91.9068 296.842 91.4069C297.783 90.4692 319.88 68.1496 319.88 42.5253C319.88 33.8419 315.998 26.8089 308.949 22.721Z" fill="#231F20"/>
<path d="M303.102 35.8412C300.9 34.0185 297.983 33.0146 294.887 33.0146C288.902 33.0146 282.842 36.9674 282.842 44.5219C282.842 49.2079 284.849 52.0035 286.533 53.5239C288.637 55.4232 291.487 56.4693 294.56 56.4693C297.663 56.4693 300.74 55.3698 303.001 53.4534C305.607 51.2451 307.041 48.0732 307.041 44.5223C307.041 41.0282 305.642 37.9457 303.102 35.842V35.8412Z" fill="#FEFEFE"/>
<path d="M172.748 195.572C164.542 190.813 153.386 190.893 144.988 195.771C137.769 199.965 133.797 206.928 133.803 215.379C133.823 239.502 155.87 263.201 156.809 264.198C157.054 264.458 157.349 264.667 157.676 264.811C158.003 264.956 158.355 265.033 158.712 265.039H158.755C159.461 265.039 160.139 264.758 160.641 264.258C161.582 263.321 183.679 241.001 183.679 215.377C183.679 206.693 179.797 199.66 172.748 195.572Z" fill="#231F20"/>
<path d="M166.901 208.693C164.699 206.87 161.782 205.866 158.687 205.866C152.701 205.866 146.641 209.819 146.641 217.373C146.641 222.059 148.649 224.855 150.332 226.375C152.436 228.275 155.287 229.321 158.359 229.321C161.463 229.321 164.539 228.221 166.8 226.305C169.406 224.097 170.84 220.925 170.84 217.374C170.84 213.88 169.441 210.797 166.901 208.693V208.693Z" fill="#FEFEFE"/>
</svg>
