<svg width="376" height="184" viewBox="0 0 376 184" fill="none" xmlns="http://www.w3.org/2000/svg">
<path d="M254.901 198.126C251.054 209.06 234.654 249.662 231.101 260.015C227.292 271.116 233.419 281.119 250.293 284.625C258.824 286.397 261.03 279.859 264.84 271.314C271.073 257.331 291.485 212.057 291.485 212.057L254.9 198.127L254.901 198.126Z" fill="#353535"/>
<path d="M252.977 289C251.895 289 250.729 288.878 249.469 288.616C239.313 286.506 232.036 282.027 228.424 275.661C225.575 270.64 225.172 264.772 227.26 258.688C229.126 253.249 234.467 239.633 239.632 226.467C244.354 214.428 249.237 201.979 251.07 196.769C251.25 196.257 251.531 195.786 251.895 195.384C252.259 194.981 252.7 194.656 253.191 194.428C253.683 194.199 254.215 194.071 254.756 194.052C255.297 194.032 255.837 194.122 256.343 194.315L292.927 208.245C293.445 208.443 293.918 208.745 294.316 209.133C294.714 209.521 295.028 209.986 295.24 210.501C295.452 211.015 295.556 211.568 295.547 212.124C295.538 212.681 295.416 213.229 295.187 213.736C294.983 214.189 274.708 259.163 268.549 272.978C268.296 273.547 268.05 274.106 267.809 274.654C264.828 281.426 261.494 289 252.977 289ZM257.301 203.4C254.979 209.603 251.175 219.302 247.193 229.452C242.06 242.538 236.753 256.07 234.943 261.342C233.62 265.2 233.802 268.66 235.486 271.627C237.909 275.898 243.314 279.012 251.118 280.633C255.452 281.531 256.658 279.806 260.375 271.361C260.626 270.79 260.878 270.22 261.131 269.65C266.214 258.248 280.889 225.675 286.002 214.329L257.301 203.4Z" fill="#353535"/>
<path d="M261.399 201.923C257.552 212.858 241.152 253.459 237.599 263.813C229.981 286.014 263.719 292.202 271.338 275.111C277.571 261.128 297.983 215.854 297.983 215.854L261.398 201.924L261.399 201.923Z" fill="#FEFEFE"/>
<path d="M254.486 288.992C251.133 288.992 247.801 288.375 244.803 287.187C234.363 283.052 230.028 273.356 233.758 262.485C235.624 257.046 240.965 243.431 246.13 230.263C250.852 218.224 255.735 205.775 257.567 200.566C257.748 200.054 258.028 199.582 258.392 199.18C258.757 198.778 259.198 198.453 259.689 198.225C260.18 197.996 260.712 197.868 261.253 197.849C261.795 197.829 262.334 197.919 262.841 198.111L299.425 212.042C299.943 212.24 300.416 212.542 300.814 212.93C301.212 213.318 301.526 213.784 301.738 214.298C301.95 214.812 302.054 215.365 302.045 215.921C302.036 216.478 301.914 217.027 301.685 217.534C301.481 217.986 281.206 262.959 275.047 276.775C271.309 285.162 262.835 288.992 254.486 288.992V288.992ZM263.799 207.197C261.477 213.4 257.673 223.099 253.691 233.249C248.559 246.335 243.25 259.867 241.441 265.139C238.3 274.294 244.068 278.132 247.787 279.605C254.803 282.384 264.452 280.573 267.629 273.447C272.711 262.045 287.386 229.472 292.5 218.126L263.799 207.197Z" fill="#353535"/>
<path d="M212.845 34.3866C223.631 84.7049 245.356 106.501 269.561 118.415C286.096 140.724 274.122 177.333 244.474 187.629C244.474 187.629 187.846 175.384 144.205 191.337C104.417 205.881 212.845 34.3866 212.845 34.3866Z" fill="#FEFEFE"/>
<path d="M140.032 196.284C136.73 196.284 134.711 194.825 133.505 193.323C130.592 189.691 129.025 182.66 139.481 158.057C145.329 144.298 154.402 126.332 166.449 104.657C186.898 67.864 209.191 32.5552 209.413 32.2029C209.845 31.5193 210.47 30.9801 211.208 30.6543C211.947 30.3284 212.765 30.2305 213.559 30.3732C214.353 30.5153 215.087 30.8912 215.667 31.4532C216.247 32.0152 216.647 32.7378 216.817 33.5288C225.83 75.5764 242.649 100.628 271.35 114.755C271.93 115.04 272.435 115.461 272.821 115.982C281.164 127.239 283.349 142.157 278.815 156.911C273.837 173.107 261.496 186.03 245.802 191.481C245.1 191.724 244.344 191.77 243.618 191.613C243.062 191.493 187.596 179.813 145.595 195.167C143.425 195.96 141.586 196.283 140.032 196.283V196.284ZM139.782 188.117C140.063 188.155 140.952 188.189 142.814 187.507C184.113 172.41 235.602 181.693 244.172 183.406C256.938 178.603 266.942 167.876 271.05 154.51C274.708 142.608 273.174 130.679 266.854 121.619C252.997 114.637 241.886 105.344 232.911 93.2355C223.416 80.4254 216.254 64.5185 211.136 44.8178C203.392 57.3443 188.106 82.4507 173.711 108.332C161.835 129.684 152.889 147.36 147.12 160.87C137.899 182.464 139.422 187.392 139.782 188.117Z" fill="#353535"/>
<path d="M190.309 5.72675C153.341 -5.25129 106.843 37.5213 90.4286 86.6557C75.1975 132.248 87.3279 183.739 120.731 192.362C188.998 209.983 249.44 23.2863 190.309 5.72675Z" fill="#60CDFF"/>
<path d="M129.976 197.625C126.515 197.622 123.069 197.18 119.719 196.309C105.039 192.519 94.8788 181.451 90.3352 164.301C85.1647 144.783 87.5056 117.454 96.7577 89.3193C105.916 61.47 120.674 36.225 137.246 20.0578C154.901 2.83491 173.648 -3.47228 191.462 1.81816C205.518 5.99229 214.475 18.6783 217.367 38.5048C219.814 55.2869 217.744 76.9285 211.538 99.4431C203.944 126.992 190.992 153.075 176.005 171.004C161.314 188.576 145.583 197.625 129.976 197.625ZM179.149 8.17019C164.52 8.17019 151.709 17.3197 142.911 25.9027C109.895 58.1129 88.1603 124.354 98.1879 162.206C101.986 176.541 109.911 185.359 121.743 188.413C141.525 193.52 158.784 178.916 169.778 165.764C184.044 148.698 196.411 123.733 203.706 97.2698C214.272 58.9381 213.871 16.9744 189.155 9.63475C185.908 8.66435 182.537 8.17085 179.149 8.16961V8.17019Z" fill="#353535"/>
<path d="M269.561 118.415C270.944 137.984 260.607 176.416 244.474 187.629C234.709 194.416 303.538 220.705 314.394 218.871C337.894 214.901 354.465 160.748 336.119 145.249C325.41 136.201 268.932 109.506 269.561 118.415Z" fill="#FEFEFE"/>
<path d="M313.191 223.029C302.925 223.029 278.241 213.48 275.285 212.321C266.628 208.929 258.927 205.449 253.016 202.259C243.086 196.9 240.818 193.76 239.952 191.624C238.835 188.87 239.702 185.986 242.159 184.279C256.883 174.046 266.82 137.278 265.507 118.704C265.344 116.394 266.469 114.391 268.517 113.346C270.308 112.432 275.062 110.003 303.776 122.942C316.415 128.636 332.746 137.071 338.736 142.132C349.822 151.498 349.45 170.717 345.405 185.579C341.17 201.144 330.683 220.254 315.068 222.891C314.517 222.984 313.886 223.029 313.191 223.029ZM248.494 189.692C251.565 192.455 261.035 198.024 278.759 204.929C296.263 211.749 310.536 215.391 313.719 214.852C323.159 213.257 332.966 200.337 337.566 183.432C341.818 167.809 340.222 154.045 333.502 148.367C329.149 144.69 315.773 137.362 301.696 130.943C286.785 124.145 277.646 121.333 273.734 120.781C274.186 141.424 264.442 176.695 248.494 189.692Z" fill="#353535"/>
<path d="M160.754 81.112L207.508 98.7617C202.061 117.623 195.065 136.131 183.033 154.498L138.671 131.886L160.754 81.112Z" fill="#FEFEFE"/>
<path d="M183.031 158.576C182.392 158.575 181.762 158.424 181.193 158.133L136.831 135.52C135.907 135.049 135.197 134.242 134.847 133.263C134.497 132.285 134.533 131.209 134.947 130.256L157.03 79.482C157.447 78.5248 158.214 77.7645 159.173 77.3579C160.132 76.9514 161.21 76.9297 162.185 77.2971L208.939 94.9469C209.896 95.3083 210.682 96.0188 211.14 96.9363C211.599 97.8539 211.695 98.911 211.41 99.8967C206.912 115.472 200.007 136.009 186.428 156.738C186.058 157.303 185.554 157.767 184.961 158.087C184.368 158.408 183.704 158.576 183.03 158.576H183.031ZM143.928 129.993L181.597 149.194C192.334 131.964 198.43 114.941 202.542 101.242L162.935 86.2906L143.928 129.993Z" fill="#353535"/>
<path d="M160.754 81.112C179.78 90.1794 155.693 137.283 138.671 131.886C121.65 126.489 143.7 72.9844 160.754 81.112Z" fill="#FEFEFE"/>
<path d="M141.527 136.405C140.163 136.405 138.801 136.202 137.447 135.773C132.875 134.324 129.819 130.408 128.84 124.747C126.51 111.267 135.766 88.6706 147.181 79.9735C152.305 76.0684 157.746 75.167 162.498 77.4299C172.247 82.0763 174.54 94.5579 168.484 110.004C163.138 123.639 152.346 136.403 141.527 136.405ZM157.116 84.3439C155.954 84.3439 154.3 84.7859 152.095 86.4665C143.166 93.2698 135.043 112.92 136.846 123.355C137.519 127.246 139.308 127.813 139.896 128C140.395 128.156 140.915 128.233 141.438 128.23C147.464 128.231 156.29 118.835 160.922 107.021C164.17 98.7361 165.619 87.9438 159.011 84.7952C158.688 84.6409 158.067 84.345 157.116 84.345V84.3439Z" fill="#353535"/>
<path d="M62.2264 31.9759L74.6966 16.2342L88.1409 45.2995C88.1409 45.2995 103.523 26.7186 106.526 27.5498C109.528 28.3816 122.557 83.8844 122.557 83.8844L98.9499 54.1918C98.9499 54.1918 84.7284 71.5064 81.0189 69.9944C77.3094 68.4825 62.2264 31.9753 62.2264 31.9753V31.9759Z" fill="#FEFEFE"/>
<path d="M122.558 87.9503C121.951 87.9507 121.351 87.8136 120.804 87.5491C120.257 87.2846 119.776 86.8996 119.397 86.4227L98.8326 60.5579C97.3496 62.2406 95.8283 63.8887 94.2697 65.501C87.0275 72.9608 83.0245 75.2 79.4987 73.7636C77.7133 73.0358 75.6898 72.2104 66.5524 52.1088C62.3373 42.8355 58.529 33.6279 58.4909 33.5355C58.2136 32.8643 58.1203 32.1307 58.2208 31.411C58.3213 30.6913 58.6119 30.0119 59.0623 29.4434L71.5325 13.7017C71.9625 13.1604 72.5225 12.7382 73.1598 12.4749C73.7971 12.2116 74.4907 12.1158 75.175 12.1967C75.8594 12.2789 76.5116 12.5354 77.0697 12.942C77.6278 13.3487 78.0733 13.8919 78.3639 14.5201L89.1648 37.8704C90.5062 36.3403 91.8686 34.829 93.2516 33.3369C101.851 24.085 104.731 22.8374 107.6 23.6296C110.173 24.3429 111.399 26.5606 114.16 35.497C115.632 40.2629 117.456 46.8254 119.58 55.0015C123.183 68.867 126.46 82.8109 126.493 82.9503C126.633 83.5472 126.637 84.1682 126.505 84.7668C126.373 85.3654 126.107 85.9262 125.729 86.4071C125.35 86.888 124.868 87.2766 124.319 87.5437C123.77 87.8109 123.168 87.9502 122.558 87.9503ZM98.9494 50.1264H98.9817C99.5832 50.1312 100.176 50.2708 100.717 50.5351C101.258 50.7993 101.734 51.1816 102.109 51.654L114.292 66.9775C110.617 52.3017 106.99 39.0083 104.891 33.1487C101.537 36.1377 95.8344 42.3645 91.2501 47.9006C90.814 48.4274 90.2524 48.8349 89.6176 49.0851C88.9828 49.3354 88.2954 49.4202 87.6193 49.3318C86.9431 49.2433 86.3002 48.9845 85.7502 48.5793C85.2002 48.1741 84.7611 47.6357 84.4736 47.0142L73.7865 23.9108L66.8812 32.6276C72.4998 46.0569 79.2774 60.778 82.3074 65.4144C85.1421 63.4459 90.8757 57.6374 95.8309 51.6041C96.2105 51.1421 96.6869 50.7702 97.2261 50.5149C97.7653 50.2595 98.3539 50.1271 98.9499 50.127L98.9494 50.1264Z" fill="#353535"/>
<path d="M39.1055 137.387L32.0448 120.278L61.3244 122.334C61.3244 122.334 52.6065 102.22 55.2881 99.5406C57.9697 96.8618 107.573 111.647 107.573 111.647L73.2642 117.541C73.2642 117.541 80.7312 135.994 77.9421 139.1C75.153 142.206 39.1055 137.387 39.1055 137.387V137.387Z" fill="#FEFEFE"/>
<path d="M70.9258 144.215C67.6393 144.215 63.2017 143.989 57.1284 143.459C47.7842 142.645 38.6635 141.43 38.5722 141.417C37.8697 141.323 37.204 141.046 36.6419 140.612C36.0798 140.178 35.641 139.603 35.3694 138.945L28.3087 121.835C27.7719 120.534 27.9429 119.046 28.7617 117.903C29.5804 116.759 30.9307 116.13 32.3267 116.22L55.1361 117.823C54.5583 116.315 54.0057 114.797 53.4784 113.27C50.1849 103.691 49.903 99.1886 52.4372 96.6561C54.3388 94.7562 57.2411 94.6801 65.3812 96.314C69.9071 97.2225 75.9909 98.6839 83.463 100.656C96.1141 103.995 108.598 107.711 108.722 107.749C109.598 108.01 110.36 108.561 110.884 109.313C111.408 110.064 111.664 110.972 111.61 111.889C111.555 112.805 111.194 113.676 110.585 114.36C109.976 115.044 109.154 115.5 108.254 115.655L78.7811 120.717C79.4 122.454 79.9791 124.205 80.518 125.969C83.1839 134.752 83.3036 139.197 80.945 141.824C79.7472 143.158 78.0276 144.215 70.9258 144.215ZM41.9454 133.658C54.9536 135.315 69.5564 136.512 74.5198 135.971C74.2777 132.844 72.1837 125.66 69.5183 119.072C69.2901 118.509 69.1907 117.901 69.2273 117.294C69.2639 116.687 69.4356 116.095 69.7297 115.564C70.0239 115.032 70.433 114.573 70.9269 114.222C71.4209 113.87 71.987 113.635 72.5835 113.532L89.3537 110.652C76.2896 107.055 64.3989 104.139 59.0508 103.431C59.7984 107.132 62.1992 114.167 65.0328 120.71C65.5973 122.013 65.4442 123.518 64.6283 124.679C63.8125 125.84 62.45 126.482 61.0425 126.389L38.2862 124.79L41.9454 133.658Z" fill="#353535"/>
</svg>
