<svg width="310" height="141" viewBox="0 0 310 141" fill="none" xmlns="http://www.w3.org/2000/svg">
<path d="M66.8378 17.8564C69.2074 2.15875 235.081 46.6155 243.137 48.9802C251.194 51.3449 266.834 63.1687 263.392 82.3996C260.52 98.4538 237.924 187.081 235.555 195.12C233.185 203.161 222.944 213.653 201.762 208.643C180.58 203.633 35.2605 162.276 35.2605 162.276L66.8378 17.8564Z" fill="#241F20"/>
<path d="M212.145 212.951C208.645 212.951 204.935 212.495 201.064 211.58C180.057 206.611 40.3677 166.868 34.4312 165.179C33.6918 164.968 33.0604 164.484 32.6657 163.826C32.271 163.167 32.1426 162.383 32.3065 161.634L63.8674 17.2887C64.057 16.2003 64.6751 14.7076 66.5017 13.5456C69.4683 11.658 76.1252 9.97051 101.466 13.705C116.271 15.887 135.732 19.6849 159.309 24.9927C201.623 34.5187 241.103 45.2379 243.991 46.0857C252.614 48.6164 270.22 61.4075 266.369 82.9303C263.568 98.5831 240.995 187.359 238.456 195.972C236.828 201.495 232.712 206.397 227.163 209.424C222.864 211.768 217.78 212.95 212.145 212.951ZM38.8196 160.151C58.9049 165.86 183.185 201.149 202.459 205.708C222.252 210.389 230.753 200.72 232.654 194.269C235.181 185.696 257.634 97.4132 260.416 81.8695C262.113 72.3844 258.519 65.4149 255.206 61.2381C251.227 56.2221 245.849 52.9212 242.284 51.875C237.765 50.5483 196.5 39.5033 156.248 30.4911C132.474 25.1682 113.05 21.4289 98.5166 19.3771C75.1888 16.084 70.5528 18.0771 69.7667 18.6163L38.8196 160.151Z" fill="#241F20"/>
<path d="M118.83 12.2904C122.545 7.34547 283.311 -0.212408 287.714 4.51827C292.115 9.24894 297.534 101.839 295.163 106.232C292.793 110.625 128.563 119.411 124.162 115.018C119.76 110.625 113.499 19.387 118.83 12.2904Z" fill="white"/>
<path d="M141.792 119.233C124.108 119.233 123.05 118.176 122.023 117.151C121.153 116.283 119.698 114.831 117.719 98.4727C116.594 89.1696 115.567 77.228 114.827 64.8476C114.057 51.9582 113.682 39.827 113.771 30.6881C113.917 15.7831 115.187 12.1089 116.41 10.4804C117.391 9.17481 118.406 7.82435 141.341 5.72087C153.971 4.56267 171.441 3.37342 190.531 2.37211C213.769 1.15356 237.298 0.31648 255.082 0.0763898C287.305 -0.357669 288.698 1.14149 289.929 2.46522C290.814 3.4161 292.151 4.85319 294.072 21.4427C295.098 30.3062 296.136 42.3309 296.995 55.3027C297.799 67.4395 298.399 79.7483 298.641 89.073C299.064 105.367 298.319 106.748 297.826 107.662C296.989 109.213 295.578 109.895 288.873 110.877C271.869 113.368 228.906 116.131 196.183 117.643C176.749 118.542 159.78 119.082 147.109 119.206C145.189 119.224 143.419 119.233 141.793 119.233L141.792 119.233ZM126.27 112.59C131.835 113.671 161.377 113.458 209.742 110.934C256.612 108.487 286.313 105.691 292.526 104.113C293.023 99.118 292.562 79.8893 290.963 55.7268C289.051 26.8509 286.882 10.5899 285.554 6.8821C280.111 5.6851 250.393 5.59501 203.215 7.78772C155.82 9.99034 126.178 12.8257 121.093 14.4908C119.938 17.8103 119.007 32.9006 120.822 63.7756C122.331 89.4696 124.746 108.422 126.27 112.59V112.59Z" fill="#241F20"/>
<path d="M261.893 35.6739C261.295 35.6735 260.711 35.4964 260.214 35.1648C259.717 34.8332 259.329 34.362 259.1 33.8108C258.872 33.2596 258.812 32.6531 258.928 32.0679C259.045 31.4827 259.332 30.9451 259.755 30.523C260.16 30.1178 260.054 29.5553 259.99 29.3324C259.888 28.9799 259.507 28.1277 258.178 27.8272C257.79 27.7398 257.424 27.5771 257.1 27.3485C256.776 27.1198 256.5 26.8296 256.288 26.4945C256.076 26.1594 255.932 25.7859 255.865 25.3954C255.798 25.0049 255.809 24.605 255.896 24.2186C255.984 23.832 256.146 23.4663 256.376 23.1426C256.605 22.8189 256.895 22.5434 257.231 22.332C257.567 22.1205 257.941 21.9772 258.333 21.9102C258.724 21.8433 259.125 21.854 259.512 21.9418C262.615 22.6423 264.966 24.7789 265.799 27.6566C266.555 30.2648 265.894 32.9312 264.03 34.7903C263.75 35.0708 263.417 35.2933 263.05 35.4449C262.683 35.5966 262.29 35.6744 261.893 35.6739ZM272.155 34.3877C271.557 34.3876 270.973 34.2107 270.476 33.8791C269.979 33.5475 269.591 33.0762 269.362 32.5249C269.133 31.9736 269.074 31.3669 269.19 30.7816C269.307 30.1963 269.595 29.6587 270.018 29.2368C271.228 28.029 271.651 26.0083 271.047 24.322C270.624 23.1401 269.538 21.6741 266.772 21.4013C266.377 21.3623 265.993 21.246 265.643 21.0591C265.293 20.8721 264.983 20.6182 264.732 20.3118C264.48 20.0054 264.291 19.6525 264.176 19.2733C264.061 18.8941 264.022 18.496 264.061 18.1017C264.225 16.443 265.712 15.2309 267.367 15.396C271.848 15.8383 275.353 18.4155 276.741 22.2901C278.126 26.1544 277.143 30.6609 274.294 33.5041C274.014 33.7846 273.681 34.0071 273.314 34.1588C272.947 34.3104 272.553 34.3882 272.156 34.3877H272.155ZM253.669 86.4786C252.884 86.4771 252.131 86.1711 251.568 85.6253C251.005 85.0795 250.677 84.3367 250.653 83.5538C250.629 82.771 250.911 82.0094 251.439 81.4302C251.967 80.851 252.701 80.4995 253.484 80.45L278.854 78.8677C279.251 78.843 279.648 78.8964 280.023 79.0249C280.399 79.1534 280.746 79.3545 281.043 79.6167C281.341 79.8789 281.584 80.197 281.759 80.5529C281.933 80.9088 282.036 81.2955 282.061 81.691C282.085 82.0865 282.032 82.4829 281.903 82.8578C281.774 83.2326 281.573 83.5784 281.31 83.8755C281.047 84.1727 280.729 84.4152 280.372 84.5894C280.015 84.7635 279.628 84.8659 279.231 84.8906L253.861 86.473C253.797 86.4769 253.733 86.4789 253.67 86.479L253.669 86.4786ZM215.119 88.8523C214.333 88.8526 213.578 88.5474 213.014 88.0014C212.449 87.4554 212.12 86.7116 212.096 85.9275C212.072 85.1435 212.355 84.3809 212.885 83.8014C213.414 83.222 214.149 82.8711 214.934 82.8233L240.304 81.241C240.701 81.2163 241.098 81.2697 241.474 81.3982C241.849 81.5267 242.196 81.7278 242.493 81.99C242.791 82.2522 243.034 82.5703 243.209 82.9262C243.383 83.2821 243.486 83.6688 243.511 84.0643C243.535 84.4598 243.482 84.8563 243.353 85.2311C243.224 85.6059 243.023 85.9517 242.76 86.2489C242.497 86.546 242.179 86.7885 241.822 86.9627C241.465 87.1369 241.078 87.2392 240.681 87.2639L215.311 88.8463C215.247 88.8502 215.184 88.8522 215.12 88.8523H215.119ZM176.38 90.4347C175.595 90.4332 174.842 90.1272 174.279 89.5814C173.716 89.0356 173.388 88.2928 173.364 87.5099C173.34 86.727 173.622 85.9655 174.15 85.3863C174.678 84.8071 175.412 84.4556 176.195 84.4061L201.565 82.8238C203.221 82.7225 204.668 83.9837 204.771 85.6471C204.796 86.0426 204.743 86.439 204.614 86.8139C204.485 87.1887 204.284 87.5345 204.021 87.8316C203.758 88.1288 203.439 88.3713 203.083 88.5455C202.726 88.7197 202.339 88.822 201.942 88.8467L176.572 90.4291C176.508 90.433 176.444 90.435 176.381 90.4351L176.38 90.4347ZM136.083 92.017C135.298 92.0155 134.545 91.7095 133.982 91.1637C133.419 90.618 133.091 89.8751 133.067 89.0923C133.043 88.3094 133.324 87.5479 133.853 86.9687C134.381 86.3895 135.114 86.038 135.898 85.9885L161.268 84.4061C162.925 84.3061 164.371 85.5661 164.474 87.2295C164.499 87.6249 164.446 88.0214 164.317 88.3962C164.188 88.771 163.987 89.1169 163.724 89.414C163.461 89.7111 163.142 89.9537 162.786 90.1278C162.429 90.302 162.041 90.4044 161.645 90.4291L136.275 92.0114C136.211 92.0154 136.147 92.0174 136.083 92.0175L136.083 92.017Z" fill="#241F20"/>
<path d="M78.9824 34.0562C94.8939 33.0635 194.662 28.3523 215.514 17.8568C215.514 17.8568 228.268 113.038 227.794 123.916C227.32 134.794 102.204 141.888 87.5126 138.578C72.8209 135.267 78.982 34.0567 78.982 34.0567L78.9824 34.0562Z" fill="white"/>
<path d="M103.151 142.413C95.4736 142.413 89.6054 142.142 86.8475 141.52C81.4876 140.313 75.2652 132.809 74.7154 85.11C74.4212 59.5799 75.949 34.1273 75.9649 33.8735C76.0097 33.1387 76.322 32.4456 76.8432 31.9246C77.3643 31.4037 78.0583 31.0908 78.7945 31.045C80.2428 30.9549 82.3835 30.8333 85.0947 30.6803C158.524 26.5281 201.945 21.3073 214.154 15.1628C214.585 14.9463 215.061 14.8356 215.543 14.8401C216.025 14.8446 216.499 14.964 216.926 15.1886C217.353 15.4131 217.719 15.7362 217.995 16.1308C218.271 16.5255 218.448 16.9803 218.513 17.4573C219.035 21.3547 231.296 113.03 230.816 124.048C230.77 125.099 230.318 126.657 228.424 128.102C220.12 134.436 180.51 138.285 157.638 140.016C138.946 141.431 117.771 142.413 103.151 142.413L103.151 142.413ZM81.8526 36.9084C81.4755 44.0706 80.5248 64.5524 80.7624 85.0682C81.3231 133.533 87.8997 135.571 88.1796 135.634C94.1588 136.981 124.196 136.577 159.379 133.828C205.95 130.19 222.295 125.472 224.786 123.302C224.855 113.58 217.452 55.3044 213.038 22.1435C188.153 30.8954 111.577 35.2261 85.4368 36.7041C84.0969 36.78 82.8975 36.8476 81.8531 36.908L81.8526 36.9084Z" fill="#241F20"/>
<path d="M212.192 83.5221C211.475 83.5211 210.781 83.2659 210.235 82.802C209.689 82.338 209.326 81.6956 209.211 80.9893L203.823 47.9616C198.296 46.8594 191.929 42.568 188.384 37.4899L114.779 48.2043C114.386 48.2616 113.985 48.2412 113.6 48.144C113.215 48.0469 112.853 47.8749 112.535 47.6381C112.216 47.4012 111.948 47.1041 111.745 46.7636C111.541 46.4231 111.407 46.046 111.35 45.6538C111.234 44.862 111.439 44.0567 111.918 43.4151C112.397 42.7735 113.112 42.3482 113.905 42.2326L189.472 31.2325C190.086 31.143 190.712 31.2443 191.267 31.5226C191.821 31.8009 192.277 32.2427 192.571 32.7881C195.304 37.8571 202.481 42.2007 206.439 42.2007C207.156 42.2007 207.851 42.4555 208.397 42.9194C208.944 43.3834 209.308 44.0262 209.423 44.7331L215.179 80.019C215.25 80.4509 215.225 80.893 215.108 81.3146C214.99 81.7361 214.782 82.1271 214.497 82.4603C214.213 82.7935 213.86 83.061 213.461 83.2443C213.063 83.4276 212.63 83.5222 212.191 83.5216L212.192 83.5221Z" fill="#241F20"/>
<path d="M66.8378 17.8564C65.4159 37.1567 208.691 55.9716 226.044 59.645C243.397 63.3183 246.027 79.0612 240.768 95.3291C235.509 111.597 229.661 187.155 223.877 198.7C218.092 210.245 211.256 220.216 188.645 216.018C166.033 211.819 29.9745 176.459 30.1318 163.039C30.3499 144.405 66.8378 17.8564 66.8378 17.8564Z" fill="#60CDFF"/>
<path d="M191.153 217.582C188.115 217.582 184.742 217.26 180.975 216.561L178.143 216.037C163.916 213.407 126.125 206.422 92.2138 198.529C73.0459 194.069 57.9072 189.965 47.2177 186.334C32.021 181.171 25.8448 177.13 25.9001 172.384C26.1208 153.575 62.3807 22.6173 63.924 17.0516C64.1244 16.3301 64.5865 15.7087 65.2204 15.3083C65.8544 14.9078 66.6149 14.7568 67.3541 14.8848C68.0934 15.0127 68.7586 15.4103 69.2204 16.0004C69.6823 16.5904 69.9078 17.3308 69.8531 18.0775C69.7948 18.8681 70.7221 26.1289 120.524 37.5007C150.044 44.2413 185.792 49.9754 207.151 53.4018C216.669 54.9285 223.545 56.0316 226.671 56.6932C234.128 58.2717 239.574 61.942 242.857 67.6016C247.02 74.775 247.299 84.951 243.645 96.2555C241.46 103.015 237.834 120.194 233.995 138.381C228.572 164.072 222.964 190.638 219.463 197.626C214.344 207.842 207.859 217.582 191.153 217.582H191.153ZM31.9498 172.289C32.2737 172.877 34.7038 175.933 51.7141 181.468C62.4921 184.976 77.3929 188.927 96.0014 193.212C129.13 200.841 165.538 207.57 179.244 210.104L182.08 210.629C202.513 214.422 208.436 206.144 214.055 194.929C217.208 188.634 222.983 161.276 228.078 137.138C231.95 118.792 235.608 101.463 237.89 94.4033C241.012 84.7458 240.918 76.3013 237.625 70.6257C235.235 66.5071 231.128 63.8058 225.417 62.5967C222.438 61.9661 215.269 60.8161 206.192 59.3601C184.76 55.9221 148.889 50.1681 119.176 43.3835C102.684 39.6179 89.8079 35.9226 80.9041 32.401C75.0216 30.0743 70.7174 27.7647 67.899 25.3923C60.3471 52.9143 32.3247 156.054 31.9498 172.289Z" fill="#241F20"/>
<path d="M263.88 122.741C269.422 127.149 260.961 165.077 253.673 166.787C248.914 167.904 210.419 160.712 194.982 158.63C163.269 154.352 170.123 109.441 201.754 114.357C227.826 118.41 263.88 122.74 263.88 122.74V122.741Z" fill="#60CDFF"/>
<path d="M252.14 169.911C247.149 169.911 235.972 168.235 214.87 164.791C206.989 163.505 199.545 162.29 194.577 161.62C184.209 160.222 176.595 154.731 173.139 146.158C169.708 137.65 171.208 127.483 176.961 120.257C182.727 113.015 191.934 109.778 202.219 111.377C227.94 115.374 263.881 119.702 264.242 119.745C264.799 119.812 265.326 120.033 265.765 120.382C270.665 124.279 268.387 138.228 266.593 146.196C265.342 151.753 263.684 156.988 261.926 160.938C259.547 166.281 257.145 169.073 254.364 169.725C253.835 169.849 253.102 169.912 252.14 169.912L252.14 169.911ZM197.067 117.003C190.712 117.003 185.35 119.42 181.695 124.011C177.272 129.566 176.116 137.375 178.748 143.905C181.358 150.377 187.267 154.545 195.387 155.64C200.439 156.321 207.922 157.542 215.846 158.835C229.377 161.044 249.795 164.375 252.95 163.854C254.063 163.318 257.203 158.7 260.045 147.569C262.87 136.503 263.091 128.106 262.192 125.575C255.434 124.752 224.304 120.916 201.288 117.339C199.892 117.119 198.481 117.006 197.067 117.003Z" fill="#241F20"/>
<path d="M203.355 123.502C220.016 126.351 214.928 152.432 197.508 149.031C180.698 145.748 188.422 120.95 203.355 123.502Z" fill="#241F20"/>
<path d="M200.503 152.346C199.336 152.346 198.14 152.229 196.928 151.992C187.045 150.063 183.953 141.954 185.273 134.774C186.8 126.471 194.171 118.872 203.866 120.529C209.507 121.493 213.787 124.938 215.609 129.982C217.625 135.561 216.329 142.394 212.384 146.983C209.381 150.478 205.174 152.345 200.503 152.346ZM201.275 126.341C196.043 126.341 192.128 130.924 191.22 135.862C190.852 137.87 190.256 144.54 198.088 146.07C203.124 147.052 206.145 144.973 207.794 143.054C210.327 140.107 211.202 135.574 209.921 132.028C209.157 129.917 207.31 127.24 202.845 126.476C202.326 126.387 201.801 126.342 201.275 126.341Z" fill="#241F20"/>
<path d="M19.3174 71.5096L59.0449 132.411C59.0449 132.411 51.6501 137.855 46.3505 141.411C31.0036 151.708 -10.7167 92.4225 7.59054 79.1925C12.3047 75.7855 19.3174 71.5096 19.3174 71.5096Z" fill="white"/>
<path d="M42.2526 145.643C39.1716 145.643 35.2177 144.449 30.2555 140.924C24.6119 136.915 18.5646 130.503 13.2272 122.867C1.3255 105.839 -5.58358 84.972 5.81069 76.7375C10.5665 73.3006 17.4448 69.1004 17.7354 68.9233C18.4095 68.5123 19.2177 68.3797 19.9882 68.5538C20.7587 68.7279 21.4308 69.195 21.8619 69.8558L61.5894 130.758C62.0118 131.406 62.1703 132.19 62.0323 132.951C61.8944 133.712 61.4705 134.391 60.8473 134.85C60.5433 135.074 53.338 140.375 48.044 143.927C46.6289 144.876 44.7211 145.643 42.2526 145.643V145.643ZM18.3967 75.6517C15.9572 77.1868 12.2106 79.5947 9.37083 81.6472C1.79691 87.121 8.27056 105.183 18.2068 119.399C27.9782 133.379 39.8413 142.125 44.6574 138.896C48.0384 136.628 52.3341 133.544 54.9314 131.659L18.3967 75.6517Z" fill="#241F20"/>
<path d="M19.3174 71.5096C1.8186 80.9515 39.022 145.365 59.0449 132.411C75.8299 121.553 34.9571 63.0707 19.3174 71.5096Z" fill="white"/>
<path d="M53.2144 137.156C50.5598 137.156 47.4317 136.436 43.8303 134.479C28.5038 126.147 11.7032 98.2946 11.7297 81.2615C11.7414 73.7317 15.0777 70.3528 17.8741 68.8437C29.9085 62.3491 48.3016 83.336 57.0678 98.0907C67.6046 115.827 68.9612 129.607 60.696 134.954C58.8823 136.127 56.3869 137.156 53.2144 137.156V137.156ZM22.77 73.7174C22.0054 73.7174 21.3311 73.8681 20.7608 74.1755C18.8027 75.2322 17.8069 77.6193 17.8013 81.271C17.7783 95.9845 33.4617 121.941 46.7343 129.156C50.9753 131.462 54.5606 131.701 57.3943 129.868C62.2824 126.706 60.0008 114.91 51.8453 101.183C46.857 92.7861 40.4957 84.9832 34.392 79.774C29.7927 75.8483 25.6462 73.7179 22.77 73.7179V73.7174Z" fill="#241F20"/>
<path d="M221.847 268.036L290.691 216.486C290.691 216.486 297.173 225.216 302.322 230.725C325.535 255.555 255.178 311.429 231.846 281.239C227.643 275.802 221.847 268.036 221.847 268.036Z" fill="white"/>
<path d="M250.686 293C241.767 293 234.503 289.635 229.444 283.088C225.274 277.693 219.473 269.922 219.415 269.844C218.936 269.202 218.731 268.396 218.845 267.603C218.96 266.811 219.385 266.096 220.027 265.615L288.871 214.065C289.191 213.826 289.555 213.652 289.942 213.553C290.33 213.455 290.733 213.433 291.128 213.491C291.524 213.549 291.904 213.684 292.247 213.888C292.59 214.093 292.89 214.364 293.128 214.684C293.191 214.77 299.568 223.343 304.54 228.66C310.108 234.616 311.449 242.468 308.418 251.367C302.153 269.763 278.264 288.952 257.293 292.431C255.003 292.811 252.798 293 250.686 293ZM226.089 268.644C228.137 271.373 231.541 275.89 234.247 279.391C240.32 287.249 249.59 287.573 256.299 286.459C275.027 283.352 297.132 265.698 302.675 249.419C304.975 242.668 304.11 237.073 300.105 232.789C296.535 228.971 292.418 223.744 290.094 220.717L226.089 268.644Z" fill="#241F20"/>
<path d="M221.847 268.036C245.167 298.57 318.506 244.914 290.691 216.486C265.885 191.133 200.422 239.984 221.847 268.036Z" fill="white"/>
<path d="M241.822 280.168C232.391 280.168 224.593 276.625 219.435 269.871C214.206 263.025 213.167 254.618 216.429 245.56C219.179 237.926 225.044 229.97 232.946 223.158C250.962 207.626 278.083 199.268 292.861 214.372C299.707 221.369 301.638 230.248 298.445 240.05C292.634 257.887 269.945 275.975 248.9 279.548C246.456 279.963 244.091 280.168 241.822 280.168L241.822 280.168ZM272.478 212.441C269.744 212.441 267.11 212.796 264.783 213.283C255.466 215.232 245.306 220.501 236.911 227.739C225.221 237.818 214.893 253.938 224.259 266.201C230.622 274.534 240.618 274.812 247.882 273.579C266.638 270.395 287.57 253.852 292.677 238.177C295.163 230.546 293.765 223.96 288.521 218.6C283.906 213.884 277.989 212.44 272.478 212.44L272.478 212.441Z" fill="#241F20"/>
</svg>
