<svg width="309" height="161" viewBox="0 0 309 161" fill="none" xmlns="http://www.w3.org/2000/svg">
<path d="M126.24 36.3859C126.24 78.2296 193.159 78.2296 190.152 36.3859C186.99 -7.60148 126.24 -4.89609 126.24 36.3859Z" fill="white"/>
<path d="M159.325 72.1987C152.542 72.1987 145.696 70.5687 139.682 67.2866C128.175 61.0055 121.838 50.0317 121.838 36.3853C121.838 25.6449 125.548 16.4383 132.569 9.76219C138.83 3.8087 147.282 0.350556 156.368 0.0248022C173.446 -0.596519 192.7 10.4294 194.543 36.0703C195.476 49.0557 190.42 59.788 180.306 66.2899C174.195 70.219 166.799 72.1987 159.325 72.1987ZM130.643 36.3853C130.643 46.6623 135.351 54.8916 143.901 59.5585C153.644 64.8762 166.655 64.5995 175.545 58.8837C180.695 55.5727 186.647 49.0369 185.761 36.701C184.328 16.7741 170.129 8.34535 156.685 8.82266C138.793 9.46474 130.644 23.5614 130.643 36.3853Z" fill="#353535"/>
<path d="M227.399 45.8058C253.719 52.2907 267.095 96.003 299.634 96.003L304.796 134.146C304.796 134.146 281.514 155.722 276.099 168.667C270.685 181.613 239.165 225.79 171.483 225.79C84.8513 225.79 50.3563 176.904 50.3557 127.403C50.3557 78.1927 80.6355 56.0772 106.083 46.9076C131.531 37.738 195.514 37.9492 227.399 45.8058Z" fill="#60CDFF"/>
<path d="M173.765 219.927C131.691 219.927 99.1182 211.005 76.9541 193.408C56.804 177.411 46.1531 154.586 46.1531 127.402C46.1531 72.2802 82.8056 50.8425 104.654 42.9698C131.425 33.3228 208.76 31.3476 240.143 42.4212C253.528 47.1439 263.188 56.2943 271.711 64.3674C280.716 72.8981 288.494 80.266 298.991 82.0085C299.877 82.1557 300.692 82.5818 301.317 83.2244C301.943 83.8669 302.345 84.6922 302.465 85.5791L308.962 133.586C309.052 134.25 308.981 134.926 308.754 135.557C308.527 136.187 308.152 136.755 307.66 137.211C301.368 143.044 284.13 160.355 279.979 170.278C274.203 184.088 243.863 219.927 173.765 219.927ZM175.534 43.2695C148.284 43.2695 120.821 46.0498 107.514 50.8449C97.3757 54.498 82.9677 61.6242 71.9031 74.8237C60.3941 88.5544 54.5595 106.244 54.5595 127.402C54.5595 180.881 98.0086 211.553 173.765 211.553C201.928 211.553 226.931 205.309 246.069 193.498C265.84 181.296 271.625 168.478 272.22 167.056C277.124 155.331 294.865 137.817 300.343 132.58L294.529 89.6222C283.104 86.7162 274.736 78.7885 265.917 70.4354C257.617 62.5729 249.033 54.4417 237.336 50.3149C223.524 45.4421 199.612 43.2695 175.534 43.2695Z" fill="#353535"/>
<path d="M239.444 59.1136C239.444 51.1446 236.445 13.8902 230.945 11.8474C225.445 9.80461 193.323 34.2099 193.135 56.1256" fill="#60CDFF"/>
<path d="M239.444 63.3009C238.33 63.3009 237.261 62.8597 236.472 62.0744C235.684 61.2892 235.241 60.2241 235.241 59.1136C235.241 55.5454 234.579 45.4127 233.335 35.6683C231.693 22.7996 230.012 17.8963 229.205 16.1651C226.182 17.2538 219.001 21.7964 211.733 29.2534C202.651 38.5731 197.405 48.3803 197.338 56.1603C197.328 57.2644 196.882 58.3201 196.095 59.0976C195.308 59.8751 194.244 60.3115 193.136 60.3117H193.099C192.547 60.307 192.002 60.1941 191.494 59.9793C190.985 59.7645 190.525 59.4521 190.138 59.06C189.751 58.6678 189.445 58.2035 189.238 57.6937C189.031 57.1839 188.927 56.6384 188.932 56.0886C189.091 37.5945 208.177 19.6531 218.248 12.7507C227.795 6.20713 231.15 7.45255 232.414 7.92332C235.287 8.99048 238.589 11.8731 241.422 32.6947C242.874 43.3675 243.648 54.8946 243.648 59.113C243.648 60.2236 243.205 61.2887 242.417 62.0741C241.628 62.8594 240.559 63.3007 239.444 63.3009Z" fill="#353535"/>
<path d="M253.718 84.8158C256.081 84.8158 257.997 82.9076 257.997 80.5537C257.997 78.1998 256.081 76.2916 253.718 76.2916C251.356 76.2916 249.44 78.1998 249.44 80.5537C249.44 82.9076 251.356 84.8158 253.718 84.8158Z" fill="#353535"/>
<path d="M260.197 170.613C268.395 184.647 278.415 204.463 284.268 213.501C287.972 219.22 262.048 231.948 248.944 222.264C238.766 214.742 226.161 199.205 222.81 185.37" fill="#60CDFF"/>
<path d="M260.998 230C255.827 230 250.699 228.774 246.44 225.627C235.692 217.683 222.325 201.219 218.724 186.352C218.595 185.818 218.572 185.263 218.658 184.72C218.744 184.176 218.936 183.655 219.224 183.186C219.512 182.717 219.89 182.309 220.336 181.985C220.782 181.661 221.288 181.428 221.825 181.299C222.361 181.17 222.918 181.148 223.463 181.233C224.009 181.318 224.532 181.51 225.003 181.797C225.474 182.084 225.884 182.46 226.208 182.905C226.533 183.349 226.767 183.853 226.897 184.388C229.919 196.867 241.754 211.736 251.449 218.901C257.079 223.061 265.552 221.408 268.935 220.505C275.098 218.858 278.904 216.174 280.116 214.797C276.807 209.536 272.441 201.496 267.836 193.014C264.046 186.035 260.128 178.819 256.565 172.718C256.287 172.243 256.106 171.718 256.032 171.173C255.958 170.628 255.993 170.074 256.134 169.542C256.275 169.011 256.52 168.512 256.854 168.075C257.189 167.637 257.607 167.27 258.084 166.993C258.561 166.717 259.088 166.536 259.635 166.463C260.182 166.389 260.738 166.424 261.272 166.564C261.806 166.705 262.306 166.949 262.745 167.282C263.184 167.615 263.553 168.031 263.831 168.507C267.46 174.719 271.41 181.994 275.23 189.03C280.05 197.908 284.604 206.293 287.802 211.231C288.549 212.385 290.583 216.529 285.373 221.391C280.97 225.499 270.905 229.999 260.998 230Z" fill="#353535"/>
<path d="M106.784 190.565C96.6461 203.933 87.9197 215.594 81.6191 224.747C77.6333 230.538 55.1377 211.036 59.1644 194.751C62.2916 182.103 67.2514 172.489 77.8878 160.698" fill="#60CDFF"/>
<path d="M79.3884 229.974C78.05 229.974 76.4557 229.656 74.5763 228.817C65.9676 224.973 51.284 209.113 55.0831 193.75C58.5237 179.836 64.0407 169.784 74.7613 157.899C75.5127 157.097 76.5498 156.621 77.6497 156.573C78.7496 156.525 79.8245 156.909 80.6434 157.642C81.4624 158.375 81.9599 159.399 82.0292 160.494C82.0984 161.588 81.7339 162.666 81.0138 163.496C71.3056 174.259 66.3236 183.303 63.2451 195.753C61.4756 202.91 66.5974 210.411 68.8816 213.303C72.9527 218.459 77.022 220.931 78.7723 221.481C84.9282 212.598 93.1082 201.651 103.43 188.041C103.763 187.602 104.179 187.233 104.655 186.955C105.131 186.676 105.657 186.494 106.204 186.418C106.751 186.342 107.307 186.374 107.841 186.513C108.376 186.651 108.877 186.893 109.318 187.224C109.758 187.556 110.128 187.971 110.408 188.445C110.688 188.919 110.871 189.443 110.947 189.988C111.023 190.533 110.991 191.087 110.852 191.619C110.713 192.151 110.47 192.651 110.137 193.09C99.5349 207.07 91.2174 218.206 85.0849 227.116C84.5205 227.937 82.772 229.974 79.3884 229.974ZM17.7719 119.385L17.6014 119.385C9.70175 119.298 3.62452 113.253 3.4648 105.326C3.28347 96.3518 10.5868 89.17 21.6382 87.455C21.7829 87.4322 21.9271 87.4113 22.073 87.391C21.1525 85.9781 20.0554 84.753 18.8011 83.7642C15.256 80.9706 10.582 80.2809 5.28299 81.768C4.21595 82.0504 3.08025 81.9032 2.12122 81.3583C1.16219 80.8135 0.456818 79.9146 0.157476 78.856C-0.141865 77.7973 -0.011143 76.6638 0.521403 75.7004C1.05395 74.7369 1.94557 74.0209 3.00365 73.7069C10.8895 71.493 18.3525 72.733 24.016 77.1961C27.2837 79.7713 29.8309 83.3137 31.5079 87.4556C41.7553 89.0144 51.8959 95.5197 55.803 108.616C55.9604 109.143 56.0119 109.696 55.9548 110.243C55.8977 110.79 55.733 111.32 55.4701 111.804C55.2072 112.287 54.8512 112.714 54.4226 113.061C53.994 113.407 53.501 113.666 52.9719 113.823C52.4428 113.98 51.8878 114.031 51.3387 113.975C50.7896 113.918 50.2572 113.754 49.7718 113.492C49.2864 113.23 48.8575 112.875 48.5097 112.448C48.1619 112.021 47.9021 111.53 47.7449 111.003C45.3743 103.058 39.8033 98.4735 33.669 96.5444C33.8113 98.1057 33.8509 99.7046 33.7819 101.329C33.5459 106.889 31.7427 111.549 28.5681 114.805C25.6829 117.762 21.8544 119.385 17.7719 119.385ZM25.0758 95.4994C24.3579 95.5429 23.6424 95.6198 22.9316 95.7297C17.7569 96.5324 11.7547 99.4833 11.8694 105.157C11.9499 109.157 14.8531 110.979 17.695 111.011H17.7653C21.0996 111.011 25.0686 108.389 25.3833 100.973C25.465 99.143 25.362 97.3092 25.0758 95.4994Z" fill="#353535"/>
</svg>
