<svg width="604" height="165" viewBox="0 0 604 165" fill="none" xmlns="http://www.w3.org/2000/svg">
<path d="M264.503 48.4091C264.503 104.079 353.295 104.079 349.305 48.4091C345.11 -10.1133 264.503 -6.51392 264.503 48.4091Z" fill="white"/>
<path d="M308.402 96.0557C299.403 96.0557 290.318 93.887 282.339 89.5205C267.07 81.1638 258.661 66.564 258.661 48.4083C258.661 34.1188 263.585 21.87 272.901 12.988C281.208 5.06723 292.423 0.466392 304.479 0.0329977C327.138 -0.79363 352.686 13.8757 355.132 47.9891C356.369 65.2655 349.661 79.544 336.241 88.1944C328.133 93.4219 318.319 96.0557 308.402 96.0557ZM270.345 48.4083C270.345 62.0811 276.592 73.0297 287.937 79.2387C300.864 86.3135 318.129 85.9454 329.924 78.3409C336.757 73.9359 344.655 65.2404 343.478 48.8283C341.578 22.3168 322.737 11.1029 304.899 11.738C281.16 12.5922 270.347 31.347 270.345 48.4083Z" fill="#231F20"/>
<path d="M398.726 60.9416C433.65 69.5693 451.398 127.726 494.573 127.726L501.422 178.472C501.422 178.472 470.53 207.177 463.345 224.401C456.161 241.625 414.339 300.399 324.535 300.399C209.586 300.399 163.816 235.359 163.815 169.501C163.815 104.03 203.992 74.607 237.758 62.4075C271.524 50.208 356.42 50.4889 398.726 60.9416Z" fill="#60CDFF"/>
<path d="M327.562 292.599C271.735 292.599 228.516 280.729 199.107 257.317C172.371 236.033 158.239 205.667 158.239 169.501C158.239 96.1641 206.871 67.6426 235.862 57.1685C271.382 44.3339 373.995 41.706 415.636 56.4387C433.397 62.7219 446.213 74.8959 457.522 85.6367C469.471 96.9862 479.791 106.789 493.719 109.107C494.895 109.303 495.977 109.87 496.806 110.725C497.636 111.579 498.169 112.677 498.329 113.857L506.95 177.727C507.069 178.611 506.974 179.51 506.674 180.349C506.373 181.188 505.875 181.943 505.222 182.551C496.874 190.311 474.001 213.342 468.494 226.544C460.829 244.916 420.572 292.599 327.562 292.599ZM329.909 57.5672C293.753 57.5672 257.312 61.2663 239.656 67.6458C226.204 72.506 207.087 81.9869 192.405 99.548C177.135 117.816 169.393 141.351 169.393 169.501C169.393 240.651 227.044 281.457 327.562 281.457C364.931 281.457 398.106 273.151 423.5 257.437C449.733 241.203 457.409 224.149 458.198 222.257C464.705 206.658 488.245 183.356 495.514 176.389L487.799 119.236C472.64 115.37 461.536 104.823 449.835 93.7097C438.821 83.2491 427.432 72.4312 411.912 66.9407C393.586 60.4577 361.858 57.5672 329.909 57.5672Z" fill="#231F20"/>
<path d="M414.709 78.6468C414.709 68.0445 410.729 18.48 403.432 15.7622C396.135 13.0444 353.512 45.5141 353.264 74.6715" fill="#60CDFF"/>
<path d="M414.709 84.2177C413.23 84.2177 411.812 83.6307 410.766 82.586C409.72 81.5412 409.132 80.1243 409.132 78.6468C409.132 73.8995 408.254 60.4187 406.604 47.4544C404.424 30.3333 402.194 23.8098 401.124 21.5066C397.111 22.9551 387.583 28.9987 377.941 38.9197C365.89 51.319 358.928 64.3669 358.84 74.7177C358.827 76.1866 358.234 77.5911 357.19 78.6255C356.146 79.6599 354.735 80.2405 353.265 80.2408H353.216C352.484 80.2346 351.76 80.0843 351.085 79.7985C350.411 79.5128 349.8 79.0972 349.286 78.5754C348.773 78.0537 348.367 77.436 348.093 76.7577C347.818 76.0794 347.68 75.3537 347.687 74.6222C347.897 50.017 373.222 26.1472 386.585 16.9639C399.252 8.25818 403.704 9.91513 405.381 10.5415C409.193 11.9612 413.575 15.7964 417.334 43.4982C419.26 57.6977 420.287 73.0337 420.287 78.646C420.287 80.1236 419.699 81.5407 418.653 82.5855C417.607 83.6304 416.189 84.2175 414.709 84.2177Z" fill="#231F20"/>
<path d="M433.649 112.842C436.784 112.842 439.326 110.303 439.326 107.171C439.326 104.04 436.784 101.501 433.649 101.501C430.514 101.501 427.972 104.04 427.972 107.171C427.972 110.303 430.514 112.842 433.649 112.842Z" fill="#231F20"/>
<path d="M442.245 226.989C453.123 245.661 466.418 272.025 474.185 284.05C479.099 291.658 444.701 308.592 427.314 295.707C413.81 285.7 397.084 265.03 392.638 246.623" fill="#60CDFF"/>
<path d="M443.308 306C436.446 306 429.643 304.369 423.992 300.182C409.731 289.614 391.995 267.709 387.217 247.93C387.045 247.218 387.015 246.48 387.129 245.758C387.243 245.035 387.498 244.341 387.88 243.717C388.262 243.093 388.763 242.55 389.355 242.119C389.947 241.689 390.618 241.379 391.33 241.207C392.042 241.035 392.781 241.005 393.505 241.119C394.228 241.232 394.922 241.487 395.547 241.869C396.172 242.25 396.716 242.751 397.147 243.343C397.578 243.934 397.889 244.605 398.06 245.316C402.071 261.919 417.774 281.7 430.638 291.233C438.108 296.768 449.351 294.569 453.839 293.368C462.016 291.177 467.067 287.605 468.675 285.774C464.285 278.774 458.492 268.077 452.381 256.792C447.353 247.507 442.154 237.907 437.426 229.791C437.057 229.158 436.817 228.46 436.719 227.735C436.621 227.01 436.667 226.272 436.854 225.565C437.041 224.858 437.366 224.194 437.81 223.612C438.254 223.03 438.808 222.541 439.441 222.174C440.074 221.806 440.774 221.566 441.499 221.468C442.225 221.37 442.963 221.416 443.671 221.603C444.38 221.79 445.044 222.114 445.626 222.558C446.209 223.001 446.698 223.555 447.067 224.187C451.882 232.453 457.123 242.131 462.192 251.492C468.588 263.304 474.629 274.46 478.873 281.03C479.865 282.565 482.563 288.078 475.65 294.546C469.808 300.011 456.453 305.999 443.308 306Z" fill="#231F20"/>
<path d="M238.688 253.535C225.236 271.32 213.657 286.834 205.297 299.012C200.009 306.716 170.16 280.77 175.503 259.104C179.652 242.276 186.233 229.486 200.346 213.798" fill="#60CDFF"/>
<path d="M202.337 305.966C200.561 305.966 198.446 305.542 195.952 304.426C184.53 299.312 165.047 278.211 170.088 257.772C174.653 239.26 181.973 225.886 196.198 210.074C197.195 209.008 198.571 208.375 200.03 208.311C201.49 208.247 202.916 208.757 204.003 209.733C205.089 210.708 205.749 212.07 205.841 213.527C205.933 214.983 205.449 216.417 204.494 217.521C191.613 231.84 185.002 243.872 180.917 260.436C178.57 269.959 185.366 279.938 188.396 283.786C193.798 290.645 199.197 293.934 201.52 294.666C209.688 282.847 220.542 268.283 234.237 250.176C234.679 249.592 235.231 249.101 235.863 248.731C236.494 248.36 237.193 248.118 237.918 248.017C238.643 247.916 239.382 247.959 240.09 248.143C240.799 248.327 241.465 248.649 242.049 249.09C242.634 249.531 243.125 250.083 243.496 250.713C243.867 251.344 244.11 252.042 244.211 252.767C244.312 253.491 244.269 254.228 244.085 254.937C243.9 255.645 243.578 256.309 243.137 256.893C229.069 275.493 218.033 290.309 209.896 302.162C209.147 303.256 206.827 305.966 202.337 305.966ZM120.581 158.835L120.355 158.834C109.873 158.718 101.809 150.676 101.597 140.129C101.357 128.19 111.047 118.635 125.711 116.353C125.903 116.323 126.094 116.295 126.288 116.268C125.066 114.388 123.611 112.758 121.946 111.443C117.243 107.726 111.041 106.809 104.01 108.787C102.594 109.163 101.087 108.967 99.8146 108.242C98.5421 107.517 97.6061 106.321 97.2089 104.913C96.8118 103.504 96.9852 101.996 97.6918 100.714C98.3984 99.4326 99.5815 98.48 100.985 98.0622C111.449 95.1168 121.351 96.7666 128.866 102.704C133.202 106.13 136.581 110.843 138.807 116.354C152.404 118.428 165.859 127.083 171.043 144.506C171.252 145.207 171.32 145.943 171.244 146.671C171.168 147.398 170.95 148.104 170.601 148.747C170.252 149.391 169.78 149.959 169.211 150.42C168.642 150.881 167.988 151.226 167.286 151.434C166.584 151.643 165.848 151.711 165.119 151.636C164.391 151.56 163.684 151.342 163.04 150.993C162.396 150.645 161.827 150.173 161.366 149.605C160.904 149.036 160.559 148.383 160.351 147.682C157.205 137.112 149.813 131.013 141.674 128.446C141.863 130.523 141.915 132.65 141.824 134.811C141.511 142.209 139.118 148.408 134.906 152.74C131.078 156.675 125.998 158.835 120.581 158.835ZM130.272 127.056C129.32 127.114 128.37 127.216 127.427 127.362C120.561 128.43 112.597 132.356 112.749 139.905C112.856 145.226 116.708 147.651 120.479 147.693H120.572C124.996 147.693 130.263 144.205 130.68 134.338C130.788 131.903 130.652 129.464 130.272 127.056Z" fill="#231F20"/>
</svg>
