<svg width="604" height="165" viewBox="0 0 604 165" fill="none" xmlns="http://www.w3.org/2000/svg">
<path d="M185.398 23.5851C188.532 2.85132 407.913 61.5706 418.569 64.6939C429.225 67.8173 449.909 83.4345 445.358 108.835C441.558 130.04 411.674 247.1 408.54 257.719C405.406 268.338 391.862 282.197 363.846 275.58C335.831 268.963 143.635 214.338 143.635 214.338L185.398 23.5851Z" fill="#241F20"/>
<path d="M377.578 281.269C372.95 281.269 368.043 280.668 362.924 279.459C335.14 272.896 150.39 220.402 142.538 218.171C141.56 217.893 140.725 217.254 140.203 216.384C139.681 215.514 139.511 214.479 139.728 213.489L181.47 22.8353C181.721 21.3977 182.538 19.4261 184.954 17.8912C188.877 15.3982 197.682 13.1692 231.197 18.1019C250.777 20.9838 276.517 26.0002 307.699 33.0109C363.662 45.593 415.878 59.751 419.698 60.8709C431.102 64.2134 454.388 81.1082 449.294 109.536C445.59 130.21 415.735 247.467 412.377 258.844C410.224 266.138 404.78 272.613 397.441 276.611C391.755 279.708 385.032 281.269 377.578 281.269ZM148.342 211.531C174.907 219.072 339.277 265.682 364.768 271.703C390.946 277.886 402.19 265.115 404.704 256.595C408.046 245.271 437.742 128.665 441.421 108.135C443.666 95.6067 438.913 86.4013 434.531 80.8845C429.267 74.2592 422.155 69.8993 417.441 68.5175C411.463 66.7651 356.887 52.1767 303.651 40.2732C272.207 33.2426 246.517 28.3037 227.296 25.5937C196.443 21.244 190.312 23.8766 189.272 24.5888L148.342 211.531Z" fill="#241F20"/>
<path d="M254.162 16.2334C259.076 9.70203 471.702 -0.280553 477.525 5.96782C483.346 12.2162 490.512 134.511 487.377 140.313C484.242 146.116 267.036 157.72 261.214 151.918C255.392 146.116 247.111 25.6068 254.162 16.2334Z" fill="white"/>
<path d="M284.532 157.485C261.142 157.485 259.744 156.089 258.385 154.735C257.235 153.589 255.31 151.671 252.693 130.065C251.205 117.777 249.846 102.004 248.868 85.652C247.849 68.6274 247.353 52.6043 247.471 40.5334C247.664 20.8466 249.344 15.9937 250.962 13.8428C252.259 12.1183 253.601 10.3346 283.935 7.55624C300.64 6.02646 323.744 4.45568 348.992 3.13313C379.727 1.52365 410.845 0.418012 434.367 0.100897C476.985 -0.472416 478.826 1.5077 480.455 3.25611C481.625 4.51205 483.394 6.41018 485.934 28.3219C487.291 40.029 488.664 55.9115 489.8 73.0448C490.863 89.0754 491.656 105.333 491.977 117.649C492.536 139.17 491.551 140.995 490.898 142.202C489.792 144.251 487.926 145.151 479.058 146.449C456.569 149.738 399.746 153.388 356.468 155.385C330.765 156.572 308.322 157.285 291.564 157.449C289.024 157.474 286.684 157.486 284.532 157.486L284.532 157.485ZM264.002 148.711C271.362 150.139 310.435 149.857 374.4 146.523C436.391 143.292 475.672 139.599 483.889 137.515C484.547 130.917 483.937 105.519 481.822 73.605C479.293 35.4652 476.425 13.9874 474.668 9.09001C467.47 7.50899 428.165 7.39 365.768 10.2862C303.085 13.1954 263.881 16.9405 257.155 19.1398C255.628 23.5242 254.396 43.4557 256.796 84.2361C258.793 118.173 261.986 143.206 264.002 148.711V148.711Z" fill="#241F20"/>
<path d="M443.374 47.1188C442.584 47.1183 441.811 46.8843 441.154 46.4463C440.496 46.0083 439.984 45.386 439.681 44.6579C439.379 43.9299 439.299 43.1288 439.453 42.3559C439.607 41.583 439.988 40.8729 440.547 40.3153C441.083 39.7802 440.942 39.0372 440.857 38.7429C440.722 38.2771 440.219 37.1516 438.461 36.7548C437.949 36.6393 437.464 36.4244 437.035 36.1224C436.607 35.8203 436.242 35.4371 435.961 34.9944C435.681 34.5518 435.491 34.0585 435.402 33.5428C435.314 33.027 435.327 32.4988 435.443 31.9884C435.559 31.4777 435.774 30.9948 436.077 30.5672C436.38 30.1396 436.765 29.7758 437.209 29.4965C437.653 29.2172 438.148 29.0279 438.666 28.9395C439.184 28.851 439.714 28.8652 440.226 28.9812C444.33 29.9063 447.438 32.7285 448.541 36.5293C449.54 39.9743 448.666 43.4962 446.202 45.9517C445.831 46.3222 445.39 46.616 444.905 46.8163C444.42 47.0166 443.899 47.1194 443.374 47.1188ZM456.948 45.4199C456.157 45.4199 455.384 45.1861 454.726 44.7481C454.068 44.3102 453.556 43.6877 453.253 42.9595C452.951 42.2313 452.872 41.43 453.026 40.6569C453.18 39.8839 453.561 39.1738 454.12 38.6165C455.721 37.0212 456.28 34.3522 455.482 32.125C454.922 30.5639 453.486 28.6276 449.827 28.2672C449.305 28.2157 448.797 28.0621 448.335 27.8152C447.871 27.5683 447.462 27.2329 447.129 26.8282C446.796 26.4235 446.546 25.9574 446.394 25.4565C446.242 24.9557 446.19 24.4298 446.242 23.909C446.459 21.7183 448.426 20.1173 450.615 20.3354C456.541 20.9195 461.176 24.3235 463.012 29.4412C464.844 34.5452 463.543 40.4975 459.776 44.2528C459.406 44.6234 458.965 44.9173 458.479 45.1176C457.994 45.3179 457.474 45.4206 456.949 45.4199H456.948ZM432.498 114.223C431.46 114.221 430.463 113.816 429.719 113.096C428.974 112.375 428.54 111.393 428.509 110.359C428.477 109.325 428.85 108.32 429.548 107.555C430.247 106.79 431.217 106.325 432.253 106.26L465.807 104.17C466.331 104.137 466.857 104.208 467.354 104.378C467.85 104.547 468.309 104.813 468.703 105.159C469.096 105.506 469.418 105.926 469.649 106.396C469.879 106.866 470.015 107.377 470.048 107.899C470.081 108.421 470.01 108.945 469.839 109.44C469.669 109.935 469.403 110.392 469.055 110.784C468.708 111.177 468.286 111.497 467.814 111.727C467.343 111.957 466.83 112.093 466.306 112.125L432.752 114.215C432.667 114.22 432.583 114.223 432.499 114.223L432.498 114.223ZM381.513 117.358C380.473 117.358 379.474 116.955 378.728 116.234C377.981 115.513 377.546 114.53 377.514 113.495C377.482 112.459 377.856 111.452 378.557 110.687C379.258 109.921 380.23 109.458 381.267 109.395L414.822 107.305C415.346 107.272 415.871 107.343 416.368 107.512C416.865 107.682 417.323 107.948 417.717 108.294C418.111 108.64 418.432 109.06 418.663 109.531C418.894 110.001 419.03 110.511 419.062 111.034C419.095 111.556 419.024 112.08 418.854 112.575C418.684 113.07 418.417 113.527 418.07 113.919C417.722 114.312 417.301 114.632 416.829 114.862C416.357 115.092 415.845 115.227 415.321 115.26L381.766 117.35C381.682 117.355 381.598 117.358 381.513 117.358H381.513ZM330.277 119.448C329.239 119.446 328.242 119.042 327.498 118.321C326.753 117.6 326.319 116.619 326.288 115.585C326.256 114.551 326.629 113.545 327.327 112.78C328.026 112.015 328.996 111.551 330.032 111.485L363.586 109.395C365.777 109.261 367.69 110.927 367.827 113.124C367.86 113.647 367.789 114.17 367.618 114.665C367.448 115.16 367.182 115.617 366.834 116.01C366.487 116.402 366.065 116.723 365.593 116.953C365.122 117.183 364.609 117.318 364.085 117.35L330.531 119.44C330.446 119.446 330.362 119.448 330.277 119.448L330.277 119.448ZM276.981 121.538C275.943 121.536 274.946 121.132 274.202 120.411C273.457 119.69 273.023 118.709 272.991 117.675C272.96 116.641 273.332 115.635 274.031 114.87C274.73 114.105 275.7 113.641 276.736 113.575L310.29 111.485C312.482 111.353 314.393 113.017 314.531 115.214C314.563 115.737 314.493 116.26 314.322 116.755C314.152 117.251 313.885 117.707 313.538 118.1C313.19 118.492 312.769 118.813 312.297 119.043C311.825 119.273 311.313 119.408 310.789 119.44L277.234 121.53C277.15 121.536 277.066 121.538 276.981 121.538L276.981 121.538Z" fill="#241F20"/>
<path d="M201.461 44.9821C222.505 43.671 354.456 37.4482 382.035 23.5856C382.035 23.5856 398.903 149.303 398.276 163.671C397.65 178.038 232.174 187.408 212.743 183.036C193.312 178.663 201.46 44.9827 201.46 44.9827L201.461 44.9821Z" fill="white"/>
<path d="M233.425 188.101C223.272 188.101 215.51 187.744 211.863 186.923C204.774 185.328 196.544 175.417 195.817 112.415C195.428 78.6943 197.449 45.076 197.47 44.7407C197.529 43.7702 197.942 42.8548 198.631 42.1667C199.321 41.4786 200.238 41.0654 201.212 41.0048C203.128 40.8858 205.959 40.7253 209.545 40.5231C306.66 35.0388 364.089 28.1431 380.236 20.0274C380.805 19.7413 381.435 19.5951 382.073 19.6011C382.711 19.607 383.338 19.7648 383.902 20.0614C384.466 20.3579 384.951 20.7847 385.316 21.3059C385.681 21.8272 385.916 22.4279 386 23.0579C386.691 28.2057 402.908 149.292 402.272 163.845C402.212 165.234 401.614 167.291 399.109 169.2C388.126 177.566 335.739 182.65 305.489 184.936C280.767 186.804 252.762 188.102 233.426 188.102L233.425 188.101ZM205.257 48.7494C204.758 58.2093 203.501 85.262 203.815 112.36C204.556 176.373 213.254 179.064 213.625 179.148C221.533 180.927 261.26 180.394 307.792 176.763C369.385 171.957 391.003 165.726 394.297 162.86C394.389 150.018 384.597 73.0471 378.76 29.2476C345.848 40.8072 244.569 46.5273 209.997 48.4795C208.225 48.5797 206.639 48.6691 205.257 48.7488L205.257 48.7494Z" fill="#241F20"/>
<path d="M377.641 110.318C376.692 110.316 375.775 109.979 375.053 109.366C374.331 108.754 373.851 107.905 373.699 106.972L366.573 63.3486C359.263 61.8928 350.841 56.2246 346.154 49.5174L248.804 63.6691C248.285 63.7449 247.755 63.7179 247.246 63.5895C246.736 63.4612 246.258 63.2341 245.836 62.9213C245.415 62.6085 245.06 62.216 244.791 61.7663C244.522 61.3166 244.345 60.8185 244.27 60.3004C244.116 59.2546 244.387 58.1909 245.02 57.3435C245.654 56.4961 246.6 55.9343 247.649 55.7817L347.591 41.2524C348.404 41.1343 349.233 41.2681 349.966 41.6357C350.699 42.0033 351.301 42.5868 351.69 43.3071C355.306 50.0024 364.797 55.7396 370.032 55.7396C370.981 55.7396 371.899 56.076 372.622 56.6888C373.345 57.3016 373.826 58.1507 373.979 59.0843L381.592 105.691C381.685 106.261 381.653 106.845 381.497 107.402C381.341 107.959 381.066 108.475 380.69 108.915C380.314 109.355 379.847 109.709 379.32 109.951C378.793 110.193 378.22 110.318 377.64 110.317L377.641 110.318Z" fill="#241F20"/>
<path d="M185.398 23.5851C183.518 49.0773 373.01 73.9284 395.962 78.7802C418.913 83.632 422.39 104.426 415.435 125.913C408.48 147.4 400.745 247.198 393.095 262.447C385.445 277.696 376.403 290.865 346.498 285.32C316.592 279.775 136.644 233.071 136.852 215.345C137.14 190.733 185.398 23.5851 185.398 23.5851Z" fill="#60CDFF"/>
<path d="M349.816 287.386C345.798 287.386 341.336 286.962 336.353 286.038L332.608 285.345C313.792 281.872 263.811 272.646 218.96 262.221C193.609 256.33 173.587 250.91 159.449 246.114C139.35 239.295 131.182 233.957 131.255 227.688C131.547 202.845 179.503 29.8733 181.545 22.5221C181.81 21.5691 182.421 20.7484 183.259 20.2195C184.098 19.6905 185.104 19.4911 186.081 19.6601C187.059 19.829 187.939 20.3542 188.55 21.1336C189.16 21.913 189.459 22.8908 189.386 23.8771C189.309 24.9213 190.536 34.5116 256.403 49.5316C295.445 58.4347 342.725 66.0085 370.974 70.5341C383.562 72.5506 392.657 74.0076 396.79 74.8815C406.653 76.9663 413.855 81.8142 418.199 89.2895C423.703 98.7642 424.073 112.205 419.24 127.136C416.35 136.064 411.554 158.754 406.477 182.776C399.305 216.71 391.888 251.798 387.257 261.029C380.488 274.522 371.911 287.386 349.815 287.386H349.816ZM139.256 227.563C139.685 228.339 142.899 232.376 165.396 239.687C179.651 244.32 199.358 249.539 223.97 255.198C267.785 265.274 315.937 274.163 334.065 277.509L337.816 278.203C364.84 283.213 372.673 272.279 380.105 257.465C384.276 249.152 391.913 213.016 398.652 181.134C403.773 156.903 408.611 134.015 411.629 124.69C415.758 111.934 415.634 100.78 411.278 93.2838C408.117 87.8439 402.685 84.2759 395.132 82.679C391.192 81.8461 381.71 80.3271 369.705 78.4039C341.359 73.8629 293.918 66.263 254.62 57.3018C232.808 52.3281 215.778 47.4473 204.002 42.7959C196.222 39.7227 190.529 36.6722 186.802 33.5386C176.814 69.8902 139.752 206.119 139.256 227.563Z" fill="#241F20"/>
<path d="M446.002 162.118C453.333 167.941 442.142 218.037 432.503 220.296C426.209 221.77 375.297 212.272 354.879 209.521C312.936 203.872 322.001 144.552 363.835 151.046C398.319 156.398 446.002 162.118 446.002 162.118V162.118Z" fill="#60CDFF"/>
<path d="M430.475 224.422C423.875 224.422 409.091 222.207 381.182 217.659C370.76 215.961 360.915 214.356 354.344 213.471C340.631 211.624 330.561 204.372 325.99 193.049C321.453 181.81 323.437 168.382 331.046 158.838C338.672 149.272 350.849 144.997 364.451 147.109C398.469 152.389 446.004 158.105 446.481 158.162C447.218 158.25 447.915 158.541 448.495 159.002C454.976 164.15 451.963 182.574 449.59 193.099C447.936 200.439 445.744 207.353 443.418 212.57C440.272 219.627 437.094 223.315 433.417 224.176C432.717 224.34 431.748 224.423 430.476 224.423L430.475 224.422ZM357.637 154.539C349.233 154.539 342.141 157.732 337.307 163.796C331.457 171.134 329.927 181.448 333.409 190.073C336.861 198.621 344.676 204.126 355.415 205.572C362.096 206.472 371.994 208.085 382.473 209.793C400.369 212.709 427.374 217.11 431.547 216.422C433.018 215.713 437.172 209.613 440.93 194.912C444.667 180.296 444.96 169.205 443.77 165.862C434.832 164.775 393.66 159.708 363.22 154.984C361.374 154.692 359.507 154.544 357.637 154.539Z" fill="#241F20"/>
<path d="M365.954 163.124C387.988 166.886 381.259 201.335 358.22 196.843C335.987 192.507 346.203 159.753 365.954 163.124Z" fill="#241F20"/>
<path d="M362.182 201.221C360.638 201.221 359.057 201.067 357.453 200.754C344.381 198.206 340.293 187.496 342.039 178.012C344.058 167.045 353.807 157.008 366.629 159.197C374.09 160.47 379.75 165.021 382.16 171.683C384.827 179.052 383.113 188.076 377.895 194.138C373.923 198.754 368.359 201.22 362.182 201.221ZM363.203 166.874C356.283 166.874 351.105 172.927 349.904 179.449C349.417 182.101 348.629 190.912 358.988 192.932C365.648 194.23 369.644 191.483 371.824 188.949C375.174 185.057 376.331 179.068 374.637 174.386C373.627 171.597 371.185 168.06 365.278 167.052C364.593 166.934 363.899 166.875 363.203 166.874Z" fill="#241F20"/>
<path d="M122.549 94.4512L175.092 174.891C175.092 174.891 165.311 182.082 158.302 186.778C138.005 200.379 82.8263 122.073 107.039 104.599C113.274 100.099 122.549 94.4512 122.549 94.4512Z" fill="white"/>
<path d="M152.882 192.368C148.808 192.368 143.578 190.791 137.015 186.135C129.551 180.841 121.553 172.37 114.494 162.285C98.7531 139.794 89.6153 112.233 104.685 101.356C110.975 96.8168 120.072 91.2691 120.456 91.0353C121.348 90.4923 122.417 90.3172 123.436 90.5472C124.455 90.7772 125.344 91.3941 125.914 92.2669L178.457 172.707C179.016 173.563 179.225 174.6 179.043 175.604C178.86 176.609 178.3 177.507 177.476 178.113C177.073 178.409 167.544 185.41 160.542 190.101C158.67 191.355 156.147 192.368 152.882 192.368V192.368ZM121.331 99.9222C118.105 101.95 113.15 105.13 109.394 107.841C99.3766 115.071 107.938 138.928 121.08 157.705C134.003 176.17 149.693 187.721 156.063 183.457C160.535 180.461 166.216 176.387 169.651 173.898L121.331 99.9222Z" fill="#241F20"/>
<path d="M122.549 94.4512C99.4052 106.922 148.61 192 175.092 174.891C197.291 160.549 143.234 83.305 122.549 94.4512Z" fill="white"/>
<path d="M167.38 181.159C163.869 181.159 159.732 180.208 154.969 177.622C134.699 166.618 112.478 129.829 112.513 107.332C112.529 97.3863 116.941 92.9234 120.64 90.93C136.556 82.3518 160.883 110.072 172.477 129.56C186.413 152.986 188.207 171.188 177.275 178.25C174.877 179.799 171.576 181.158 167.38 181.158V181.159ZM127.115 97.3674C126.104 97.3674 125.212 97.5664 124.458 97.9724C121.868 99.3682 120.551 102.521 120.544 107.344C120.513 126.778 141.256 161.062 158.81 170.592C164.419 173.637 169.161 173.953 172.909 171.533C179.374 167.356 176.356 151.775 165.57 133.644C158.972 122.554 150.559 112.247 142.486 105.367C136.403 100.182 130.919 97.368 127.115 97.368V97.3674Z" fill="#241F20"/>
<path d="M390.41 354.028L481.462 285.939C481.462 285.939 490.035 297.47 496.846 304.746C527.547 337.543 434.494 411.341 403.635 371.466C398.077 364.284 390.41 354.028 390.41 354.028Z" fill="white"/>
<path d="M428.552 387C416.757 387 407.15 382.555 400.458 373.908C394.944 366.782 387.27 356.518 387.194 356.415C386.56 355.567 386.289 354.503 386.441 353.456C386.592 352.409 387.154 351.464 388.003 350.829L479.055 282.741C479.478 282.425 479.96 282.195 480.472 282.065C480.985 281.935 481.518 281.907 482.041 281.983C482.564 282.059 483.067 282.237 483.521 282.508C483.974 282.778 484.37 283.136 484.685 283.559C484.769 283.673 493.203 294.996 499.778 302.018C507.143 309.885 508.916 320.256 504.908 332.011C496.622 356.309 465.026 381.654 437.291 386.249C434.262 386.751 431.345 387 428.552 387ZM396.02 354.83C398.73 358.435 403.231 364.4 406.81 369.024C414.843 379.404 427.103 379.832 435.976 378.361C460.745 374.257 489.981 350.938 497.313 329.437C500.354 320.521 499.21 313.131 493.913 307.473C489.192 302.43 483.746 295.525 480.673 291.527L396.02 354.83Z" fill="#241F20"/>
<path d="M390.41 354.028C421.253 394.357 518.25 323.488 481.462 285.939C448.654 252.452 362.074 316.976 390.41 354.028Z" fill="white"/>
<path d="M416.829 370.051C404.355 370.051 394.042 365.372 387.22 356.451C380.305 347.408 378.93 336.305 383.245 324.34C386.881 314.257 394.639 303.749 405.091 294.751C428.918 274.236 464.787 263.197 484.332 283.146C493.387 292.389 495.941 304.116 491.718 317.062C484.032 340.622 454.024 364.514 426.19 369.232C422.958 369.78 419.83 370.051 416.83 370.051L416.829 370.051ZM457.375 280.596C453.759 280.596 450.275 281.065 447.197 281.708C434.874 284.283 421.438 291.242 410.334 300.802C394.873 314.114 381.213 335.407 393.6 351.604C402.017 362.609 415.236 362.977 424.844 361.349C449.65 357.143 477.334 335.293 484.088 314.589C487.377 304.51 485.528 295.81 478.592 288.732C472.489 282.502 464.663 280.595 457.374 280.595L457.375 280.596Z" fill="#241F20"/>
</svg>
