<svg width="162" height="24" viewBox="0 0 162 24" fill="none" xmlns="http://www.w3.org/2000/svg">
<path d="M0.904 21L7.816 4.2H11.824L18.664 21H14.896L13.192 16.584H6.256L4.528 21H0.904ZM7.336 13.8H12.136L9.736 7.608L7.336 13.8ZM24.955 21.168C23.771 21.168 22.699 20.88 21.739 20.304C20.779 19.728 20.011 18.96 19.435 18C18.875 17.024 18.595 15.936 18.595 14.736C18.595 13.536 18.875 12.456 19.435 11.496C20.011 10.52 20.787 9.752 21.763 9.192C22.739 8.616 23.835 8.328 25.051 8.328C25.675 8.328 26.275 8.416 26.851 8.592C27.427 8.752 27.963 8.992 28.459 9.312V4.2L31.747 3.648V21H28.507V19.968C27.483 20.768 26.299 21.168 24.955 21.168ZM25.483 18.36C26.091 18.36 26.643 18.264 27.139 18.072C27.651 17.864 28.091 17.56 28.459 17.16V12.288C28.091 11.92 27.651 11.632 27.139 11.424C26.627 11.216 26.075 11.112 25.483 11.112C24.795 11.112 24.171 11.272 23.611 11.592C23.067 11.896 22.635 12.328 22.315 12.888C21.995 13.432 21.835 14.048 21.835 14.736C21.835 15.424 21.995 16.04 22.315 16.584C22.635 17.128 23.067 17.56 23.611 17.88C24.171 18.2 24.795 18.36 25.483 18.36Z" fill="#546DF6"/>
<path d="M34.5276 21V4.2H42.4236C43.5596 4.2 44.5516 4.392 45.3996 4.776C46.2476 5.16 46.9116 5.704 47.3916 6.408C47.8716 7.096 48.1116 7.896 48.1116 8.808C48.1116 9.544 47.9196 10.224 47.5356 10.848C47.1676 11.456 46.6636 11.952 46.0236 12.336C46.8396 12.72 47.4876 13.24 47.9676 13.896C48.4476 14.552 48.6876 15.296 48.6876 16.128C48.6876 17.088 48.4396 17.936 47.9436 18.672C47.4636 19.408 46.7756 19.984 45.8796 20.4C44.9996 20.8 43.9756 21 42.8076 21H34.5276ZM38.0076 11.064H42.2076C42.9596 11.064 43.5516 10.888 43.9836 10.536C44.4316 10.168 44.6556 9.68 44.6556 9.072C44.6556 8.464 44.4316 7.984 43.9836 7.632C43.5516 7.264 42.9596 7.08 42.2076 7.08H38.0076V11.064ZM38.0076 18.12H42.5436C43.3436 18.12 43.9836 17.928 44.4636 17.544C44.9436 17.144 45.1836 16.616 45.1836 15.96C45.1836 15.288 44.9436 14.76 44.4636 14.376C43.9836 13.976 43.3436 13.776 42.5436 13.776H38.0076V18.12ZM56.767 21.24C55.519 21.24 54.391 20.952 53.383 20.376C52.375 19.8 51.575 19.024 50.983 18.048C50.391 17.072 50.095 15.976 50.095 14.76C50.095 13.544 50.383 12.448 50.959 11.472C51.551 10.48 52.351 9.696 53.359 9.12C54.383 8.544 55.519 8.256 56.767 8.256C58.015 8.256 59.143 8.544 60.151 9.12C61.175 9.696 61.975 10.48 62.551 11.472C63.143 12.448 63.439 13.544 63.439 14.76C63.439 15.976 63.143 17.072 62.551 18.048C61.975 19.024 61.183 19.8 60.175 20.376C59.167 20.952 58.031 21.24 56.767 21.24ZM56.767 18.384C57.423 18.384 58.007 18.224 58.519 17.904C59.047 17.584 59.463 17.152 59.767 16.608C60.087 16.048 60.247 15.432 60.247 14.76C60.247 14.072 60.087 13.456 59.767 12.912C59.463 12.368 59.047 11.936 58.519 11.616C58.007 11.28 57.423 11.112 56.767 11.112C56.127 11.112 55.543 11.28 55.015 11.616C54.487 11.936 54.071 12.368 53.767 12.912C53.463 13.456 53.311 14.072 53.311 14.76C53.311 15.432 53.463 16.048 53.767 16.608C54.071 17.152 54.487 17.584 55.015 17.904C55.543 18.224 56.127 18.384 56.767 18.384ZM71.5561 21.24C70.3081 21.24 69.1801 20.952 68.1721 20.376C67.1641 19.8 66.3641 19.024 65.7721 18.048C65.1801 17.072 64.8841 15.976 64.8841 14.76C64.8841 13.544 65.1721 12.448 65.7481 11.472C66.3401 10.48 67.1401 9.696 68.1481 9.12C69.1721 8.544 70.3081 8.256 71.5561 8.256C72.8041 8.256 73.9321 8.544 74.9401 9.12C75.9641 9.696 76.7641 10.48 77.3401 11.472C77.9321 12.448 78.2281 13.544 78.2281 14.76C78.2281 15.976 77.9321 17.072 77.3401 18.048C76.7641 19.024 75.9721 19.8 74.9641 20.376C73.9561 20.952 72.8201 21.24 71.5561 21.24ZM71.5561 18.384C72.2121 18.384 72.7961 18.224 73.3081 17.904C73.8361 17.584 74.2521 17.152 74.5561 16.608C74.8761 16.048 75.0361 15.432 75.0361 14.76C75.0361 14.072 74.8761 13.456 74.5561 12.912C74.2521 12.368 73.8361 11.936 73.3081 11.616C72.7961 11.28 72.2121 11.112 71.5561 11.112C70.9161 11.112 70.3321 11.28 69.8041 11.616C69.2761 11.936 68.8601 12.368 68.5561 12.912C68.2521 13.456 68.1001 14.072 68.1001 14.76C68.1001 15.432 68.2521 16.048 68.5561 16.608C68.8601 17.152 69.2761 17.584 69.8041 17.904C70.3321 18.224 70.9161 18.384 71.5561 18.384ZM84.9291 21.24C83.7771 21.24 82.7131 21.096 81.7371 20.808C80.7611 20.504 79.9131 20.072 79.1931 19.512L80.8251 17.328C81.5451 17.808 82.2331 18.168 82.8891 18.408C83.5611 18.648 84.2251 18.768 84.8811 18.768C85.6171 18.768 86.2011 18.648 86.6331 18.408C87.0811 18.152 87.3051 17.824 87.3051 17.424C87.3051 17.104 87.1771 16.848 86.9211 16.656C86.6811 16.464 86.2891 16.328 85.7451 16.248L83.3451 15.888C82.0971 15.696 81.1531 15.296 80.5131 14.688C79.8731 14.064 79.5531 13.248 79.5531 12.24C79.5531 11.424 79.7611 10.728 80.1771 10.152C80.6091 9.56 81.2091 9.104 81.9771 8.784C82.7611 8.448 83.6891 8.28 84.7611 8.28C85.6731 8.28 86.5611 8.408 87.4251 8.664C88.3051 8.92 89.1291 9.312 89.8971 9.84L88.3131 11.976C87.6251 11.544 86.9691 11.232 86.3451 11.04C85.7211 10.848 85.0891 10.752 84.4491 10.752C83.8571 10.752 83.3771 10.864 83.0091 11.088C82.6571 11.312 82.4811 11.608 82.4811 11.976C82.4811 12.312 82.6091 12.576 82.8651 12.768C83.1211 12.96 83.5611 13.096 84.1851 13.176L86.5611 13.536C87.8091 13.712 88.7611 14.112 89.4171 14.736C90.0731 15.344 90.4011 16.136 90.4011 17.112C90.4011 17.912 90.1611 18.624 89.6811 19.248C89.2011 19.856 88.5531 20.344 87.7371 20.712C86.9211 21.064 85.9851 21.24 84.9291 21.24ZM97.7318 21.192C96.3398 21.192 95.2838 20.88 94.5638 20.256C93.8598 19.616 93.5078 18.688 93.5078 17.472V11.232H90.9398V8.496H93.5078V5.304L96.7958 4.56V8.496H100.372V11.232H96.7958V16.8C96.7958 17.376 96.9238 17.792 97.1798 18.048C97.4358 18.288 97.8838 18.408 98.5238 18.408C98.8438 18.408 99.1318 18.392 99.3878 18.36C99.6598 18.312 99.9558 18.232 100.276 18.12V20.832C99.9398 20.944 99.5158 21.032 99.0038 21.096C98.5078 21.16 98.0838 21.192 97.7318 21.192ZM107.955 21.24C106.707 21.24 105.571 20.952 104.547 20.376C103.539 19.8 102.739 19.024 102.147 18.048C101.555 17.072 101.259 15.976 101.259 14.76C101.259 13.544 101.539 12.448 102.099 11.472C102.675 10.496 103.451 9.72 104.427 9.144C105.403 8.568 106.491 8.28 107.691 8.28C108.891 8.28 109.955 8.576 110.883 9.168C111.811 9.76 112.539 10.56 113.067 11.568C113.611 12.576 113.883 13.72 113.883 15V15.864H104.619C104.763 16.36 104.995 16.808 105.315 17.208C105.651 17.608 106.059 17.92 106.539 18.144C107.035 18.368 107.563 18.48 108.123 18.48C108.683 18.48 109.195 18.392 109.659 18.216C110.139 18.04 110.547 17.792 110.883 17.472L113.043 19.44C112.275 20.064 111.483 20.52 110.667 20.808C109.867 21.096 108.963 21.24 107.955 21.24ZM104.571 13.512H110.643C110.531 13.016 110.323 12.584 110.019 12.216C109.731 11.832 109.379 11.536 108.963 11.328C108.563 11.104 108.115 10.992 107.619 10.992C107.107 10.992 106.643 11.096 106.227 11.304C105.811 11.512 105.459 11.808 105.171 12.192C104.899 12.56 104.699 13 104.571 13.512ZM115.898 21V8.496H119.186V9.888C119.586 9.344 120.066 8.928 120.626 8.64C121.186 8.352 121.818 8.208 122.522 8.208C123.13 8.224 123.586 8.32 123.89 8.496V11.376C123.65 11.264 123.386 11.184 123.098 11.136C122.81 11.072 122.514 11.04 122.21 11.04C121.57 11.04 120.986 11.2 120.458 11.52C119.93 11.84 119.506 12.296 119.186 12.888V21H115.898ZM130.515 21.24C129.363 21.24 128.299 21.096 127.323 20.808C126.347 20.504 125.499 20.072 124.779 19.512L126.411 17.328C127.131 17.808 127.819 18.168 128.475 18.408C129.147 18.648 129.811 18.768 130.467 18.768C131.203 18.768 131.787 18.648 132.219 18.408C132.667 18.152 132.891 17.824 132.891 17.424C132.891 17.104 132.763 16.848 132.507 16.656C132.267 16.464 131.875 16.328 131.331 16.248L128.931 15.888C127.683 15.696 126.739 15.296 126.099 14.688C125.459 14.064 125.139 13.248 125.139 12.24C125.139 11.424 125.347 10.728 125.763 10.152C126.195 9.56 126.795 9.104 127.563 8.784C128.347 8.448 129.275 8.28 130.347 8.28C131.259 8.28 132.147 8.408 133.011 8.664C133.891 8.92 134.715 9.312 135.483 9.84L133.899 11.976C133.211 11.544 132.555 11.232 131.931 11.04C131.307 10.848 130.675 10.752 130.035 10.752C129.443 10.752 128.963 10.864 128.595 11.088C128.243 11.312 128.067 11.608 128.067 11.976C128.067 12.312 128.195 12.576 128.451 12.768C128.707 12.96 129.147 13.096 129.771 13.176L132.147 13.536C133.395 13.712 134.347 14.112 135.003 14.736C135.659 15.344 135.987 16.136 135.987 17.112C135.987 17.912 135.747 18.624 135.267 19.248C134.787 19.856 134.139 20.344 133.323 20.712C132.507 21.064 131.571 21.24 130.515 21.24Z" fill="#3D3C41"/>
<path d="M142 13.978H146.004V21.99H142V13.978ZM149.007 10.012H153.011V21.99H149.007V10.012ZM162 5.996L157.996 2L153.992 5.996H155.994V22H159.998V5.996H162Z" fill="#546DF6"/>
</svg>
