<svg width="218" height="27" viewBox="0 0 218 27" fill="none" xmlns="http://www.w3.org/2000/svg">
<path d="M0 25.3681L9.5171 1.2003H15.0357L24.4537 25.3681H19.2655L16.9193 19.0154H7.36914L4.98987 25.3681H0ZM8.85619 15.0105H15.4653L12.1607 6.10292L8.85619 15.0105Z" fill="#6A6EFF"/>
<path d="M33.1157 25.6098C31.4855 25.6098 30.0094 25.1955 28.6876 24.3669C27.3658 23.5383 26.3083 22.4335 25.5152 21.0524C24.7442 19.6484 24.3586 18.0833 24.3586 16.357C24.3586 14.6307 24.7442 13.0771 25.5152 11.696C26.3083 10.292 27.3768 9.18719 28.7207 8.3816C30.0645 7.55299 31.5736 7.13868 33.2479 7.13868C34.1071 7.13868 34.9332 7.26527 35.7263 7.51846C36.5194 7.74863 37.2574 8.09389 37.9403 8.55422V1.2003L42.4676 0.406213V25.3681H38.0064V23.8835C36.5965 25.0344 34.9662 25.6098 33.1157 25.6098ZM33.8427 21.5703C34.6799 21.5703 35.4399 21.4322 36.1228 21.156C36.8278 20.8568 37.4336 20.4195 37.9403 19.8441V12.8354C37.4336 12.306 36.8278 11.8917 36.1228 11.5925C35.4179 11.2932 34.6578 11.1436 33.8427 11.1436C32.8954 11.1436 32.0362 11.3738 31.2652 11.8341C30.5161 12.2715 29.9213 12.8929 29.4807 13.6985C29.0401 14.4811 28.8198 15.3673 28.8198 16.357C28.8198 17.3467 29.0401 18.2329 29.4807 19.0154C29.9213 19.798 30.5161 20.4195 31.2652 20.8798C32.0362 21.3402 32.8954 21.5703 33.8427 21.5703Z" fill="#6A6EFF"/>
<path d="M46.2962 25.3681V1.2003H57.1682C58.7323 1.2003 60.0982 1.4765 61.2658 2.02891C62.4334 2.58132 63.3477 3.3639 64.0086 4.37664C64.6695 5.36637 64.9999 6.51722 64.9999 7.82919C64.9999 8.88797 64.7356 9.86619 64.2068 10.7639C63.7001 11.6385 63.0062 12.352 62.125 12.9044C63.2485 13.4568 64.1408 14.2049 64.8017 15.1486C65.4626 16.0923 65.793 17.1626 65.793 18.3595C65.793 19.7405 65.4516 20.9604 64.7686 22.0192C64.1077 23.0779 63.1604 23.9066 61.9267 24.505C60.715 25.0804 59.3051 25.3681 57.6969 25.3681H46.2962ZM51.0878 11.0746H56.8708C57.9062 11.0746 58.7213 10.8214 59.3161 10.315C59.933 9.78563 60.2414 9.08362 60.2414 8.20897C60.2414 7.33432 59.933 6.64382 59.3161 6.13744C58.7213 5.60805 57.9062 5.34336 56.8708 5.34336H51.0878V11.0746ZM51.0878 21.2251H57.3334C58.4349 21.2251 59.3161 20.9489 59.977 20.3965C60.6379 19.821 60.9684 19.0615 60.9684 18.1178C60.9684 17.1511 60.6379 16.3915 59.977 15.8391C59.3161 15.2637 58.4349 14.976 57.3334 14.976H51.0878V21.2251Z" fill="#FEFEFE"/>
<path d="M76.9175 25.7134C75.1991 25.7134 73.646 25.2991 72.2581 24.4705C70.8702 23.6419 69.7686 22.5255 68.9535 21.1215C68.1384 19.7175 67.7308 18.1408 67.7308 16.3915C67.7308 14.6422 68.1274 13.0656 68.9205 11.6615C69.7356 10.2345 70.8371 9.10663 72.225 8.27802C73.635 7.44941 75.1991 7.0351 76.9175 7.0351C78.6358 7.0351 80.189 7.44941 81.5769 8.27802C82.9868 9.10663 84.0883 10.2345 84.8814 11.6615C85.6966 13.0656 86.1041 14.6422 86.1041 16.3915C86.1041 18.1408 85.6966 19.7175 84.8814 21.1215C84.0883 22.5255 82.9978 23.6419 81.6099 24.4705C80.222 25.2991 78.6579 25.7134 76.9175 25.7134ZM76.9175 21.6049C77.8207 21.6049 78.6248 21.3747 79.3298 20.9143C80.0568 20.454 80.6296 19.8325 81.0482 19.05C81.4888 18.2444 81.7091 17.3582 81.7091 16.3915C81.7091 15.4018 81.4888 14.5156 81.0482 13.733C80.6296 12.9505 80.0568 12.329 79.3298 11.8687C78.6248 11.3853 77.8207 11.1436 76.9175 11.1436C76.0363 11.1436 75.2322 11.3853 74.5052 11.8687C73.7782 12.329 73.2054 12.9505 72.7868 13.733C72.3682 14.5156 72.1589 15.4018 72.1589 16.3915C72.1589 17.3582 72.3682 18.2444 72.7868 19.05C73.2054 19.8325 73.7782 20.454 74.5052 20.9143C75.2322 21.3747 76.0363 21.6049 76.9175 21.6049Z" fill="#FEFEFE"/>
<path d="M97.2805 25.7134C95.5621 25.7134 94.009 25.2991 92.6211 24.4705C91.2331 23.6419 90.1316 22.5255 89.3165 21.1215C88.5014 19.7175 88.0938 18.1408 88.0938 16.3915C88.0938 14.6422 88.4904 13.0656 89.2835 11.6615C90.0986 10.2345 91.2001 9.10663 92.588 8.27802C93.998 7.44941 95.5621 7.0351 97.2805 7.0351C98.9988 7.0351 100.552 7.44941 101.94 8.27802C103.35 9.10663 104.451 10.2345 105.244 11.6615C106.06 13.0656 106.467 14.6422 106.467 16.3915C106.467 18.1408 106.06 19.7175 105.244 21.1215C104.451 22.5255 103.361 23.6419 101.973 24.4705C100.585 25.2991 99.0209 25.7134 97.2805 25.7134ZM97.2805 21.6049C98.1837 21.6049 98.9878 21.3747 99.6928 20.9143C100.42 20.454 100.993 19.8325 101.411 19.05C101.852 18.2444 102.072 17.3582 102.072 16.3915C102.072 15.4018 101.852 14.5156 101.411 13.733C100.993 12.9505 100.42 12.329 99.6928 11.8687C98.9878 11.3853 98.1837 11.1436 97.2805 11.1436C96.3993 11.1436 95.5952 11.3853 94.8681 11.8687C94.1412 12.329 93.5684 12.9505 93.1498 13.733C92.7312 14.5156 92.5219 15.4018 92.5219 16.3915C92.5219 17.3582 92.7312 18.2444 93.1498 19.05C93.5684 19.8325 94.1412 20.454 94.8681 20.9143C95.5952 21.3747 96.3993 21.6049 97.2805 21.6049Z" fill="#FEFEFE"/>
<path d="M115.694 25.7134C114.108 25.7134 112.643 25.5062 111.299 25.0919C109.955 24.6546 108.787 24.0331 107.796 23.2276L110.043 20.0857C111.034 20.7762 111.982 21.2941 112.885 21.6394C113.81 21.9846 114.724 22.1573 115.628 22.1573C116.641 22.1573 117.445 21.9846 118.04 21.6394C118.657 21.2711 118.965 20.7993 118.965 20.2238C118.965 19.7635 118.789 19.3952 118.437 19.119C118.106 18.8428 117.566 18.6472 116.817 18.5321L113.513 18.0142C111.794 17.738 110.495 17.1626 109.613 16.2879C108.732 15.3903 108.292 14.2164 108.292 12.7663C108.292 11.5925 108.578 10.5912 109.151 9.76262C109.746 8.91099 110.572 8.255 111.629 7.79467C112.709 7.31131 113.986 7.06963 115.462 7.06963C116.718 7.06963 117.941 7.25377 119.131 7.62204C120.342 7.99031 121.477 8.55422 122.534 9.31378L120.353 12.3866C119.406 11.7651 118.503 11.3163 117.643 11.0401C116.784 10.7639 115.914 10.6258 115.033 10.6258C114.218 10.6258 113.557 10.7869 113.05 11.1091C112.565 11.4313 112.323 11.8572 112.323 12.3866C112.323 12.8699 112.499 13.2497 112.852 13.5259C113.204 13.8021 113.81 13.9977 114.669 14.1128L117.941 14.6307C119.659 14.8839 120.97 15.4593 121.873 16.357C122.777 17.2316 123.228 18.371 123.228 19.775C123.228 20.9259 122.898 21.9501 122.237 22.8478C121.576 23.7224 120.684 24.4244 119.56 24.9538C118.437 25.4602 117.148 25.7134 115.694 25.7134Z" fill="#FEFEFE"/>
<path d="M133.322 25.6443C131.405 25.6443 129.951 25.1955 128.96 24.2978C127.99 23.3772 127.506 22.0422 127.506 20.2929V11.3163H123.97V7.38036H127.506V2.78847L132.033 1.71818V7.38036H136.957V11.3163H132.033V19.3262C132.033 20.1548 132.209 20.7532 132.562 21.1215C132.914 21.4668 133.531 21.6394 134.412 21.6394C134.853 21.6394 135.249 21.6164 135.602 21.5703C135.976 21.5013 136.384 21.3862 136.825 21.2251V25.1265C136.362 25.2876 135.778 25.4142 135.073 25.5062C134.39 25.5983 133.806 25.6443 133.322 25.6443Z" fill="#FEFEFE"/>
<path d="M147.398 25.7134C145.68 25.7134 144.116 25.2991 142.706 24.4705C141.318 23.6419 140.216 22.5255 139.401 21.1215C138.586 19.7175 138.178 18.1408 138.178 16.3915C138.178 14.6422 138.564 13.0656 139.335 11.6615C140.128 10.2575 141.197 9.14116 142.54 8.31255C143.884 7.48394 145.382 7.06963 147.035 7.06963C148.687 7.06963 150.152 7.49544 151.43 8.34707C152.707 9.1987 153.71 10.3495 154.437 11.7996C155.186 13.2497 155.56 14.8954 155.56 16.7368V17.9797H142.805C143.003 18.6932 143.322 19.3377 143.763 19.9131C144.226 20.4885 144.787 20.9374 145.448 21.2596C146.131 21.5818 146.858 21.743 147.629 21.743C148.4 21.743 149.105 21.6164 149.744 21.3632C150.405 21.11 150.967 20.7532 151.43 20.2929L154.404 23.124C153.346 24.0216 152.256 24.6776 151.132 25.0919C150.031 25.5062 148.786 25.7134 147.398 25.7134ZM142.739 14.5962H151.099C150.945 13.8827 150.659 13.2612 150.24 12.7318C149.843 12.1794 149.359 11.7536 148.786 11.4544C148.235 11.1321 147.618 10.971 146.935 10.971C146.23 10.971 145.592 11.1206 145.019 11.4198C144.446 11.7191 143.961 12.1449 143.565 12.6973C143.19 13.2267 142.915 13.8596 142.739 14.5962Z" fill="#FEFEFE"/>
<path d="M158.334 25.3681V7.38036H162.861V9.38284C163.412 8.60026 164.073 8.00182 164.844 7.58751C165.615 7.1732 166.485 6.96605 167.455 6.96605C168.292 6.98907 168.92 7.12717 169.338 7.38036V11.5234C169.008 11.3623 168.644 11.2472 168.248 11.1782C167.851 11.0861 167.444 11.0401 167.025 11.0401C166.144 11.0401 165.34 11.2702 164.613 11.7306C163.886 12.1909 163.302 12.8469 162.861 13.6985V25.3681H158.334Z" fill="#FEFEFE"/>
<path d="M178.461 25.7134C176.875 25.7134 175.41 25.5062 174.066 25.0919C172.722 24.6546 171.554 24.0331 170.563 23.2276L172.81 20.0857C173.801 20.7762 174.749 21.2941 175.652 21.6394C176.577 21.9846 177.491 22.1573 178.395 22.1573C179.408 22.1573 180.212 21.9846 180.807 21.6394C181.424 21.2711 181.732 20.7993 181.732 20.2238C181.732 19.7635 181.556 19.3952 181.204 19.119C180.873 18.8428 180.333 18.6472 179.584 18.5321L176.28 18.0142C174.561 17.738 173.262 17.1626 172.38 16.2879C171.499 15.3903 171.059 14.2164 171.059 12.7663C171.059 11.5925 171.345 10.5912 171.918 9.76262C172.513 8.91099 173.339 8.255 174.396 7.79467C175.476 7.31131 176.753 7.06963 178.229 7.06963C179.485 7.06963 180.708 7.25377 181.898 7.62204C183.109 7.99031 184.244 8.55422 185.301 9.31378L183.12 12.3866C182.173 11.7651 181.27 11.3163 180.41 11.0401C179.551 10.7639 178.681 10.6258 177.8 10.6258C176.985 10.6258 176.324 10.7869 175.817 11.1091C175.333 11.4313 175.09 11.8572 175.09 12.3866C175.09 12.8699 175.266 13.2497 175.619 13.5259C175.971 13.8021 176.577 13.9977 177.436 14.1128L180.708 14.6307C182.426 14.8839 183.737 15.4593 184.64 16.357C185.544 17.2316 185.995 18.371 185.995 19.775C185.995 20.9259 185.665 21.9501 185.004 22.8478C184.343 23.7224 183.451 24.4244 182.327 24.9538C181.204 25.4602 179.915 25.7134 178.461 25.7134Z" fill="#FEFEFE"/>
<path d="M192.209 16.1703H197.372V26.9865H192.209V16.1703ZM201.245 10.8162H206.408V26.9865H201.245V10.8162ZM218 5.3946L212.837 0L207.673 5.3946H210.255V27H215.418V5.3946H218Z" fill="#6A6EFF"/>
</svg>
