<svg width="302" height="263" viewBox="0 0 302 263" fill="none" xmlns="http://www.w3.org/2000/svg">
<path d="M288.425 70.242C295.134 84.9085 340.789 185.232 337.291 191.167C333.793 197.101 73.24 295.622 66.1855 297.438C59.1305 299.253 16.6304 179.295 13.4673 166.893C10.3042 154.492 80.1621 42.7462 86.2693 29.8471C92.3766 16.948 114.235 8.4961 133.731 14.1769C153.227 19.8577 282.01 56.2187 288.425 70.242Z" fill="#FEFEFE"/>
<path d="M65.972 300.984C63.0149 300.984 60.8415 297.753 59.013 294.648C57.1905 291.553 54.9072 286.96 52.2274 280.997C47.6137 270.729 41.8503 256.516 35.0977 238.752C22.9047 206.674 11.6883 174.083 10.0773 167.766C9.11906 164.01 10.7796 155.86 29.2544 121.95C40.8251 100.713 55.7514 75.4006 66.6504 56.9176C74.9475 42.8476 81.5007 31.734 83.1087 28.3378C90.3277 13.0904 114.438 4.89551 134.706 10.8018C135.918 11.1548 137.554 11.6272 139.557 12.2052C154.856 16.6207 190.681 26.961 223.678 37.9139C242.268 44.0848 257.207 49.5442 268.081 54.1405C286.466 61.9126 290.289 65.8993 291.605 68.7743C295.27 76.7879 308.144 105.074 319.901 132.593C326.649 148.388 331.848 161.176 335.353 170.601C341.848 188.07 341.47 190.975 340.302 192.958C339.409 194.472 338.486 196.038 295.751 213.282C273.231 222.369 241.616 234.764 204.325 249.129C139.516 274.093 70.9387 299.843 67.0537 300.843C66.6819 300.939 66.3214 300.984 65.972 300.984ZM16.8659 166.058C18.3405 171.793 28.7445 202.077 40.1713 232.376C58.0573 279.801 64.6269 290.975 66.6614 293.595C76.789 290.104 136.921 267.547 199.145 243.596C307.322 201.956 329.501 191.762 333.922 189.282C333.472 186.109 330.289 174.58 312.468 133.023C300.995 106.27 288.732 79.3311 285.246 71.7102C285.089 71.3682 283.19 68.1522 265.34 60.6091C254.634 56.0846 239.87 50.692 221.458 44.5809C188.6 33.6742 152.879 23.3644 137.626 18.962C135.615 18.3821 133.974 17.9081 132.757 17.5536C114.252 12.1615 94.6205 20.3945 89.4295 31.3575C87.6849 35.0419 81.3882 45.7207 72.6727 60.5007C61.9367 78.707 47.2333 103.642 35.7806 124.617C17.6062 157.904 16.6969 164.742 16.8669 166.058H16.8659Z" fill="#353535"/>
<path d="M243.934 0.312291C239.245 -1.57964 113.227 37.9878 56.3063 58.2899C42.9845 63.0413 5.86697 85.9368 9.92183 98.9559C25.6684 149.516 67.8095 268.73 72.4812 270.593C78.3561 272.936 305.641 189.065 307.041 184.527C308.44 179.989 251.956 3.54836 243.934 0.311789L243.934 0.312291Z" fill="#6A6EFF"/>
<path d="M72.6607 274.151C71.9199 274.151 71.557 274.006 71.1901 273.86C69.4711 273.174 68.113 272.633 59.3884 251.077C54.5643 239.158 48.261 222.626 41.16 203.271C26.938 164.504 12.5111 122.623 5.26014 99.0543C-1.08357 78.4353 -0.367772 77.3694 0.715423 75.7556C1.62567 74.3999 2.48543 73.1196 38.9337 60.5167C59.7763 53.31 87.3545 44.133 116.587 34.6764C146.313 25.0601 174.07 16.349 194.744 10.147C231.822 -0.975107 233.366 -0.352496 235.001 0.306768C236.837 1.04788 239.123 1.97024 251.939 31.1516C260.626 50.933 270.445 75.3022 277.153 92.2618C285.712 113.902 294.252 136.252 300.583 153.582C311.246 182.766 310.827 184.126 310.383 185.567C309.872 187.223 308.605 188.071 305.057 189.776C289.476 197.263 229.549 219.974 180.462 237.907C152.417 248.153 126.669 257.3 107.963 263.663C81.9975 272.496 75.1665 274.151 72.6607 274.151ZM7.16911 79.6836C8.58321 87.5656 19.2977 121.472 38.0579 174.096C56.9831 227.184 70.2349 260.32 74.0478 266.943C82.4009 265.221 123.104 251.535 189.719 227.031C247.129 205.913 294.01 187.655 303.226 182.877C300.969 174.364 288.04 138.826 270.644 94.8431C249.183 40.5831 236.213 12.2318 232.361 7.11833C224.915 8.24857 184.856 19.9762 118.695 41.38C62.2216 59.6491 16.0751 75.5171 7.16911 79.6836Z" fill="#353535"/>
<path d="M187.96 202.321C208.924 195.108 273.695 109.404 293.756 81.9737C307.694 112.813 340.266 186.12 337.291 191.167C333.792 197.102 73.2395 295.622 66.185 297.438C60.7105 298.847 33.8946 226.934 20.6758 188.847C51.3662 193.674 164.014 210.559 187.96 202.321V202.321Z" fill="#FEFEFE"/>
<path d="M65.8811 301C62.8274 301 60.1707 297.557 55.4835 287.97C52.2009 281.257 48.0311 271.6 43.089 259.266C33.8416 236.188 23.7414 208.355 17.3722 190.004C16.9673 188.838 17.2018 187.544 17.9896 186.595C18.7773 185.647 20.0015 185.183 21.2176 185.375C89.2935 196.081 168.549 205.28 186.826 198.996C204.798 192.812 262.785 118.384 290.937 79.8925C291.672 78.8867 292.884 78.347 294.119 78.4775C295.354 78.6066 296.429 79.3843 296.943 80.5206C303.272 94.5263 315.347 121.512 325.093 144.884C343.136 188.149 341.564 190.816 340.302 192.958C339.409 194.472 338.486 196.038 295.751 213.282C273.231 222.369 241.616 234.764 204.325 249.129C139.517 274.093 70.9392 299.843 67.0543 300.843C66.6539 300.946 66.2645 301 65.8811 301ZM25.9128 193.221C31.8102 209.997 40.2183 233.028 48.1391 253.021C60.1292 283.288 64.9943 291.423 66.6664 293.593C76.811 290.095 136.934 267.542 199.145 243.595C307.395 201.928 329.531 191.748 333.93 189.277C333.049 182.714 321.978 153.201 293.03 88.8786C280.037 106.466 261.308 130.931 243.887 151.975C216.77 184.734 198.847 202.29 189.094 205.646C166.262 213.501 71.546 200.276 25.9123 193.22L25.9128 193.221Z" fill="#353535"/>
<path d="M81.3077 157.469C79.8926 157.469 78.5365 156.666 77.8912 155.297C71.474 141.674 61.4278 115.275 61.0035 114.158C60.2597 112.2 61.2364 110.008 63.1853 109.261C65.1328 108.512 67.3167 109.495 68.0605 111.452C68.1634 111.723 78.427 138.696 84.7188 152.052C85.611 153.945 84.8058 156.207 82.9203 157.104C82.3984 157.352 81.8486 157.469 81.3072 157.469L81.3077 157.469Z" fill="#353535"/>
<path d="M47.2263 127.263C45.9262 127.263 44.6611 126.588 43.9593 125.379C42.909 123.569 43.5189 121.246 45.3209 120.19C55.8759 114.012 71.0341 106.53 79.1114 103.513C81.0658 102.783 83.2407 103.783 83.968 105.746C84.6953 107.71 83.6996 109.894 81.7446 110.625C74.1343 113.468 59.1965 120.851 49.1243 126.746C48.5265 127.096 47.8722 127.263 47.2263 127.263Z" fill="#353535"/>
<path d="M108.07 144.728C106.794 144.728 105.548 144.078 104.838 142.901C100.456 135.647 90.866 115.727 88.3922 107.326C87.8004 105.318 88.9426 103.207 90.9425 102.612C92.9415 102.019 95.0439 103.165 95.6357 105.174C97.7746 112.437 106.796 131.515 111.296 138.965C112.378 140.757 111.809 143.09 110.026 144.176C109.413 144.55 108.738 144.727 108.07 144.727V144.728Z" fill="#353535"/>
<path d="M125.358 133.442C123.981 133.442 122.653 132.682 121.987 131.364C118.008 123.49 114.686 115.294 111.473 107.368C110.109 104.002 108.699 100.522 107.261 97.1257C106.445 95.1976 107.339 92.9698 109.259 92.1498C111.179 91.3299 113.397 92.2287 114.213 94.1573C115.673 97.6072 117.095 101.114 118.47 104.507C121.624 112.289 124.886 120.337 128.723 127.93C129.667 129.798 128.924 132.082 127.064 133.03C126.517 133.309 125.933 133.442 125.358 133.442Z" fill="#353535"/>
<path d="M92.829 131.719C91.5658 131.719 90.3312 131.083 89.6164 129.925C88.5162 128.145 89.0616 125.805 90.8341 124.701C97.8421 120.333 107.226 115.85 116.581 112.403C118.538 111.681 120.709 112.69 121.427 114.658C122.146 116.625 121.141 118.805 119.182 119.527C110.42 122.756 101.311 127.1 94.8169 131.148C94.1971 131.534 93.5088 131.719 92.829 131.719Z" fill="#353535"/>
<path d="M136.555 126.552C134.847 126.552 133.298 125.379 132.884 123.636C131.665 118.493 130.308 110.046 129.429 102.117C129.001 98.2544 128.731 94.8989 128.647 92.4145C128.524 88.7516 128.616 86.0548 130.927 84.7076C132.459 83.8134 134.382 84.0534 135.712 85.3051C138.754 88.1671 146.962 97.1699 154.204 105.113C156.016 107.101 157.723 108.973 159.196 110.581C160.609 112.123 160.51 114.523 158.975 115.942C157.441 117.361 155.051 117.261 153.639 115.72C152.161 114.107 150.45 112.231 148.633 110.238C144.677 105.899 140.159 100.943 136.515 97.0328C137.158 104.326 138.597 114.98 140.233 121.878C140.716 123.917 139.463 125.962 137.434 126.448C137.14 126.518 136.845 126.552 136.556 126.552H136.555Z" fill="#353535"/>
<path d="M135.687 117.516C134.319 117.516 133 116.767 132.328 115.462C131.371 113.6 132.098 111.312 133.951 110.351C136.195 109.187 138.491 108.208 140.712 107.261C142.87 106.341 144.909 105.472 146.879 104.456C148.735 103.498 151.011 104.235 151.964 106.098C152.917 107.962 152.184 110.249 150.329 111.206C148.113 112.348 145.851 113.313 143.663 114.245C141.475 115.178 139.407 116.06 137.417 117.092C136.863 117.38 136.271 117.516 135.687 117.516Z" fill="#353535"/>
<path d="M166.209 110.186C164.783 110.186 163.419 109.371 162.78 107.986C161.781 105.82 158.458 97.4385 155.67 89.8798C154.043 85.4653 152.783 81.8477 151.926 79.1262C150.399 74.2799 149.937 72.1214 151.541 70.2656C152.547 69.1017 154.151 68.6383 155.629 69.0872C158.618 69.993 163.418 74.1162 172.91 82.6565C174.538 84.1217 176.414 85.8098 178.156 87.3377C176.548 81.0568 173.767 72.1706 172.147 66.9954C170.989 63.2964 169.989 60.1015 169.335 57.8139C168.761 55.7999 169.92 53.6991 171.925 53.1212C173.931 52.5448 176.022 53.7082 176.596 55.7221C177.223 57.9173 178.21 61.0695 179.352 64.7193C187.804 91.7195 188.088 95.3156 185.58 97.8949C184.474 99.0317 182.888 99.4414 181.338 98.9925C179.179 98.3664 176.105 95.7178 167.87 88.3083C165.888 86.5253 163.337 84.2296 160.906 82.1228C163.891 90.5747 168.345 102.003 169.633 104.796C170.51 106.697 169.687 108.952 167.794 109.833C167.28 110.072 166.74 110.185 166.209 110.185L166.209 110.186Z" fill="#353535"/>
<path d="M203.722 93.6205C202.391 93.6205 201.1 92.9115 200.411 91.6573C194.21 80.3579 188.062 68.0654 185.086 54.7425C184.629 52.6979 185.909 50.6689 187.944 50.21C189.979 49.7521 192 51.0365 192.456 53.081C195.226 65.477 201.096 77.1866 207.026 87.9944C208.033 89.8291 207.369 92.1368 205.542 93.1485C204.964 93.4684 204.339 93.6205 203.722 93.6205H203.722Z" fill="#353535"/>
<path d="M197.035 78.5559C196.12 78.5559 195.203 78.2245 194.477 77.5532C192.943 76.1337 192.844 73.7341 194.257 72.1922C200.26 65.6437 203.791 53.674 204.532 45.3235C204.716 43.2363 206.552 41.6943 208.628 41.8816C210.706 42.0674 212.24 43.9101 212.055 45.9968C211.176 55.9054 207.05 69.4371 199.814 77.3317C199.07 78.1441 198.054 78.5559 197.035 78.5559Z" fill="#353535"/>
<path d="M216.723 80.0541C216.351 80.0541 215.973 79.9989 215.6 79.8819C210.836 78.3937 204.728 76.8974 199.66 75.977C197.607 75.6045 196.244 73.6307 196.615 71.5691C196.986 69.5074 198.951 68.1367 201.004 68.5107C206.353 69.4823 212.805 71.0629 217.843 72.637C219.835 73.2592 220.947 75.3856 220.328 77.3859C219.824 79.0118 218.333 80.0541 216.723 80.0541Z" fill="#353535"/>
<path d="M135.984 176.523C135.622 176.523 135.255 176.47 134.89 176.359C126.441 173.794 114.546 166.254 108.372 160.739C106.813 159.347 106.673 156.949 108.059 155.383C109.444 153.817 111.832 153.676 113.391 155.069C118.991 160.07 129.845 166.901 137.076 169.096C139.073 169.703 140.202 171.82 139.598 173.826C139.105 175.466 137.606 176.523 135.985 176.523H135.984Z" fill="#353535"/>
<path d="M137.522 189.56C137.49 189.56 137.459 189.56 137.427 189.559C135.342 189.507 133.693 187.767 133.744 185.672C134.076 172.153 131.94 158.962 129.529 145.515C129.159 143.452 130.524 141.48 132.577 141.109C134.631 140.738 136.594 142.108 136.963 144.17C139.446 158.019 141.645 171.628 141.296 185.86C141.245 187.922 139.564 189.56 137.522 189.56Z" fill="#353535"/>
<path d="M162.896 168.954C158.051 168.954 153.067 166.506 149.368 161.964C144.522 156.014 142.383 147.812 143.918 141.068C145.102 135.869 148.288 131.925 153.133 129.661C157.382 127.676 161.85 127.455 165.717 129.037C168.555 130.198 172.456 132.958 174.923 139.51C180.538 154.419 175.984 163.534 169.85 167.092C167.684 168.348 165.307 168.954 162.896 168.954ZM160.358 135.59C158.604 135.59 157.058 136.195 156.318 136.541C153.63 137.798 151.935 139.89 151.282 142.76C150.279 147.164 151.896 153.085 155.214 157.159C158.361 161.022 162.825 162.404 166.072 160.521C169.361 158.614 171.802 152.669 167.857 142.195C166.649 138.988 164.97 136.925 162.866 136.064C162.025 135.72 161.169 135.59 160.358 135.59Z" fill="#353535"/>
<path d="M195.483 150.225C193.835 150.225 192.179 149.853 190.656 149.066C182.661 144.938 177.409 131.821 174.154 122.313C173.984 121.815 173.79 121.251 173.73 121.101C172.948 119.161 173.877 116.947 175.808 116.159C177.738 115.37 179.937 116.297 180.724 118.235C180.862 118.574 181.026 119.053 181.297 119.846C186.748 135.766 191.273 140.854 194.109 142.319C195.749 143.166 197.766 142.281 198.551 140.957C200.571 137.55 198.712 128.897 193.025 115.241L192.834 114.78C192.03 112.847 192.938 110.625 194.864 109.817C196.787 109.01 199 109.922 199.804 111.856L199.994 112.313C205.207 124.834 209.427 137.441 205.042 144.839C203.011 148.266 199.265 150.226 195.483 150.226V150.225Z" fill="#353535"/>
<path d="M66.1855 297.438C66.1855 297.438 126.348 207.11 140.499 181.766C151.037 162.891 178.615 153.643 198.195 159.688C210.452 163.472 337.291 191.167 337.291 191.167C333.341 197.621 77.8017 296.651 66.1855 297.438Z" fill="#FEFEFE"/>
<path d="M66.185 300.953C64.9418 300.953 63.7847 300.289 63.1563 299.197C62.489 298.038 62.5355 296.597 63.2773 295.484C63.8781 294.582 123.524 204.982 137.446 180.046C142.852 170.365 152.55 162.565 164.754 158.081C176.404 153.802 188.968 153.163 199.223 156.328C211.201 160.026 336.767 187.456 338.034 187.732C339.142 187.974 340.065 188.741 340.51 189.789C340.954 190.837 340.866 192.037 340.271 193.007C339.386 194.455 338.283 196.256 296.229 213.634C272.827 223.304 240.74 236.113 205.879 249.703C160.998 267.199 74.0928 300.425 66.4204 300.944C66.3414 300.949 66.263 300.952 66.1845 300.952L66.185 300.953ZM185.364 161.355C168.846 161.355 150.945 170.242 143.551 183.485C131.802 204.528 89.3965 268.786 74.3522 291.476C93.9252 284.974 143.849 266.324 201.094 244.029C261.794 220.389 309.565 200.909 327.43 192.607C297.917 186.139 207.624 166.276 197.167 163.048C193.437 161.896 189.442 161.355 185.363 161.355H185.364Z" fill="#353535"/>
</svg>
