<svg width="288" height="210" viewBox="0 0 288 210" fill="none" xmlns="http://www.w3.org/2000/svg">
<path d="M274.046 66.7416C280.421 80.6772 323.8 176.001 320.476 181.64C317.152 187.279 69.5887 280.89 62.8859 282.615C56.1826 284.34 15.8014 170.36 12.7959 158.576C9.79052 146.793 76.1657 40.616 81.9685 28.3597C87.7713 16.1035 108.54 8.07271 127.065 13.4704C145.589 18.8682 267.951 53.4171 274.046 66.7416Z" fill="#FEFEFE"/>
<path d="M62.6831 285.985C59.8734 285.985 57.8083 282.915 56.071 279.965C54.3394 277.024 52.1699 272.66 49.6237 266.993C45.24 257.237 39.764 243.732 33.348 226.854C21.7628 196.374 11.1056 165.408 9.5749 159.406C8.66444 155.837 10.2422 148.093 27.796 115.873C38.7899 95.6943 52.972 71.6431 63.3276 54.0812C71.2111 40.7124 77.4376 30.1526 78.9655 26.9256C85.8246 12.438 108.733 4.65155 127.99 10.2635C129.142 10.5989 130.696 11.0478 132.6 11.5969C147.135 15.7924 181.175 25.6175 212.527 36.0245C230.19 41.8879 244.385 47.0752 254.716 51.4425C272.185 58.8272 275.818 62.6153 277.067 65.347C280.55 72.9613 292.782 99.8373 303.953 125.985C310.365 140.993 315.304 153.144 318.634 162.1C324.806 178.697 324.447 181.458 323.337 183.342C322.488 184.781 321.612 186.269 281.007 202.653C259.609 211.287 229.571 223.065 194.138 236.714C132.561 260.434 67.4021 284.901 63.7109 285.851C63.3575 285.942 63.0151 285.985 62.6831 285.985ZM16.0251 157.782C17.4261 163.232 27.3115 192.007 38.1686 220.796C55.1629 265.857 61.4051 276.475 63.3381 278.964C72.9608 275.647 130.095 254.214 189.217 231.457C292.001 191.892 313.075 182.206 317.275 179.849C316.848 176.834 313.823 165.88 296.89 126.394C285.99 100.974 274.338 75.3777 271.026 68.1366C270.876 67.8117 269.072 64.7559 252.112 57.5887C241.94 53.2897 227.911 48.1658 210.417 42.3593C179.197 31.9961 145.258 22.2001 130.765 18.017C128.855 17.466 127.295 17.0156 126.139 16.6788C108.557 11.5554 89.9033 19.3782 84.9711 29.7948C83.3136 33.2956 77.3307 43.4422 69.0497 57.4857C58.8489 74.7847 44.8786 98.4767 33.9968 118.407C16.7284 150.035 15.8645 156.532 16.026 157.782H16.0251Z" fill="#353535"/>
<path d="M231.773 0.296728C227.318 -1.50092 107.582 36.0947 53.4992 55.3851C40.8416 59.8997 5.57449 81.6542 9.4272 94.0245C24.3887 142.065 64.429 255.338 68.8678 257.108C74.4498 259.335 290.404 179.643 291.734 175.331C293.064 171.019 239.395 3.37153 231.773 0.296251L231.773 0.296728Z" fill="#6A6EFF"/>
<path d="M69.0383 260.489C68.3344 260.489 67.9896 260.352 67.641 260.213C66.0077 259.561 64.7173 259.047 56.4277 238.565C51.8441 227.24 45.8551 211.532 39.1081 193.141C25.5951 156.306 11.8874 116.512 4.99791 94.118C-1.02955 74.5266 -0.349438 73.5138 0.679757 71.9804C1.54462 70.6923 2.36152 69.4757 36.9927 57.5009C56.7962 50.6534 82.9996 41.9337 110.775 32.9483C139.019 23.8112 165.392 15.5343 185.036 9.64136C220.265 -0.926514 221.732 -0.33493 223.285 0.291481C225.03 0.995656 227.202 1.87206 239.379 29.5992C247.633 48.3948 256.963 71.5496 263.336 87.664C271.468 108.225 279.582 129.462 285.598 145.928C295.73 173.658 295.331 174.951 294.909 176.32C294.424 177.893 293.22 178.698 289.849 180.318C275.045 187.432 218.105 209.012 171.465 226.051C144.818 235.787 120.355 244.478 102.581 250.524C77.9097 258.917 71.4192 260.489 69.0383 260.489ZM6.8117 75.7126C8.15531 83.2019 18.3356 115.419 36.1606 165.421C54.1423 215.862 66.7334 247.347 70.3563 253.64C78.293 252.004 116.967 239 180.261 215.717C234.809 195.651 279.353 178.303 288.109 173.763C285.965 165.675 273.68 131.907 257.151 90.1167C236.761 38.5607 224.437 11.6222 220.777 6.76359C213.702 7.83751 175.64 18.9807 112.778 39.3179C59.1197 56.6765 15.2737 71.7538 6.8117 75.7126Z" fill="#353535"/>
<path d="M178.589 192.239C198.509 185.385 260.05 103.952 279.111 77.8886C292.354 107.192 323.302 176.845 320.476 181.64C317.151 187.28 69.5883 280.89 62.8854 282.616C57.6839 283.954 32.2048 215.625 19.645 179.436C48.8054 184.022 155.838 200.066 178.589 192.238V192.239Z" fill="#FEFEFE"/>
<path d="M62.5967 286C59.6953 286 57.171 282.729 52.7175 273.62C49.5985 267.241 45.6366 258.065 40.9409 246.346C32.1545 224.418 22.5578 197.972 16.5062 180.535C16.1215 179.427 16.3442 178.198 17.0927 177.297C17.8412 176.395 19.0044 175.955 20.1599 176.137C84.8419 186.309 160.146 195.05 177.512 189.079C194.588 183.203 249.684 112.484 276.433 75.9111C277.131 74.9555 278.282 74.4426 279.456 74.5667C280.63 74.6893 281.651 75.4283 282.139 76.5079C288.153 89.8157 299.626 115.457 308.886 137.664C326.029 178.773 324.536 181.306 323.337 183.342C322.488 184.781 321.611 186.269 281.007 202.653C259.61 211.287 229.571 223.065 194.139 236.714C132.561 260.434 67.4026 284.901 63.7114 285.851C63.3309 285.949 62.961 286 62.5967 286ZM24.621 183.592C30.2243 199.532 38.2133 221.415 45.7392 240.412C57.1316 269.17 61.7542 276.9 63.3428 278.962C72.9817 275.639 130.107 254.209 189.217 231.456C292.07 191.865 313.103 182.193 317.283 179.844C316.446 173.608 305.927 145.566 278.421 84.4495C266.076 101.16 248.281 124.406 231.729 144.402C205.963 175.528 188.934 192.209 179.667 195.398C157.974 202.862 67.9792 190.295 24.6205 183.591L24.621 183.592Z" fill="#353535"/>
<path d="M77.2543 149.621C75.9097 149.621 74.6212 148.859 74.0081 147.558C67.9108 134.614 58.3655 109.53 57.9622 108.469C57.2555 106.609 58.1836 104.526 60.0353 103.816C61.8857 103.105 63.9607 104.038 64.6674 105.898C64.7653 106.155 74.5172 131.784 80.4953 144.474C81.343 146.274 80.5779 148.423 78.7864 149.275C78.2906 149.51 77.7682 149.622 77.2538 149.622L77.2543 149.621Z" fill="#353535"/>
<path d="M44.8719 120.921C43.6366 120.921 42.4346 120.28 41.7677 119.131C40.7699 117.411 41.3493 115.204 43.0615 114.201C53.0903 108.33 67.4928 101.221 75.1674 98.3545C77.0244 97.6609 79.0909 98.6107 79.7819 100.477C80.4729 102.342 79.5269 104.418 77.6694 105.112C70.4384 107.813 56.2453 114.828 46.6753 120.43C46.1073 120.763 45.4856 120.921 44.8719 120.921Z" fill="#353535"/>
<path d="M102.683 137.515C101.47 137.515 100.286 136.898 99.6111 135.78C95.4483 128.887 86.3361 109.96 83.9856 101.978C83.4233 100.069 84.5085 98.0635 86.4087 97.4986C88.308 96.9352 90.3056 98.0234 90.8679 99.9327C92.9002 106.834 101.472 124.961 105.747 132.04C106.776 133.742 106.235 135.959 104.541 136.992C103.959 137.346 103.317 137.515 102.683 137.515V137.515Z" fill="#353535"/>
<path d="M119.108 126.792C117.8 126.792 116.538 126.07 115.905 124.818C112.125 117.336 108.968 109.548 105.916 102.017C104.62 98.8192 103.28 95.5125 101.914 92.2856C101.139 90.4536 101.988 88.3367 103.812 87.5577C105.637 86.7786 107.743 87.6326 108.519 89.465C109.906 92.7431 111.257 96.0755 112.564 99.2987C115.561 106.693 118.66 114.34 122.306 121.555C123.203 123.33 122.497 125.5 120.73 126.401C120.209 126.666 119.655 126.792 119.108 126.792Z" fill="#353535"/>
<path d="M88.2012 125.155C87.001 125.155 85.8279 124.55 85.1487 123.45C84.1034 121.759 84.6215 119.536 86.3057 118.486C92.9643 114.336 101.88 110.077 110.769 106.801C112.629 106.115 114.691 107.075 115.374 108.944C116.056 110.813 115.101 112.884 113.24 113.57C104.915 116.638 96.2604 120.766 90.09 124.612C89.5011 124.98 88.8471 125.155 88.2012 125.155Z" fill="#353535"/>
<path d="M129.747 120.245C128.124 120.245 126.652 119.131 126.259 117.475C125.101 112.588 123.812 104.562 122.977 97.0278C122.57 93.358 122.313 90.1697 122.234 87.8091C122.117 84.3288 122.204 81.7663 124.4 80.4863C125.855 79.6366 127.683 79.8647 128.946 81.0541C131.836 83.7734 139.635 92.3275 146.516 99.875C148.238 101.763 149.86 103.542 151.26 105.07C152.602 106.535 152.508 108.816 151.05 110.164C149.592 111.512 147.321 111.418 145.979 109.953C144.576 108.421 142.95 106.638 141.223 104.744C137.465 100.622 133.172 95.9128 129.709 92.1973C130.32 99.1274 131.688 109.25 133.242 115.804C133.701 117.741 132.51 119.685 130.582 120.146C130.303 120.213 130.023 120.245 129.748 120.245H129.747Z" fill="#353535"/>
<path d="M128.923 111.66C127.623 111.66 126.369 110.948 125.731 109.708C124.822 107.939 125.512 105.765 127.273 104.851C129.405 103.746 131.587 102.815 133.697 101.916C135.748 101.041 137.685 100.216 139.557 99.2505C141.32 98.3407 143.483 99.0401 144.388 100.811C145.293 102.582 144.597 104.755 142.834 105.664C140.729 106.749 138.58 107.666 136.501 108.552C134.422 109.439 132.457 110.276 130.566 111.257C130.04 111.53 129.477 111.66 128.923 111.66Z" fill="#353535"/>
<path d="M157.923 104.695C156.568 104.695 155.272 103.921 154.665 102.605C153.715 100.546 150.558 92.5828 147.91 85.4008C146.363 81.2062 145.166 77.7689 144.352 75.1831C142.901 70.5783 142.462 68.5273 143.986 66.764C144.942 65.6581 146.466 65.2178 147.871 65.6443C150.71 66.5049 155.271 70.4227 164.29 78.5374C165.837 79.9296 167.62 81.5335 169.274 82.9853C167.746 77.0175 165.104 68.574 163.565 63.6567C162.465 60.1421 161.514 57.1064 160.894 54.9328C160.347 53.0192 161.449 51.0231 163.354 50.474C165.26 49.9263 167.246 51.0317 167.792 52.9453C168.388 55.0311 169.326 58.0262 170.411 61.4941C178.441 87.1488 178.711 90.5657 176.328 93.0164C175.278 94.0966 173.771 94.4859 172.297 94.0593C170.246 93.4644 167.326 90.9478 159.501 83.9075C157.618 82.2134 155.194 80.0322 152.884 78.0303C155.721 86.0611 159.953 96.9199 161.177 99.5735C162.01 101.38 161.227 103.523 159.429 104.36C158.941 104.587 158.428 104.695 157.923 104.695L157.923 104.695Z" fill="#353535"/>
<path d="M193.566 88.955C192.301 88.955 191.074 88.2814 190.42 87.0896C184.528 76.3534 178.687 64.6734 175.859 52.0145C175.425 50.0718 176.641 48.1439 178.575 47.7078C180.508 47.2727 182.428 48.4931 182.862 50.4358C185.493 62.214 191.07 73.3401 196.705 83.6093C197.662 85.3526 197.031 87.5453 195.295 88.5066C194.746 88.8105 194.152 88.955 193.566 88.955H193.566Z" fill="#353535"/>
<path d="M187.212 74.6411C186.343 74.6411 185.472 74.3262 184.782 73.6884C183.324 72.3397 183.23 70.0597 184.573 68.5946C190.276 62.3724 193.631 50.9992 194.335 43.0649C194.511 41.0816 196.255 39.6165 198.228 39.7945C200.202 39.971 201.659 41.7219 201.483 43.7046C200.648 53.1194 196.728 65.9768 189.853 73.478C189.145 74.2499 188.18 74.6411 187.212 74.6411Z" fill="#353535"/>
<path d="M205.918 76.0647C205.565 76.0647 205.206 76.0122 204.852 75.9011C200.325 74.487 194.522 73.0653 189.706 72.1908C187.756 71.8368 186.461 69.9614 186.813 68.0025C187.166 66.0436 189.032 64.7412 190.983 65.0966C196.066 66.0197 202.196 67.5216 206.983 69.0173C208.875 69.6084 209.932 71.6288 209.344 73.5295C208.865 75.0743 207.448 76.0647 205.918 76.0647Z" fill="#353535"/>
<path d="M129.205 167.726C128.861 167.726 128.512 167.676 128.165 167.571C120.137 165.133 108.835 157.968 102.969 152.729C101.488 151.406 101.355 149.128 102.672 147.64C103.988 146.152 106.256 146.018 107.738 147.341C113.059 152.093 123.371 158.583 130.242 160.67C132.14 161.246 133.212 163.257 132.639 165.163C132.17 166.722 130.746 167.726 129.206 167.726H129.205Z" fill="#353535"/>
<path d="M130.666 180.113C130.636 180.113 130.606 180.113 130.576 180.112C128.595 180.063 127.028 178.41 127.077 176.42C127.392 163.574 125.362 151.041 123.072 138.263C122.72 136.304 124.017 134.429 125.967 134.077C127.919 133.725 129.784 135.026 130.135 136.985C132.494 150.144 134.584 163.075 134.252 176.598C134.203 178.558 132.607 180.113 130.666 180.113Z" fill="#353535"/>
<path d="M154.775 160.535C150.172 160.535 145.436 158.208 141.922 153.893C137.317 148.239 135.284 140.446 136.743 134.038C137.868 129.098 140.896 125.35 145.499 123.2C149.536 121.314 153.781 121.103 157.455 122.607C160.152 123.71 163.858 126.332 166.202 132.558C171.537 146.724 167.211 155.384 161.382 158.765C159.324 159.958 157.066 160.535 154.775 160.535ZM152.364 128.833C150.697 128.833 149.229 129.408 148.525 129.737C145.971 130.931 144.36 132.919 143.74 135.646C142.787 139.83 144.323 145.456 147.476 149.328C150.466 152.997 154.708 154.311 157.793 152.522C160.918 150.709 163.237 145.061 159.489 135.109C158.341 132.061 156.746 130.102 154.747 129.283C153.948 128.957 153.134 128.833 152.364 128.833Z" fill="#353535"/>
<path d="M185.738 142.739C184.171 142.739 182.598 142.385 181.151 141.638C173.555 137.715 168.565 125.252 165.472 116.218C165.31 115.745 165.126 115.208 165.069 115.066C164.326 113.223 165.208 111.119 167.043 110.37C168.877 109.62 170.967 110.502 171.715 112.343C171.845 112.665 172.001 113.12 172.259 113.874C177.438 129 181.737 133.834 184.432 135.226C185.99 136.031 187.907 135.191 188.653 133.933C190.572 130.695 188.805 122.474 183.402 109.498L183.22 109.06C182.457 107.223 183.32 105.112 185.149 104.345C186.977 103.578 189.079 104.445 189.843 106.282L190.024 106.716C194.977 118.613 198.987 130.592 194.82 137.621C192.89 140.877 189.331 142.74 185.738 142.74V142.739Z" fill="#353535"/>
<path d="M62.8859 282.615C62.8859 282.615 120.049 196.789 133.494 172.707C143.507 154.774 169.71 145.987 188.315 151.73C199.961 155.325 320.476 181.64 320.476 181.64C316.723 187.772 73.923 281.868 62.8859 282.615Z" fill="#FEFEFE"/>
<path d="M62.8854 285.955C61.7043 285.955 60.6048 285.324 60.0078 284.287C59.3737 283.185 59.4179 281.816 60.1227 280.759C60.6936 279.902 117.366 194.767 130.594 171.074C135.73 161.875 144.945 154.463 156.54 150.203C167.61 146.137 179.547 145.53 189.291 148.538C200.672 152.051 319.978 178.114 321.182 178.377C322.235 178.607 323.112 179.335 323.534 180.331C323.956 181.327 323.872 182.467 323.308 183.389C322.466 184.764 321.418 186.476 281.461 202.988C259.225 212.176 228.738 224.347 195.615 237.26C152.972 253.884 70.399 285.453 63.1091 285.947C63.0341 285.952 62.9595 285.954 62.885 285.954L62.8854 285.955ZM176.123 153.314C160.428 153.314 143.42 161.758 136.394 174.342C125.231 194.335 84.9398 255.392 70.6455 276.951C89.2427 270.772 136.678 253.052 191.069 231.868C248.743 209.406 294.133 190.897 311.106 183.008C283.065 176.863 197.273 157.99 187.338 154.923C183.793 153.828 179.997 153.314 176.122 153.314H176.123Z" fill="#353535"/>
</svg>
