<svg width="350" height="88" viewBox="0 0 350 88" fill="none" xmlns="http://www.w3.org/2000/svg">
<path d="M154.149 23.6409C133.277 -6.15734 83.8663 -3.61077 65.124 21.0072C51.4013 39.0319 57.3974 60.941 78.3906 72.4802C76.4437 78.0489 68.0377 85.7637 68.0377 85.7637C75.7048 86.6126 89.2737 86.1732 100.478 79.5808C146.853 86.3305 171.967 49.0787 154.149 23.6404V23.6409Z" fill="#FEFEFE"/>
<path d="M74.1862 87.9997C71.3465 87.9997 69.1198 87.8144 67.8254 87.6711C67.0756 87.588 66.444 87.0763 66.2088 86.3623C65.9737 85.6483 66.1789 84.8628 66.7334 84.3535C68.7287 82.5204 73.813 77.3565 75.9359 73.2899C65.5363 67.1253 58.6691 58.262 56.5238 48.1766C54.4821 38.5763 56.9915 28.5159 63.5905 19.848C73.1921 7.23579 91.0212 -0.3576 110.137 0.0129695C129.348 0.392584 145.965 8.6046 155.728 22.5432C159.699 28.2114 161.809 34.7374 161.831 41.4156C161.853 47.834 159.962 54.2957 156.363 60.1028C148.304 73.1059 129.516 85.5132 100.868 81.5742C91.4316 86.9223 81.0323 88 74.1865 88L74.1862 87.9997ZM72.4002 84.1392C78.7674 84.3316 89.7853 83.6444 99.4995 77.9291C99.8783 77.7066 100.322 77.6194 100.757 77.6827C127.933 81.6384 145.608 70.1534 153.087 58.0864C159.8 47.2538 159.606 34.7865 152.57 24.7395C143.52 11.8183 128.025 4.20408 110.061 3.84913C92.1633 3.50214 75.5291 10.5145 66.658 22.1669C60.6597 30.0456 58.4581 38.7647 60.2908 47.3809C62.3038 56.8442 69.0621 65.1614 79.3208 70.8006C80.1427 71.252 80.5179 72.2286 80.209 73.1117C78.9096 76.8284 75.1385 81.256 72.4002 84.1392Z" fill="#353535"/>
<path d="M108.829 50.2838C108.781 50.2838 108.732 50.2822 108.682 50.2784C107.622 50.1986 106.827 49.2774 106.907 48.2205C107.322 42.7483 110.704 40.8806 113.423 39.38C116.354 37.7615 118.886 36.3633 119.233 30.6521C119.471 26.7477 117.084 24.6383 115.64 23.7281C112.819 21.95 109.08 21.7675 106.336 23.2736C103.478 24.8422 101.967 27.963 101.967 32.2986C101.967 33.3582 101.105 34.2172 100.041 34.2172C98.978 34.2172 98.1159 33.3582 98.1159 32.2986C98.1159 26.563 100.376 22.1641 104.478 19.9125C108.476 17.7184 113.665 17.9434 117.699 20.4853C121.378 22.8041 123.338 26.5945 123.077 30.8846C122.602 38.6989 118.547 40.9376 115.289 42.7365C112.71 44.1604 111.006 45.1013 110.747 48.5094C110.671 49.5167 109.827 50.2836 108.829 50.2836V50.2838Z" fill="#353535"/>
<path d="M108.827 61.9497C110.313 61.9497 111.516 60.75 111.516 59.2701C111.516 57.7903 110.313 56.5906 108.827 56.5906C107.342 56.5906 106.138 57.7903 106.138 59.2701C106.138 60.75 107.342 61.9497 108.827 61.9497Z" fill="#353535"/>
<path d="M257.248 77.6356C242.688 83.1436 202.199 84.5712 189.96 70.2439C177.09 55.1773 178.785 27.4466 200.223 13.1598C228.472 -5.66544 265.745 8.08513 278.481 23.8729C294.147 43.294 292.574 60.0901 279.381 69.5586C279.381 69.5586 278.18 78.6337 287.16 83.2085C275.584 86.1673 265.351 84.3067 257.248 77.6356Z" fill="#FEFEFE"/>
<path d="M276.95 86.5C269.44 86.5 262.635 84.2532 256.879 79.8236C249.309 82.3128 237.178 82.6582 224.791 80.6983C210.617 78.4551 199.194 73.6801 193.45 67.5965C185.472 59.1483 181.436 47.7222 182.653 37.0318C183.821 26.7701 189.524 17.957 199.145 11.5454C212.278 2.79333 229.698 -0.388347 248.196 2.5865C264.294 5.17542 278.561 12.073 285.43 20.5878C292.674 29.5673 295.829 39.2695 294.556 48.6462C293.408 57.1003 288.583 65.0459 281.266 70.5816C281.242 72.641 281.783 78.291 288.043 81.4802C288.763 81.847 289.181 82.6208 289.092 83.4231C289.002 84.2257 288.425 84.8889 287.642 85.0891C283.953 86.0317 280.378 86.5 276.95 86.5ZM257.248 75.6949C257.692 75.6949 258.131 75.8471 258.485 76.1382C265.098 81.583 273.113 83.6186 282.356 82.2138C277.797 77.9528 277.068 72.2221 277.454 69.3044C277.524 68.7734 277.811 68.2952 278.247 67.9825C285.119 63.05 289.66 55.8122 290.704 48.1247C291.83 39.8309 288.959 31.1506 282.402 23.0223C276.206 15.3418 262.537 8.82427 247.578 6.4186C237.428 4.78562 217.918 3.70076 201.302 14.774C192.663 20.5315 187.549 28.3795 186.515 37.4702C185.426 47.0396 189.075 57.3065 196.278 64.9341C201.443 70.4048 212.058 74.7536 225.4 76.8646C237.564 78.7898 249.794 78.38 256.559 75.8207C256.783 75.7362 257.016 75.6949 257.248 75.6949Z" fill="#353535"/>
<path d="M219.884 47.2192C222.695 47.2192 224.974 44.944 224.974 42.1373C224.974 39.3306 222.695 37.0554 219.884 37.0554C217.073 37.0554 214.795 39.3306 214.795 42.1373C214.795 44.944 217.073 47.2192 219.884 47.2192Z" fill="#353535"/>
<path d="M240.157 47.2192C242.968 47.2192 245.246 44.944 245.246 42.1373C245.246 39.3306 242.968 37.0554 240.157 37.0554C237.346 37.0554 235.068 39.3306 235.068 42.1373C235.068 44.944 237.346 47.2192 240.157 47.2192Z" fill="#353535"/>
<path d="M260.43 47.2192C263.24 47.2192 265.519 44.944 265.519 42.1373C265.519 39.3306 263.24 37.0554 260.43 37.0554C257.619 37.0554 255.34 39.3306 255.34 42.1373C255.34 44.944 257.619 47.2192 260.43 47.2192Z" fill="#353535"/>
</svg>
